<svg width="895" height="150" viewBox="0 0 895 150" fill="none" xmlns="http://www.w3.org/2000/svg">
<rect x="2.31616" y="1.53662" width="891.018" height="146.087" rx="28.5" stroke="black" stroke-width="3"/>
<path d="M68.1392 64.9386C66.6392 64.9386 65.4225 64.547 64.4892 63.7636C63.5725 62.9636 62.9809 61.847 62.7142 60.4136H64.2892C64.5225 61.4636 64.9809 62.2636 65.6642 62.8136C66.3642 63.3636 67.2142 63.6386 68.2142 63.6386C69.4642 63.6386 70.4559 63.197 71.1892 62.3136C71.9392 61.4303 72.3559 60.2136 72.4392 58.6636H66.5392V57.3386H72.4392C72.3059 55.872 71.8559 54.722 71.0892 53.8886C70.3225 53.0386 69.3142 52.6136 68.0642 52.6136C67.1142 52.6136 66.3225 52.8636 65.6892 53.3636C65.0725 53.847 64.6475 54.547 64.4142 55.4636H62.7892C63.0225 54.1636 63.5975 53.147 64.5142 52.4136C65.4309 51.6803 66.6225 51.3136 68.0892 51.3136C68.9892 51.3136 69.8059 51.4803 70.5392 51.8136C71.2892 52.147 71.9225 52.6136 72.4392 53.2136C72.9725 53.8136 73.3809 54.547 73.6642 55.4136C73.9475 56.2636 74.0892 57.2136 74.0892 58.2636C74.0892 59.2803 73.9475 60.197 73.6642 61.0136C73.3809 61.8303 72.9809 62.5303 72.4642 63.1136C71.9475 63.697 71.3225 64.147 70.5892 64.4636C69.8559 64.7803 69.0392 64.9386 68.1392 64.9386ZM76.4781 51.6886H78.0531V58.3136L85.2031 51.6886H87.3031L81.8281 56.7386L87.6281 64.5886H85.6531L80.6781 57.8136L78.0531 60.2386V64.5886H76.4781V51.6886ZM94.3792 64.9386C93.3959 64.9386 92.5209 64.7636 91.7542 64.4136C91.0042 64.047 90.3709 63.5553 89.8542 62.9386C89.3376 62.322 88.9459 61.6053 88.6792 60.7886C88.4126 59.9553 88.2792 59.072 88.2792 58.1386C88.2792 57.222 88.4126 56.347 88.6792 55.5136C88.9459 54.6803 89.3376 53.9553 89.8542 53.3386C90.3709 52.722 91.0042 52.2303 91.7542 51.8636C92.5209 51.497 93.3959 51.3136 94.3792 51.3136C95.7626 51.3136 96.9292 51.6803 97.8792 52.4136C98.8459 53.147 99.4209 54.2553 99.6042 55.7386H98.0292C97.8126 54.772 97.4126 54.0136 96.8292 53.4636C96.2459 52.9136 95.4292 52.6386 94.3792 52.6386C93.6292 52.6386 92.9709 52.797 92.4042 53.1136C91.8376 53.4303 91.3626 53.847 90.9792 54.3636C90.6126 54.8803 90.3292 55.472 90.1292 56.1386C89.9459 56.7886 89.8542 57.4553 89.8542 58.1386C89.8542 58.822 89.9459 59.497 90.1292 60.1636C90.3292 60.8136 90.6126 61.397 90.9792 61.9136C91.3626 62.4303 91.8376 62.847 92.4042 63.1636C92.9709 63.4803 93.6292 63.6386 94.3792 63.6386C94.8626 63.6386 95.3209 63.547 95.7542 63.3636C96.1876 63.1803 96.5709 62.9303 96.9042 62.6136C97.2376 62.2803 97.5126 61.8886 97.7292 61.4386C97.9459 60.9886 98.0792 60.497 98.1292 59.9636H99.7042C99.4876 61.5303 98.9126 62.7553 97.9792 63.6386C97.0459 64.5053 95.8459 64.9386 94.3792 64.9386ZM101.893 51.6886H103.468V58.3136L110.618 51.6886H112.718L107.243 56.7386L113.043 64.5886H111.068L106.093 57.8136L103.468 60.2386V64.5886H101.893V51.6886ZM114.194 64.7136C114.111 64.7136 114.011 64.7053 113.894 64.6886C113.778 64.672 113.653 64.6553 113.519 64.6386C113.403 64.622 113.286 64.6053 113.169 64.5886C113.069 64.5553 112.994 64.5303 112.944 64.5136V63.1386C113.078 63.1886 113.278 63.2303 113.544 63.2636C113.811 63.297 114.036 63.3136 114.219 63.3136C114.386 63.3136 114.569 63.2886 114.769 63.2386C114.969 63.1886 115.169 63.0553 115.369 62.8386C115.569 62.6053 115.761 62.247 115.944 61.7636C116.128 61.2803 116.286 60.6136 116.419 59.7636C116.553 58.897 116.661 57.8136 116.744 56.5136C116.828 55.197 116.869 53.5886 116.869 51.6886H125.494V64.5886H123.919V53.0136H118.394C118.394 54.8803 118.336 56.4636 118.219 57.7636C118.119 59.0636 117.969 60.147 117.769 61.0136C117.569 61.8803 117.336 62.5636 117.069 63.0636C116.803 63.5636 116.511 63.9386 116.194 64.1886C115.894 64.422 115.569 64.5636 115.219 64.6136C114.886 64.6803 114.544 64.7136 114.194 64.7136ZM138.83 64.9386C137.947 64.9386 137.147 64.772 136.43 64.4386C135.713 64.1053 135.097 63.6553 134.58 63.0886C134.08 62.5053 133.68 61.822 133.38 61.0386C133.097 60.2553 132.938 59.422 132.905 58.5386H130.03V64.5886H128.455V51.6886H130.03V57.2136H132.955C133.038 56.397 133.23 55.6303 133.53 54.9136C133.847 54.197 134.255 53.572 134.755 53.0386C135.255 52.5053 135.847 52.0886 136.53 51.7886C137.213 51.472 137.98 51.3136 138.83 51.3136C139.747 51.3136 140.572 51.497 141.305 51.8636C142.038 52.2303 142.655 52.722 143.155 53.3386C143.672 53.9553 144.063 54.6803 144.33 55.5136C144.613 56.347 144.755 57.222 144.755 58.1386C144.755 59.072 144.613 59.9553 144.33 60.7886C144.063 61.6053 143.672 62.322 143.155 62.9386C142.655 63.5553 142.038 64.047 141.305 64.4136C140.572 64.7636 139.747 64.9386 138.83 64.9386ZM138.83 63.6386C139.513 63.6386 140.122 63.4803 140.655 63.1636C141.205 62.847 141.663 62.4303 142.03 61.9136C142.413 61.397 142.697 60.8136 142.88 60.1636C143.08 59.497 143.18 58.822 143.18 58.1386C143.18 57.4553 143.08 56.7886 142.88 56.1386C142.697 55.472 142.413 54.8803 142.03 54.3636C141.663 53.847 141.205 53.4303 140.655 53.1136C140.122 52.797 139.513 52.6386 138.83 52.6386C138.147 52.6386 137.53 52.797 136.98 53.1136C136.447 53.4303 135.988 53.847 135.605 54.3636C135.238 54.8803 134.955 55.472 134.755 56.1386C134.572 56.7886 134.48 57.4553 134.48 58.1386C134.48 58.822 134.572 59.497 134.755 60.1636C134.955 60.8136 135.238 61.397 135.605 61.9136C135.988 62.4303 136.447 62.847 136.98 63.1636C137.53 63.4803 138.147 63.6386 138.83 63.6386ZM151.633 64.9386C149.916 64.9386 148.616 64.547 147.733 63.7636C146.866 62.9636 146.391 61.8886 146.308 60.5386H147.883C147.95 61.0053 148.066 61.4303 148.233 61.8136C148.4 62.197 148.633 62.522 148.933 62.7886C149.233 63.0553 149.6 63.2636 150.033 63.4136C150.483 63.547 151.025 63.6136 151.658 63.6136C152.375 63.6136 152.958 63.5303 153.408 63.3636C153.858 63.197 154.208 62.9803 154.458 62.7136C154.725 62.4303 154.908 62.122 155.008 61.7886C155.108 61.4553 155.158 61.122 155.158 60.7886C155.158 60.1386 154.941 59.5886 154.508 59.1386C154.091 58.6886 153.391 58.4636 152.408 58.4636H150.258V57.2636H152.033C152.783 57.2636 153.425 57.0636 153.958 56.6636C154.491 56.2636 154.758 55.6803 154.758 54.9136C154.758 54.6803 154.716 54.4303 154.633 54.1636C154.566 53.897 154.416 53.6553 154.183 53.4386C153.95 53.2053 153.625 53.022 153.208 52.8886C152.791 52.7386 152.25 52.6636 151.583 52.6636C150.4 52.6636 149.541 52.9303 149.008 53.4636C148.491 53.9803 148.191 54.6386 148.108 55.4386H146.558C146.625 54.6553 146.808 54.0053 147.108 53.4886C147.408 52.9553 147.783 52.5303 148.233 52.2136C148.683 51.897 149.2 51.672 149.783 51.5386C150.366 51.4053 150.975 51.3386 151.608 51.3386C152.275 51.3386 152.891 51.4053 153.458 51.5386C154.041 51.6553 154.55 51.8553 154.983 52.1386C155.416 52.4053 155.758 52.7636 156.008 53.2136C156.258 53.647 156.383 54.1803 156.383 54.8136C156.383 55.197 156.325 55.547 156.208 55.8636C156.091 56.1803 155.933 56.4636 155.733 56.7136C155.55 56.9636 155.333 57.172 155.083 57.3386C154.833 57.5053 154.575 57.6136 154.308 57.6636V57.7136C154.608 57.7636 154.908 57.8553 155.208 57.9886C155.508 58.122 155.775 58.3136 156.008 58.5636C156.241 58.797 156.433 59.097 156.583 59.4636C156.733 59.8136 156.808 60.2386 156.808 60.7386C156.808 61.4386 156.666 62.0553 156.383 62.5886C156.1 63.1053 155.716 63.5386 155.233 63.8886C154.766 64.2386 154.216 64.497 153.583 64.6636C152.966 64.847 152.316 64.9386 151.633 64.9386ZM159.217 51.6886H160.792V62.7386L167.917 51.6886H169.867V64.5886H168.292V53.5386L161.167 64.5886H159.217V51.6886ZM172.815 51.6886H178.715C180.032 51.6886 181.049 51.947 181.765 52.4636C182.482 52.9803 182.84 53.7386 182.84 54.7386C182.84 55.5053 182.64 56.147 182.24 56.6636C181.857 57.1803 181.315 57.5386 180.615 57.7386V57.7886C181.465 57.9386 182.132 58.272 182.615 58.7886C183.099 59.3053 183.34 60.0386 183.34 60.9886C183.34 62.1553 182.949 63.047 182.165 63.6636C181.382 64.2803 180.232 64.5886 178.715 64.5886H172.815V51.6886ZM178.54 63.2636C179.64 63.2636 180.449 63.0636 180.965 62.6636C181.499 62.247 181.765 61.6303 181.765 60.8136C181.765 60.0636 181.499 59.4886 180.965 59.0886C180.449 58.6886 179.64 58.4886 178.54 58.4886H174.39V63.2636H178.54ZM178.54 57.2636C179.44 57.2636 180.115 57.072 180.565 56.6886C181.032 56.3053 181.265 55.7886 181.265 55.1386C181.265 53.722 180.357 53.0136 178.54 53.0136H174.39V57.2636H178.54ZM185.73 51.6886H187.305V57.1636H194.63V51.6886H196.205V64.5886H194.63V58.4886H187.305V64.5886H185.73V51.6886ZM199.158 51.6886H200.733V56.8636H204.908C206.158 56.8636 207.15 57.197 207.883 57.8636C208.616 58.5303 208.983 59.472 208.983 60.6886C208.983 61.9053 208.616 62.8636 207.883 63.5636C207.15 64.247 206.158 64.5886 204.908 64.5886H199.158V51.6886ZM204.533 63.2636C205.433 63.2636 206.133 63.047 206.633 62.6136C207.15 62.1803 207.408 61.5386 207.408 60.6886C207.408 59.8386 207.15 59.2136 206.633 58.8136C206.133 58.397 205.433 58.1886 204.533 58.1886H200.733V63.2636H204.533ZM211.408 51.6886H212.983V64.5886H211.408V51.6886ZM221.131 64.9386C220.097 64.9386 219.214 64.7636 218.481 64.4136C217.747 64.047 217.147 63.5553 216.681 62.9386C216.214 62.3053 215.864 61.5803 215.631 60.7636C215.414 59.947 215.306 59.072 215.306 58.1386C215.306 57.2886 215.414 56.4553 215.631 55.6386C215.864 54.822 216.214 54.097 216.681 53.4636C217.147 52.8136 217.747 52.297 218.481 51.9136C219.214 51.5136 220.097 51.3136 221.131 51.3136C222.164 51.3136 223.047 51.522 223.781 51.9386C224.514 52.3553 225.106 52.9053 225.556 53.5886C226.022 54.2553 226.356 55.0303 226.556 55.9136C226.756 56.7803 226.839 57.6636 226.806 58.5636H216.881C216.881 59.147 216.956 59.7386 217.106 60.3386C217.272 60.9386 217.531 61.4803 217.881 61.9636C218.231 62.447 218.672 62.847 219.206 63.1636C219.739 63.4803 220.381 63.6386 221.131 63.6386C222.281 63.6386 223.181 63.3386 223.831 62.7386C224.481 62.1386 224.931 61.3386 225.181 60.3386H226.756C226.422 61.8053 225.806 62.9386 224.906 63.7386C224.022 64.5386 222.764 64.9386 221.131 64.9386ZM225.231 57.2386C225.214 56.6386 225.106 56.0636 224.906 55.5136C224.722 54.9636 224.456 54.4803 224.106 54.0636C223.756 53.6303 223.331 53.2886 222.831 53.0386C222.331 52.772 221.764 52.6386 221.131 52.6386C220.481 52.6386 219.906 52.772 219.406 53.0386C218.906 53.2886 218.481 53.6303 218.131 54.0636C217.781 54.4803 217.497 54.972 217.281 55.5386C217.081 56.0886 216.947 56.6553 216.881 57.2386H225.231ZM235.852 51.6886H237.952L242.752 62.8136L247.502 51.6886H249.602V64.5886H248.027V53.9636H247.952L243.427 64.5886H242.027L237.502 53.9636H237.427V64.5886H235.852V51.6886ZM256.202 64.9386C255.602 64.9386 255.035 64.8636 254.502 64.7136C253.985 64.5803 253.527 64.3636 253.127 64.0636C252.743 63.747 252.435 63.3553 252.202 62.8886C251.985 62.4053 251.877 61.8386 251.877 61.1886C251.877 60.2886 252.077 59.5886 252.477 59.0886C252.877 58.572 253.402 58.1803 254.052 57.9136C254.718 57.647 255.46 57.4636 256.277 57.3636C257.11 57.247 257.952 57.1386 258.802 57.0386C259.118 57.0053 259.402 56.9636 259.652 56.9136C259.918 56.8636 260.135 56.7803 260.302 56.6636C260.468 56.5303 260.593 56.3553 260.677 56.1386C260.777 55.922 260.827 55.6386 260.827 55.2886C260.827 54.7553 260.735 54.322 260.552 53.9886C260.385 53.6386 260.143 53.3636 259.827 53.1636C259.527 52.9636 259.168 52.8303 258.752 52.7636C258.352 52.6803 257.918 52.6386 257.452 52.6386C256.452 52.6386 255.635 52.8803 255.002 53.3636C254.368 53.8303 254.035 54.5886 254.002 55.6386H252.427C252.527 54.122 253.043 53.022 253.977 52.3386C254.927 51.6553 256.152 51.3136 257.652 51.3136C258.218 51.3136 258.785 51.372 259.352 51.4886C259.918 51.5886 260.427 51.7886 260.877 52.0886C261.327 52.3886 261.693 52.8136 261.977 53.3636C262.26 53.897 262.402 54.597 262.402 55.4636V62.3136C262.402 62.947 262.71 63.2636 263.327 63.2636C263.527 63.2636 263.693 63.2303 263.827 63.1636V64.4886C263.643 64.522 263.477 64.547 263.327 64.5636C263.193 64.5803 263.018 64.5886 262.802 64.5886C262.402 64.5886 262.077 64.5386 261.827 64.4386C261.593 64.322 261.41 64.1636 261.277 63.9636C261.143 63.7636 261.052 63.5303 261.002 63.2636C260.968 62.9803 260.952 62.672 260.952 62.3386H260.902C260.618 62.7553 260.327 63.1303 260.027 63.4636C259.743 63.7803 259.418 64.047 259.052 64.2636C258.702 64.4803 258.293 64.647 257.827 64.7636C257.36 64.8803 256.818 64.9386 256.202 64.9386ZM256.327 63.6386C256.927 63.6386 257.502 63.547 258.052 63.3636C258.602 63.1803 259.077 62.9136 259.477 62.5636C259.893 62.2136 260.218 61.7886 260.452 61.2886C260.702 60.7886 260.827 60.222 260.827 59.5886V57.5386H260.777C260.677 57.722 260.485 57.8553 260.202 57.9386C259.918 58.022 259.668 58.0803 259.452 58.1136C258.785 58.2303 258.093 58.3386 257.377 58.4386C256.677 58.522 256.035 58.6553 255.452 58.8386C254.868 59.022 254.385 59.2886 254.002 59.6386C253.635 59.9886 253.452 60.472 253.452 61.0886C253.452 61.4886 253.527 61.847 253.677 62.1636C253.843 62.4636 254.06 62.7303 254.327 62.9636C254.593 63.1803 254.893 63.347 255.227 63.4636C255.577 63.5803 255.943 63.6386 256.327 63.6386ZM268.791 53.0136H264.016V51.6886H275.141V53.0136H270.366V64.5886H268.791V53.0136ZM281.8 64.9386C280.766 64.9386 279.883 64.7636 279.15 64.4136C278.416 64.047 277.816 63.5553 277.35 62.9386C276.883 62.3053 276.533 61.5803 276.3 60.7636C276.083 59.947 275.975 59.072 275.975 58.1386C275.975 57.2886 276.083 56.4553 276.3 55.6386C276.533 54.822 276.883 54.097 277.35 53.4636C277.816 52.8136 278.416 52.297 279.15 51.9136C279.883 51.5136 280.766 51.3136 281.8 51.3136C282.833 51.3136 283.716 51.522 284.45 51.9386C285.183 52.3553 285.775 52.9053 286.225 53.5886C286.691 54.2553 287.025 55.0303 287.225 55.9136C287.425 56.7803 287.508 57.6636 287.475 58.5636H277.55C277.55 59.147 277.625 59.7386 277.775 60.3386C277.941 60.9386 278.2 61.4803 278.55 61.9636C278.9 62.447 279.341 62.847 279.875 63.1636C280.408 63.4803 281.05 63.6386 281.8 63.6386C282.95 63.6386 283.85 63.3386 284.5 62.7386C285.15 62.1386 285.6 61.3386 285.85 60.3386H287.425C287.091 61.8053 286.475 62.9386 285.575 63.7386C284.691 64.5386 283.433 64.9386 281.8 64.9386ZM285.9 57.2386C285.883 56.6386 285.775 56.0636 285.575 55.5136C285.391 54.9636 285.125 54.4803 284.775 54.0636C284.425 53.6303 284 53.2886 283.5 53.0386C283 52.772 282.433 52.6386 281.8 52.6386C281.15 52.6386 280.575 52.772 280.075 53.0386C279.575 53.2886 279.15 53.6303 278.8 54.0636C278.45 54.4803 278.166 54.972 277.95 55.5386C277.75 56.0886 277.616 56.6553 277.55 57.2386H285.9ZM289.588 51.6886H291.038V54.1386H291.088C291.455 53.2386 292.047 52.547 292.863 52.0636C293.697 51.5636 294.638 51.3136 295.688 51.3136C296.672 51.3136 297.522 51.497 298.238 51.8636C298.972 52.2303 299.58 52.7303 300.063 53.3636C300.547 53.9803 300.905 54.7053 301.138 55.5386C301.372 56.3553 301.488 57.222 301.488 58.1386C301.488 59.072 301.372 59.947 301.138 60.7636C300.905 61.5803 300.547 62.3053 300.063 62.9386C299.58 63.5553 298.972 64.047 298.238 64.4136C297.522 64.7636 296.672 64.9386 295.688 64.9386C295.205 64.9386 294.73 64.8803 294.263 64.7636C293.813 64.647 293.388 64.472 292.988 64.2386C292.588 64.0053 292.23 63.7136 291.913 63.3636C291.613 63.0136 291.38 62.6053 291.213 62.1386H291.163V69.3386H289.588V51.6886ZM295.688 63.6386C296.438 63.6386 297.08 63.4803 297.613 63.1636C298.147 62.8303 298.58 62.4053 298.913 61.8886C299.263 61.372 299.513 60.7886 299.663 60.1386C299.83 59.472 299.913 58.8053 299.913 58.1386C299.913 57.472 299.83 56.8136 299.663 56.1636C299.513 55.497 299.263 54.9053 298.913 54.3886C298.58 53.872 298.147 53.4553 297.613 53.1386C297.08 52.8053 296.438 52.6386 295.688 52.6386C294.805 52.6386 294.072 52.7886 293.488 53.0886C292.922 53.3886 292.463 53.7886 292.113 54.2886C291.763 54.7886 291.513 55.372 291.363 56.0386C291.23 56.7053 291.163 57.4053 291.163 58.1386C291.163 58.8053 291.238 59.472 291.388 60.1386C291.555 60.7886 291.813 61.372 292.163 61.8886C292.53 62.4053 292.997 62.8303 293.563 63.1636C294.147 63.4803 294.855 63.6386 295.688 63.6386ZM303.919 51.6886H305.494V62.7386L312.619 51.6886H314.569V64.5886H312.994V53.5386L305.869 64.5886H303.919V51.6886ZM321.168 64.9386C320.568 64.9386 320.001 64.8636 319.468 64.7136C318.951 64.5803 318.493 64.3636 318.093 64.0636C317.709 63.747 317.401 63.3553 317.168 62.8886C316.951 62.4053 316.843 61.8386 316.843 61.1886C316.843 60.2886 317.043 59.5886 317.443 59.0886C317.843 58.572 318.368 58.1803 319.018 57.9136C319.684 57.647 320.426 57.4636 321.243 57.3636C322.076 57.247 322.918 57.1386 323.768 57.0386C324.084 57.0053 324.368 56.9636 324.618 56.9136C324.884 56.8636 325.101 56.7803 325.268 56.6636C325.434 56.5303 325.559 56.3553 325.643 56.1386C325.743 55.922 325.793 55.6386 325.793 55.2886C325.793 54.7553 325.701 54.322 325.518 53.9886C325.351 53.6386 325.109 53.3636 324.793 53.1636C324.493 52.9636 324.134 52.8303 323.718 52.7636C323.318 52.6803 322.884 52.6386 322.418 52.6386C321.418 52.6386 320.601 52.8803 319.968 53.3636C319.334 53.8303 319.001 54.5886 318.968 55.6386H317.393C317.493 54.122 318.009 53.022 318.943 52.3386C319.893 51.6553 321.118 51.3136 322.618 51.3136C323.184 51.3136 323.751 51.372 324.318 51.4886C324.884 51.5886 325.393 51.7886 325.843 52.0886C326.293 52.3886 326.659 52.8136 326.943 53.3636C327.226 53.897 327.368 54.597 327.368 55.4636V62.3136C327.368 62.947 327.676 63.2636 328.293 63.2636C328.493 63.2636 328.659 63.2303 328.793 63.1636V64.4886C328.609 64.522 328.443 64.547 328.293 64.5636C328.159 64.5803 327.984 64.5886 327.768 64.5886C327.368 64.5886 327.043 64.5386 326.793 64.4386C326.559 64.322 326.376 64.1636 326.243 63.9636C326.109 63.7636 326.018 63.5303 325.968 63.2636C325.934 62.9803 325.918 62.672 325.918 62.3386H325.868C325.584 62.7553 325.293 63.1303 324.993 63.4636C324.709 63.7803 324.384 64.047 324.018 64.2636C323.668 64.4803 323.259 64.647 322.793 64.7636C322.326 64.8803 321.784 64.9386 321.168 64.9386ZM321.293 63.6386C321.893 63.6386 322.468 63.547 323.018 63.3636C323.568 63.1803 324.043 62.9136 324.443 62.5636C324.859 62.2136 325.184 61.7886 325.418 61.2886C325.668 60.7886 325.793 60.222 325.793 59.5886V57.5386H325.743C325.643 57.722 325.451 57.8553 325.168 57.9386C324.884 58.022 324.634 58.0803 324.418 58.1136C323.751 58.2303 323.059 58.3386 322.343 58.4386C321.643 58.522 321.001 58.6553 320.418 58.8386C319.834 59.022 319.351 59.2886 318.968 59.6386C318.601 59.9886 318.418 60.472 318.418 61.0886C318.418 61.4886 318.493 61.847 318.643 62.1636C318.809 62.4636 319.026 62.7303 319.293 62.9636C319.559 63.1803 319.859 63.347 320.193 63.4636C320.543 63.5803 320.909 63.6386 321.293 63.6386ZM330.356 64.7136C330.273 64.7136 330.173 64.7053 330.056 64.6886C329.94 64.672 329.815 64.6553 329.681 64.6386C329.565 64.622 329.448 64.6053 329.331 64.5886C329.231 64.5553 329.156 64.5303 329.106 64.5136V63.1386C329.24 63.1886 329.44 63.2303 329.706 63.2636C329.973 63.297 330.198 63.3136 330.381 63.3136C330.548 63.3136 330.731 63.2886 330.931 63.2386C331.131 63.1886 331.331 63.0553 331.531 62.8386C331.731 62.6053 331.923 62.247 332.106 61.7636C332.29 61.2803 332.448 60.6136 332.581 59.7636C332.715 58.897 332.823 57.8136 332.906 56.5136C332.99 55.197 333.031 53.5886 333.031 51.6886H341.656V64.5886H340.081V53.0136H334.556C334.556 54.8803 334.498 56.4636 334.381 57.7636C334.281 59.0636 334.131 60.147 333.931 61.0136C333.731 61.8803 333.498 62.5636 333.231 63.0636C332.965 63.5636 332.673 63.9386 332.356 64.1886C332.056 64.422 331.731 64.5636 331.381 64.6136C331.048 64.6803 330.706 64.7136 330.356 64.7136ZM344.617 51.6886H346.192V56.8636H350.367C351.617 56.8636 352.609 57.197 353.342 57.8636C354.075 58.5303 354.442 59.472 354.442 60.6886C354.442 61.9053 354.075 62.8636 353.342 63.5636C352.609 64.247 351.617 64.5886 350.367 64.5886H344.617V51.6886ZM349.992 63.2636C350.892 63.2636 351.592 63.047 352.092 62.6136C352.609 62.1803 352.867 61.5386 352.867 60.6886C352.867 59.8386 352.609 59.2136 352.092 58.8136C351.592 58.397 350.892 58.1886 349.992 58.1886H346.192V63.2636H349.992ZM356.867 51.6886H358.442V64.5886H356.867V51.6886ZM366.873 58.6386V57.5386H391.873V58.6386H366.873ZM400.306 51.6886H402.406L407.206 62.8136L411.956 51.6886H414.056V64.5886H412.481V53.9636H412.406L407.881 64.5886H406.481L401.956 53.9636H401.881V64.5886H400.306V51.6886ZM422.205 64.9386C421.171 64.9386 420.288 64.7636 419.555 64.4136C418.821 64.047 418.221 63.5553 417.755 62.9386C417.288 62.3053 416.938 61.5803 416.705 60.7636C416.488 59.947 416.38 59.072 416.38 58.1386C416.38 57.2886 416.488 56.4553 416.705 55.6386C416.938 54.822 417.288 54.097 417.755 53.4636C418.221 52.8136 418.821 52.297 419.555 51.9136C420.288 51.5136 421.171 51.3136 422.205 51.3136C423.238 51.3136 424.121 51.522 424.855 51.9386C425.588 52.3553 426.18 52.9053 426.63 53.5886C427.096 54.2553 427.43 55.0303 427.63 55.9136C427.83 56.7803 427.913 57.6636 427.88 58.5636H417.955C417.955 59.147 418.03 59.7386 418.18 60.3386C418.346 60.9386 418.605 61.4803 418.955 61.9636C419.305 62.447 419.746 62.847 420.28 63.1636C420.813 63.4803 421.455 63.6386 422.205 63.6386C423.355 63.6386 424.255 63.3386 424.905 62.7386C425.555 62.1386 426.005 61.3386 426.255 60.3386H427.83C427.496 61.8053 426.88 62.9386 425.98 63.7386C425.096 64.5386 423.838 64.9386 422.205 64.9386ZM426.305 57.2386C426.288 56.6386 426.18 56.0636 425.98 55.5136C425.796 54.9636 425.53 54.4803 425.18 54.0636C424.83 53.6303 424.405 53.2886 423.905 53.0386C423.405 52.772 422.838 52.6386 422.205 52.6386C421.555 52.6386 420.98 52.772 420.48 53.0386C419.98 53.2886 419.555 53.6303 419.205 54.0636C418.855 54.4803 418.571 54.972 418.355 55.5386C418.155 56.0886 418.021 56.6553 417.955 57.2386H426.305ZM433.244 53.0136H428.469V51.6886H439.594V53.0136H434.819V64.5886H433.244V53.0136ZM446.253 64.9386C445.219 64.9386 444.336 64.7636 443.603 64.4136C442.869 64.047 442.269 63.5553 441.803 62.9386C441.336 62.3053 440.986 61.5803 440.753 60.7636C440.536 59.947 440.428 59.072 440.428 58.1386C440.428 57.2886 440.536 56.4553 440.753 55.6386C440.986 54.822 441.336 54.097 441.803 53.4636C442.269 52.8136 442.869 52.297 443.603 51.9136C444.336 51.5136 445.219 51.3136 446.253 51.3136C447.286 51.3136 448.169 51.522 448.903 51.9386C449.636 52.3553 450.228 52.9053 450.678 53.5886C451.144 54.2553 451.478 55.0303 451.678 55.9136C451.878 56.7803 451.961 57.6636 451.928 58.5636H442.003C442.003 59.147 442.078 59.7386 442.228 60.3386C442.394 60.9386 442.653 61.4803 443.003 61.9636C443.353 62.447 443.794 62.847 444.328 63.1636C444.861 63.4803 445.503 63.6386 446.253 63.6386C447.403 63.6386 448.303 63.3386 448.953 62.7386C449.603 62.1386 450.053 61.3386 450.303 60.3386H451.878C451.544 61.8053 450.928 62.9386 450.028 63.7386C449.144 64.5386 447.886 64.9386 446.253 64.9386ZM450.353 57.2386C450.336 56.6386 450.228 56.0636 450.028 55.5136C449.844 54.9636 449.578 54.4803 449.228 54.0636C448.878 53.6303 448.453 53.2886 447.953 53.0386C447.453 52.772 446.886 52.6386 446.253 52.6386C445.603 52.6386 445.028 52.772 444.528 53.0386C444.028 53.2886 443.603 53.6303 443.253 54.0636C442.903 54.4803 442.619 54.972 442.403 55.5386C442.203 56.0886 442.069 56.6553 442.003 57.2386H450.353ZM459.492 64.9386C458.508 64.9386 457.633 64.7636 456.867 64.4136C456.117 64.047 455.483 63.5553 454.967 62.9386C454.45 62.322 454.058 61.6053 453.792 60.7886C453.525 59.9553 453.392 59.072 453.392 58.1386C453.392 57.222 453.525 56.347 453.792 55.5136C454.058 54.6803 454.45 53.9553 454.967 53.3386C455.483 52.722 456.117 52.2303 456.867 51.8636C457.633 51.497 458.508 51.3136 459.492 51.3136C460.475 51.3136 461.342 51.497 462.092 51.8636C462.858 52.2303 463.5 52.722 464.017 53.3386C464.533 53.9553 464.925 54.6803 465.192 55.5136C465.458 56.347 465.592 57.222 465.592 58.1386C465.592 59.072 465.458 59.9553 465.192 60.7886C464.925 61.6053 464.533 62.322 464.017 62.9386C463.5 63.5553 462.858 64.047 462.092 64.4136C461.342 64.7636 460.475 64.9386 459.492 64.9386ZM459.492 63.6386C460.242 63.6386 460.9 63.4803 461.467 63.1636C462.033 62.847 462.5 62.4303 462.867 61.9136C463.25 61.397 463.533 60.8136 463.717 60.1636C463.917 59.497 464.017 58.822 464.017 58.1386C464.017 57.4553 463.917 56.7886 463.717 56.1386C463.533 55.472 463.25 54.8803 462.867 54.3636C462.5 53.847 462.033 53.4303 461.467 53.1136C460.9 52.797 460.242 52.6386 459.492 52.6386C458.742 52.6386 458.083 52.797 457.517 53.1136C456.95 53.4303 456.475 53.847 456.092 54.3636C455.725 54.8803 455.442 55.472 455.242 56.1386C455.058 56.7886 454.967 57.4553 454.967 58.1386C454.967 58.822 455.058 59.497 455.242 60.1636C455.442 60.8136 455.725 61.397 456.092 61.9136C456.475 62.4303 456.95 62.847 457.517 63.1636C458.083 63.4803 458.742 63.6386 459.492 63.6386ZM467.933 51.6886H469.383V54.1386H469.433C469.8 53.2386 470.391 52.547 471.208 52.0636C472.041 51.5636 472.983 51.3136 474.033 51.3136C475.016 51.3136 475.866 51.497 476.583 51.8636C477.316 52.2303 477.925 52.7303 478.408 53.3636C478.891 53.9803 479.25 54.7053 479.483 55.5386C479.716 56.3553 479.833 57.222 479.833 58.1386C479.833 59.072 479.716 59.947 479.483 60.7636C479.25 61.5803 478.891 62.3053 478.408 62.9386C477.925 63.5553 477.316 64.047 476.583 64.4136C475.866 64.7636 475.016 64.9386 474.033 64.9386C473.55 64.9386 473.075 64.8803 472.608 64.7636C472.158 64.647 471.733 64.472 471.333 64.2386C470.933 64.0053 470.575 63.7136 470.258 63.3636C469.958 63.0136 469.725 62.6053 469.558 62.1386H469.508V69.3386H467.933V51.6886ZM474.033 63.6386C474.783 63.6386 475.425 63.4803 475.958 63.1636C476.491 62.8303 476.925 62.4053 477.258 61.8886C477.608 61.372 477.858 60.7886 478.008 60.1386C478.175 59.472 478.258 58.8053 478.258 58.1386C478.258 57.472 478.175 56.8136 478.008 56.1636C477.858 55.497 477.608 54.9053 477.258 54.3886C476.925 53.872 476.491 53.4553 475.958 53.1386C475.425 52.8053 474.783 52.6386 474.033 52.6386C473.15 52.6386 472.416 52.7886 471.833 53.0886C471.266 53.3886 470.808 53.7886 470.458 54.2886C470.108 54.7886 469.858 55.372 469.708 56.0386C469.575 56.7053 469.508 57.4053 469.508 58.1386C469.508 58.8053 469.583 59.472 469.733 60.1386C469.9 60.7886 470.158 61.372 470.508 61.8886C470.875 62.4053 471.341 62.8303 471.908 63.1636C472.491 63.4803 473.2 63.6386 474.033 63.6386ZM482.264 51.6886H483.839V62.7386L490.964 51.6886H492.914V64.5886H491.339V53.5386L484.214 64.5886H482.264V51.6886ZM499.137 53.0136H494.362V51.6886H505.487V53.0136H500.712V64.5886H499.137V53.0136ZM506.946 51.6886H508.521V56.8636H512.696C513.946 56.8636 514.938 57.197 515.671 57.8636C516.405 58.5303 516.771 59.472 516.771 60.6886C516.771 61.9053 516.405 62.8636 515.671 63.5636C514.938 64.247 513.946 64.5886 512.696 64.5886H506.946V51.6886ZM512.321 63.2636C513.221 63.2636 513.921 63.047 514.421 62.6136C514.938 62.1803 515.196 61.5386 515.196 60.6886C515.196 59.8386 514.938 59.2136 514.421 58.8136C513.921 58.397 513.221 58.1886 512.321 58.1886H508.521V63.2636H512.321ZM519.196 51.6886H520.771V64.5886H519.196V51.6886ZM526.619 65.3386C526.619 66.072 526.444 66.6553 526.094 67.0886C525.76 67.5386 525.327 67.847 524.794 68.0136V67.0886C524.994 66.9553 525.185 66.772 525.369 66.5386C525.552 66.3053 525.644 65.9386 525.644 65.4386V64.5886H524.794V62.3886H526.619V65.3386ZM543.11 64.9386C542.126 64.9386 541.251 64.7636 540.485 64.4136C539.735 64.047 539.101 63.5553 538.585 62.9386C538.068 62.322 537.676 61.6053 537.41 60.7886C537.143 59.9553 537.01 59.072 537.01 58.1386C537.01 57.222 537.143 56.347 537.41 55.5136C537.676 54.6803 538.068 53.9553 538.585 53.3386C539.101 52.722 539.735 52.2303 540.485 51.8636C541.251 51.497 542.126 51.3136 543.11 51.3136C544.093 51.3136 544.96 51.497 545.71 51.8636C546.476 52.2303 547.118 52.722 547.635 53.3386C548.151 53.9553 548.543 54.6803 548.81 55.5136C549.076 56.347 549.21 57.222 549.21 58.1386C549.21 59.072 549.076 59.9553 548.81 60.7886C548.543 61.6053 548.151 62.322 547.635 62.9386C547.118 63.5553 546.476 64.047 545.71 64.4136C544.96 64.7636 544.093 64.9386 543.11 64.9386ZM543.11 63.6386C543.86 63.6386 544.518 63.4803 545.085 63.1636C545.651 62.847 546.118 62.4303 546.485 61.9136C546.868 61.397 547.151 60.8136 547.335 60.1636C547.535 59.497 547.635 58.822 547.635 58.1386C547.635 57.4553 547.535 56.7886 547.335 56.1386C547.151 55.472 546.868 54.8803 546.485 54.3636C546.118 53.847 545.651 53.4303 545.085 53.1136C544.518 52.797 543.86 52.6386 543.11 52.6386C542.36 52.6386 541.701 52.797 541.135 53.1136C540.568 53.4303 540.093 53.847 539.71 54.3636C539.343 54.8803 539.06 55.472 538.86 56.1386C538.676 56.7886 538.585 57.4553 538.585 58.1386C538.585 58.822 538.676 59.497 538.86 60.1636C539.06 60.8136 539.343 61.397 539.71 61.9136C540.093 62.4303 540.568 62.847 541.135 63.1636C541.701 63.4803 542.36 63.6386 543.11 63.6386ZM551.551 51.6886H553.126V58.3136L560.276 51.6886H562.376L556.901 56.7386L562.701 64.5886H560.726L555.751 57.8136L553.126 60.2386V64.5886H551.551V51.6886ZM567.627 64.9386C567.027 64.9386 566.461 64.8636 565.927 64.7136C565.411 64.5803 564.952 64.3636 564.552 64.0636C564.169 63.747 563.861 63.3553 563.627 62.8886C563.411 62.4053 563.302 61.8386 563.302 61.1886C563.302 60.2886 563.502 59.5886 563.902 59.0886C564.302 58.572 564.827 58.1803 565.477 57.9136C566.144 57.647 566.886 57.4636 567.702 57.3636C568.536 57.247 569.377 57.1386 570.227 57.0386C570.544 57.0053 570.827 56.9636 571.077 56.9136C571.344 56.8636 571.561 56.7803 571.727 56.6636C571.894 56.5303 572.019 56.3553 572.102 56.1386C572.202 55.922 572.252 55.6386 572.252 55.2886C572.252 54.7553 572.161 54.322 571.977 53.9886C571.811 53.6386 571.569 53.3636 571.252 53.1636C570.952 52.9636 570.594 52.8303 570.177 52.7636C569.777 52.6803 569.344 52.6386 568.877 52.6386C567.877 52.6386 567.061 52.8803 566.427 53.3636C565.794 53.8303 565.461 54.5886 565.427 55.6386H563.852C563.952 54.122 564.469 53.022 565.402 52.3386C566.352 51.6553 567.577 51.3136 569.077 51.3136C569.644 51.3136 570.211 51.372 570.777 51.4886C571.344 51.5886 571.852 51.7886 572.302 52.0886C572.752 52.3886 573.119 52.8136 573.402 53.3636C573.686 53.897 573.827 54.597 573.827 55.4636V62.3136C573.827 62.947 574.136 63.2636 574.752 63.2636C574.952 63.2636 575.119 63.2303 575.252 63.1636V64.4886C575.069 64.522 574.902 64.547 574.752 64.5636C574.619 64.5803 574.444 64.5886 574.227 64.5886C573.827 64.5886 573.502 64.5386 573.252 64.4386C573.019 64.322 572.836 64.1636 572.702 63.9636C572.569 63.7636 572.477 63.5303 572.427 63.2636C572.394 62.9803 572.377 62.672 572.377 62.3386H572.327C572.044 62.7553 571.752 63.1303 571.452 63.4636C571.169 63.7803 570.844 64.047 570.477 64.2636C570.127 64.4803 569.719 64.647 569.252 64.7636C568.786 64.8803 568.244 64.9386 567.627 64.9386ZM567.752 63.6386C568.352 63.6386 568.927 63.547 569.477 63.3636C570.027 63.1803 570.502 62.9136 570.902 62.5636C571.319 62.2136 571.644 61.7886 571.877 61.2886C572.127 60.7886 572.252 60.222 572.252 59.5886V57.5386H572.202C572.102 57.722 571.911 57.8553 571.627 57.9386C571.344 58.022 571.094 58.0803 570.877 58.1136C570.211 58.2303 569.519 58.3386 568.802 58.4386C568.102 58.522 567.461 58.6553 566.877 58.8386C566.294 59.022 565.811 59.2886 565.427 59.6386C565.061 59.9886 564.877 60.472 564.877 61.0886C564.877 61.4886 564.952 61.847 565.102 62.1636C565.269 62.4636 565.486 62.7303 565.752 62.9636C566.019 63.1803 566.319 63.347 566.652 63.4636C567.002 63.5803 567.369 63.6386 567.752 63.6386ZM576.941 51.6886H579.041L583.841 62.8136L588.591 51.6886H590.691V64.5886H589.116V53.9636H589.041L584.516 64.5886H583.116L578.591 53.9636H578.516V64.5886H576.941V51.6886ZM598.841 64.9386C597.807 64.9386 596.924 64.7636 596.191 64.4136C595.457 64.047 594.857 63.5553 594.391 62.9386C593.924 62.3053 593.574 61.5803 593.341 60.7636C593.124 59.947 593.016 59.072 593.016 58.1386C593.016 57.2886 593.124 56.4553 593.341 55.6386C593.574 54.822 593.924 54.097 594.391 53.4636C594.857 52.8136 595.457 52.297 596.191 51.9136C596.924 51.5136 597.807 51.3136 598.841 51.3136C599.874 51.3136 600.757 51.522 601.491 51.9386C602.224 52.3553 602.816 52.9053 603.266 53.5886C603.732 54.2553 604.066 55.0303 604.266 55.9136C604.466 56.7803 604.549 57.6636 604.516 58.5636H594.591C594.591 59.147 594.666 59.7386 594.816 60.3386C594.982 60.9386 595.241 61.4803 595.591 61.9636C595.941 62.447 596.382 62.847 596.916 63.1636C597.449 63.4803 598.091 63.6386 598.841 63.6386C599.991 63.6386 600.891 63.3386 601.541 62.7386C602.191 62.1386 602.641 61.3386 602.891 60.3386H604.466C604.132 61.8053 603.516 62.9386 602.616 63.7386C601.732 64.5386 600.474 64.9386 598.841 64.9386ZM602.941 57.2386C602.924 56.6386 602.816 56.0636 602.616 55.5136C602.432 54.9636 602.166 54.4803 601.816 54.0636C601.466 53.6303 601.041 53.2886 600.541 53.0386C600.041 52.772 599.474 52.6386 598.841 52.6386C598.191 52.6386 597.616 52.772 597.116 53.0386C596.616 53.2886 596.191 53.6303 595.841 54.0636C595.491 54.4803 595.207 54.972 594.991 55.5386C594.791 56.0886 594.657 56.6553 594.591 57.2386H602.941ZM606.604 51.6886H608.179V57.1636H615.504V51.6886H617.079V64.5886H615.504V58.4886H608.179V64.5886H606.604V51.6886ZM625.232 64.9386C624.199 64.9386 623.315 64.7636 622.582 64.4136C621.849 64.047 621.249 63.5553 620.782 62.9386C620.315 62.3053 619.965 61.5803 619.732 60.7636C619.515 59.947 619.407 59.072 619.407 58.1386C619.407 57.2886 619.515 56.4553 619.732 55.6386C619.965 54.822 620.315 54.097 620.782 53.4636C621.249 52.8136 621.849 52.297 622.582 51.9136C623.315 51.5136 624.199 51.3136 625.232 51.3136C626.265 51.3136 627.149 51.522 627.882 51.9386C628.615 52.3553 629.207 52.9053 629.657 53.5886C630.124 54.2553 630.457 55.0303 630.657 55.9136C630.857 56.7803 630.94 57.6636 630.907 58.5636H620.982C620.982 59.147 621.057 59.7386 621.207 60.3386C621.374 60.9386 621.632 61.4803 621.982 61.9636C622.332 62.447 622.774 62.847 623.307 63.1636C623.84 63.4803 624.482 63.6386 625.232 63.6386C626.382 63.6386 627.282 63.3386 627.932 62.7386C628.582 62.1386 629.032 61.3386 629.282 60.3386H630.857C630.524 61.8053 629.907 62.9386 629.007 63.7386C628.124 64.5386 626.865 64.9386 625.232 64.9386ZM629.332 57.2386C629.315 56.6386 629.207 56.0636 629.007 55.5136C628.824 54.9636 628.557 54.4803 628.207 54.0636C627.857 53.6303 627.432 53.2886 626.932 53.0386C626.432 52.772 625.865 52.6386 625.232 52.6386C624.582 52.6386 624.007 52.772 623.507 53.0386C623.007 53.2886 622.582 53.6303 622.232 54.0636C621.882 54.4803 621.599 54.972 621.382 55.5386C621.182 56.0886 621.049 56.6553 620.982 57.2386H629.332ZM632.871 64.7136C632.788 64.7136 632.688 64.7053 632.571 64.6886C632.454 64.672 632.329 64.6553 632.196 64.6386C632.079 64.622 631.963 64.6053 631.846 64.5886C631.746 64.5553 631.671 64.5303 631.621 64.5136V63.1386C631.754 63.1886 631.954 63.2303 632.221 63.2636C632.488 63.297 632.713 63.3136 632.896 63.3136C633.063 63.3136 633.246 63.2886 633.446 63.2386C633.646 63.1886 633.846 63.0553 634.046 62.8386C634.246 62.6053 634.438 62.247 634.621 61.7636C634.804 61.2803 634.963 60.6136 635.096 59.7636C635.229 58.897 635.338 57.8136 635.421 56.5136C635.504 55.197 635.546 53.5886 635.546 51.6886H644.171V64.5886H642.596V53.0136H637.071C637.071 54.8803 637.013 56.4636 636.896 57.7636C636.796 59.0636 636.646 60.147 636.446 61.0136C636.246 61.8803 636.013 62.5636 635.746 63.0636C635.479 63.5636 635.188 63.9386 634.871 64.1886C634.571 64.422 634.246 64.5636 633.896 64.6136C633.563 64.6803 633.221 64.7136 632.871 64.7136ZM652.607 64.9386C651.623 64.9386 650.748 64.7636 649.982 64.4136C649.232 64.047 648.598 63.5553 648.082 62.9386C647.565 62.322 647.173 61.6053 646.907 60.7886C646.64 59.9553 646.507 59.072 646.507 58.1386C646.507 57.222 646.64 56.347 646.907 55.5136C647.173 54.6803 647.565 53.9553 648.082 53.3386C648.598 52.722 649.232 52.2303 649.982 51.8636C650.748 51.497 651.623 51.3136 652.607 51.3136C653.59 51.3136 654.457 51.497 655.207 51.8636C655.973 52.2303 656.615 52.722 657.132 53.3386C657.648 53.9553 658.04 54.6803 658.307 55.5136C658.573 56.347 658.707 57.222 658.707 58.1386C658.707 59.072 658.573 59.9553 658.307 60.7886C658.04 61.6053 657.648 62.322 657.132 62.9386C656.615 63.5553 655.973 64.047 655.207 64.4136C654.457 64.7636 653.59 64.9386 652.607 64.9386ZM652.607 63.6386C653.357 63.6386 654.015 63.4803 654.582 63.1636C655.148 62.847 655.615 62.4303 655.982 61.9136C656.365 61.397 656.648 60.8136 656.832 60.1636C657.032 59.497 657.132 58.822 657.132 58.1386C657.132 57.4553 657.032 56.7886 656.832 56.1386C656.648 55.472 656.365 54.8803 655.982 54.3636C655.615 53.847 655.148 53.4303 654.582 53.1136C654.015 52.797 653.357 52.6386 652.607 52.6386C651.857 52.6386 651.198 52.797 650.632 53.1136C650.065 53.4303 649.59 53.847 649.207 54.3636C648.84 54.8803 648.557 55.472 648.357 56.1386C648.173 56.7886 648.082 57.4553 648.082 58.1386C648.082 58.822 648.173 59.497 648.357 60.1636C648.557 60.8136 648.84 61.397 649.207 61.9136C649.59 62.4303 650.065 62.847 650.632 63.1636C651.198 63.4803 651.857 63.6386 652.607 63.6386ZM666.498 64.9386C665.515 64.9386 664.64 64.7636 663.873 64.4136C663.123 64.047 662.49 63.5553 661.973 62.9386C661.457 62.322 661.065 61.6053 660.798 60.7886C660.532 59.9553 660.398 59.072 660.398 58.1386C660.398 57.222 660.532 56.347 660.798 55.5136C661.065 54.6803 661.457 53.9553 661.973 53.3386C662.49 52.722 663.123 52.2303 663.873 51.8636C664.64 51.497 665.515 51.3136 666.498 51.3136C667.882 51.3136 669.048 51.6803 669.998 52.4136C670.965 53.147 671.54 54.2553 671.723 55.7386H670.148C669.932 54.772 669.532 54.0136 668.948 53.4636C668.365 52.9136 667.548 52.6386 666.498 52.6386C665.748 52.6386 665.09 52.797 664.523 53.1136C663.957 53.4303 663.482 53.847 663.098 54.3636C662.732 54.8803 662.448 55.472 662.248 56.1386C662.065 56.7886 661.973 57.4553 661.973 58.1386C661.973 58.822 662.065 59.497 662.248 60.1636C662.448 60.8136 662.732 61.397 663.098 61.9136C663.482 62.4303 663.957 62.847 664.523 63.1636C665.09 63.4803 665.748 63.6386 666.498 63.6386C666.982 63.6386 667.44 63.547 667.873 63.3636C668.307 63.1803 668.69 62.9303 669.023 62.6136C669.357 62.2803 669.632 61.8886 669.848 61.4386C670.065 60.9886 670.198 60.497 670.248 59.9636H671.823C671.607 61.5303 671.032 62.7553 670.098 63.6386C669.165 64.5053 667.965 64.9386 666.498 64.9386ZM677.262 53.0136H672.487V51.6886H683.612V53.0136H678.837V64.5886H677.262V53.0136ZM685.071 51.6886H686.646V62.7386L693.771 51.6886H695.721V64.5886H694.146V53.5386L687.021 64.5886H685.071V51.6886ZM704.303 63.2636H705.828C706.445 62.1136 706.895 60.747 707.178 59.1636C707.461 57.5803 707.603 55.6553 707.603 53.3886V51.6886H716.278V63.2636H718.203V68.6886H716.628V64.5886H705.878V68.6886H704.303V63.2636ZM714.703 63.2636V53.0136H709.128V53.9136C709.128 56.0803 708.97 57.947 708.653 59.5136C708.336 61.0636 707.936 62.3136 707.453 63.2636H714.703ZM719.886 51.6886H721.461V62.7386L728.586 51.6886H730.536V64.5886H728.961V53.5386L721.836 64.5886H719.886V51.6886ZM733.484 51.6886H735.059V57.1636H742.384V51.6886H743.959V64.5886H742.384V58.4886H735.059V64.5886H733.484V51.6886ZM752.387 64.9386C751.404 64.9386 750.529 64.7636 749.762 64.4136C749.012 64.047 748.379 63.5553 747.862 62.9386C747.345 62.322 746.954 61.6053 746.687 60.7886C746.42 59.9553 746.287 59.072 746.287 58.1386C746.287 57.222 746.42 56.347 746.687 55.5136C746.954 54.6803 747.345 53.9553 747.862 53.3386C748.379 52.722 749.012 52.2303 749.762 51.8636C750.529 51.497 751.404 51.3136 752.387 51.3136C753.37 51.3136 754.237 51.497 754.987 51.8636C755.754 52.2303 756.395 52.722 756.912 53.3386C757.429 53.9553 757.82 54.6803 758.087 55.5136C758.354 56.347 758.487 57.222 758.487 58.1386C758.487 59.072 758.354 59.9553 758.087 60.7886C757.82 61.6053 757.429 62.322 756.912 62.9386C756.395 63.5553 755.754 64.047 754.987 64.4136C754.237 64.7636 753.37 64.9386 752.387 64.9386ZM752.387 63.6386C753.137 63.6386 753.795 63.4803 754.362 63.1636C754.929 62.847 755.395 62.4303 755.762 61.9136C756.145 61.397 756.429 60.8136 756.612 60.1636C756.812 59.497 756.912 58.822 756.912 58.1386C756.912 57.4553 756.812 56.7886 756.612 56.1386C756.429 55.472 756.145 54.8803 755.762 54.3636C755.395 53.847 754.929 53.4303 754.362 53.1136C753.795 52.797 753.137 52.6386 752.387 52.6386C751.637 52.6386 750.979 52.797 750.412 53.1136C749.845 53.4303 749.37 53.847 748.987 54.3636C748.62 54.8803 748.337 55.472 748.137 56.1386C747.954 56.7886 747.862 57.4553 747.862 58.1386C747.862 58.822 747.954 59.497 748.137 60.1636C748.337 60.8136 748.62 61.397 748.987 61.9136C749.37 62.4303 749.845 62.847 750.412 63.1636C750.979 63.4803 751.637 63.6386 752.387 63.6386ZM765.354 64.9386C763.637 64.9386 762.337 64.547 761.454 63.7636C760.587 62.9636 760.112 61.8886 760.029 60.5386H761.604C761.67 61.0053 761.787 61.4303 761.954 61.8136C762.12 62.197 762.354 62.522 762.654 62.7886C762.954 63.0553 763.32 63.2636 763.754 63.4136C764.204 63.547 764.745 63.6136 765.379 63.6136C766.095 63.6136 766.679 63.5303 767.129 63.3636C767.579 63.197 767.929 62.9803 768.179 62.7136C768.445 62.4303 768.629 62.122 768.729 61.7886C768.829 61.4553 768.879 61.122 768.879 60.7886C768.879 60.1386 768.662 59.5886 768.229 59.1386C767.812 58.6886 767.112 58.4636 766.129 58.4636H763.979V57.2636H765.754C766.504 57.2636 767.145 57.0636 767.679 56.6636C768.212 56.2636 768.479 55.6803 768.479 54.9136C768.479 54.6803 768.437 54.4303 768.354 54.1636C768.287 53.897 768.137 53.6553 767.904 53.4386C767.67 53.2053 767.345 53.022 766.929 52.8886C766.512 52.7386 765.97 52.6636 765.304 52.6636C764.12 52.6636 763.262 52.9303 762.729 53.4636C762.212 53.9803 761.912 54.6386 761.829 55.4386H760.279C760.345 54.6553 760.529 54.0053 760.829 53.4886C761.129 52.9553 761.504 52.5303 761.954 52.2136C762.404 51.897 762.92 51.672 763.504 51.5386C764.087 51.4053 764.695 51.3386 765.329 51.3386C765.995 51.3386 766.612 51.4053 767.179 51.5386C767.762 51.6553 768.27 51.8553 768.704 52.1386C769.137 52.4053 769.479 52.7636 769.729 53.2136C769.979 53.647 770.104 54.1803 770.104 54.8136C770.104 55.197 770.045 55.547 769.929 55.8636C769.812 56.1803 769.654 56.4636 769.454 56.7136C769.27 56.9636 769.054 57.172 768.804 57.3386C768.554 57.5053 768.295 57.6136 768.029 57.6636V57.7136C768.329 57.7636 768.629 57.8553 768.929 57.9886C769.229 58.122 769.495 58.3136 769.729 58.5636C769.962 58.797 770.154 59.097 770.304 59.4636C770.454 59.8136 770.529 60.2386 770.529 60.7386C770.529 61.4386 770.387 62.0553 770.104 62.5886C769.82 63.1053 769.437 63.5386 768.954 63.8886C768.487 64.2386 767.937 64.497 767.304 64.6636C766.687 64.847 766.037 64.9386 765.354 64.9386ZM776.587 64.9386C775.987 64.9386 775.421 64.8636 774.887 64.7136C774.371 64.5803 773.912 64.3636 773.512 64.0636C773.129 63.747 772.821 63.3553 772.587 62.8886C772.371 62.4053 772.262 61.8386 772.262 61.1886C772.262 60.2886 772.462 59.5886 772.862 59.0886C773.262 58.572 773.787 58.1803 774.437 57.9136C775.104 57.647 775.846 57.4636 776.662 57.3636C777.496 57.247 778.337 57.1386 779.187 57.0386C779.504 57.0053 779.787 56.9636 780.037 56.9136C780.304 56.8636 780.521 56.7803 780.687 56.6636C780.854 56.5303 780.979 56.3553 781.062 56.1386C781.162 55.922 781.212 55.6386 781.212 55.2886C781.212 54.7553 781.121 54.322 780.937 53.9886C780.771 53.6386 780.529 53.3636 780.212 53.1636C779.912 52.9636 779.554 52.8303 779.137 52.7636C778.737 52.6803 778.304 52.6386 777.837 52.6386C776.837 52.6386 776.021 52.8803 775.387 53.3636C774.754 53.8303 774.421 54.5886 774.387 55.6386H772.812C772.912 54.122 773.429 53.022 774.362 52.3386C775.312 51.6553 776.537 51.3136 778.037 51.3136C778.604 51.3136 779.171 51.372 779.737 51.4886C780.304 51.5886 780.812 51.7886 781.262 52.0886C781.712 52.3886 782.079 52.8136 782.362 53.3636C782.646 53.897 782.787 54.597 782.787 55.4636V62.3136C782.787 62.947 783.096 63.2636 783.712 63.2636C783.912 63.2636 784.079 63.2303 784.212 63.1636V64.4886C784.029 64.522 783.862 64.547 783.712 64.5636C783.579 64.5803 783.404 64.5886 783.187 64.5886C782.787 64.5886 782.462 64.5386 782.212 64.4386C781.979 64.322 781.796 64.1636 781.662 63.9636C781.529 63.7636 781.437 63.5303 781.387 63.2636C781.354 62.9803 781.337 62.672 781.337 62.3386H781.287C781.004 62.7553 780.712 63.1303 780.412 63.4636C780.129 63.7803 779.804 64.047 779.437 64.2636C779.087 64.4803 778.679 64.647 778.212 64.7636C777.746 64.8803 777.204 64.9386 776.587 64.9386ZM776.712 63.6386C777.312 63.6386 777.887 63.547 778.437 63.3636C778.987 63.1803 779.462 62.9136 779.862 62.5636C780.279 62.2136 780.604 61.7886 780.837 61.2886C781.087 60.7886 781.212 60.222 781.212 59.5886V57.5386H781.162C781.062 57.722 780.871 57.8553 780.587 57.9386C780.304 58.022 780.054 58.0803 779.837 58.1136C779.171 58.2303 778.479 58.3386 777.762 58.4386C777.062 58.522 776.421 58.6553 775.837 58.8386C775.254 59.022 774.771 59.2886 774.387 59.6386C774.021 59.9886 773.837 60.472 773.837 61.0886C773.837 61.4886 773.912 61.847 774.062 62.1636C774.229 62.4636 774.446 62.7303 774.712 62.9636C774.979 63.1803 775.279 63.347 775.612 63.4636C775.962 63.5803 776.329 63.6386 776.712 63.6386ZM785.901 51.6886H791.801C793.118 51.6886 794.135 51.947 794.851 52.4636C795.568 52.9803 795.926 53.7386 795.926 54.7386C795.926 55.5053 795.726 56.147 795.326 56.6636C794.943 57.1803 794.401 57.5386 793.701 57.7386V57.7886C794.551 57.9386 795.218 58.272 795.701 58.7886C796.185 59.3053 796.426 60.0386 796.426 60.9886C796.426 62.1553 796.035 63.047 795.251 63.6636C794.468 64.2803 793.318 64.5886 791.801 64.5886H785.901V51.6886ZM791.626 63.2636C792.726 63.2636 793.535 63.0636 794.051 62.6636C794.585 62.247 794.851 61.6303 794.851 60.8136C794.851 60.0636 794.585 59.4886 794.051 59.0886C793.535 58.6886 792.726 58.4886 791.626 58.4886H787.476V63.2636H791.626ZM791.626 57.2636C792.526 57.2636 793.201 57.072 793.651 56.6886C794.118 56.3053 794.351 55.7886 794.351 55.1386C794.351 53.722 793.443 53.0136 791.626 53.0136H787.476V57.2636H791.626ZM798.841 51.6886H800.291V54.1386H800.341C800.708 53.2386 801.3 52.547 802.116 52.0636C802.95 51.5636 803.891 51.3136 804.941 51.3136C805.925 51.3136 806.775 51.497 807.491 51.8636C808.225 52.2303 808.833 52.7303 809.316 53.3636C809.8 53.9803 810.158 54.7053 810.391 55.5386C810.625 56.3553 810.741 57.222 810.741 58.1386C810.741 59.072 810.625 59.947 810.391 60.7636C810.158 61.5803 809.8 62.3053 809.316 62.9386C808.833 63.5553 808.225 64.047 807.491 64.4136C806.775 64.7636 805.925 64.9386 804.941 64.9386C804.458 64.9386 803.983 64.8803 803.516 64.7636C803.066 64.647 802.641 64.472 802.241 64.2386C801.841 64.0053 801.483 63.7136 801.166 63.3636C800.866 63.0136 800.633 62.6053 800.466 62.1386H800.416V69.3386H798.841V51.6886ZM804.941 63.6386C805.691 63.6386 806.333 63.4803 806.866 63.1636C807.4 62.8303 807.833 62.4053 808.166 61.8886C808.516 61.372 808.766 60.7886 808.916 60.1386C809.083 59.472 809.166 58.8053 809.166 58.1386C809.166 57.472 809.083 56.8136 808.916 56.1636C808.766 55.497 808.516 54.9053 808.166 54.3886C807.833 53.872 807.4 53.4553 806.866 53.1386C806.333 52.8053 805.691 52.6386 804.941 52.6386C804.058 52.6386 803.325 52.7886 802.741 53.0886C802.175 53.3886 801.716 53.7886 801.366 54.2886C801.016 54.7886 800.766 55.372 800.616 56.0386C800.483 56.7053 800.416 57.4053 800.416 58.1386C800.416 58.8053 800.491 59.472 800.641 60.1386C800.808 60.7886 801.066 61.372 801.416 61.8886C801.783 62.4053 802.25 62.8303 802.816 63.1636C803.4 63.4803 804.108 63.6386 804.941 63.6386ZM816.822 64.9386C816.222 64.9386 815.655 64.8636 815.122 64.7136C814.605 64.5803 814.147 64.3636 813.747 64.0636C813.363 63.747 813.055 63.3553 812.822 62.8886C812.605 62.4053 812.497 61.8386 812.497 61.1886C812.497 60.2886 812.697 59.5886 813.097 59.0886C813.497 58.572 814.022 58.1803 814.672 57.9136C815.338 57.647 816.08 57.4636 816.897 57.3636C817.73 57.247 818.572 57.1386 819.422 57.0386C819.738 57.0053 820.022 56.9636 820.272 56.9136C820.538 56.8636 820.755 56.7803 820.922 56.6636C821.088 56.5303 821.213 56.3553 821.297 56.1386C821.397 55.922 821.447 55.6386 821.447 55.2886C821.447 54.7553 821.355 54.322 821.172 53.9886C821.005 53.6386 820.763 53.3636 820.447 53.1636C820.147 52.9636 819.788 52.8303 819.372 52.7636C818.972 52.6803 818.538 52.6386 818.072 52.6386C817.072 52.6386 816.255 52.8803 815.622 53.3636C814.988 53.8303 814.655 54.5886 814.622 55.6386H813.047C813.147 54.122 813.663 53.022 814.597 52.3386C815.547 51.6553 816.772 51.3136 818.272 51.3136C818.838 51.3136 819.405 51.372 819.972 51.4886C820.538 51.5886 821.047 51.7886 821.497 52.0886C821.947 52.3886 822.313 52.8136 822.597 53.3636C822.88 53.897 823.022 54.597 823.022 55.4636V62.3136C823.022 62.947 823.33 63.2636 823.947 63.2636C824.147 63.2636 824.313 63.2303 824.447 63.1636V64.4886C824.263 64.522 824.097 64.547 823.947 64.5636C823.813 64.5803 823.638 64.5886 823.422 64.5886C823.022 64.5886 822.697 64.5386 822.447 64.4386C822.213 64.322 822.03 64.1636 821.897 63.9636C821.763 63.7636 821.672 63.5303 821.622 63.2636C821.588 62.9803 821.572 62.672 821.572 62.3386H821.522C821.238 62.7553 820.947 63.1303 820.647 63.4636C820.363 63.7803 820.038 64.047 819.672 64.2636C819.322 64.4803 818.913 64.647 818.447 64.7636C817.98 64.8803 817.438 64.9386 816.822 64.9386ZM816.947 63.6386C817.547 63.6386 818.122 63.547 818.672 63.3636C819.222 63.1803 819.697 62.9136 820.097 62.5636C820.513 62.2136 820.838 61.7886 821.072 61.2886C821.322 60.7886 821.447 60.222 821.447 59.5886V57.5386H821.397C821.297 57.722 821.105 57.8553 820.822 57.9386C820.538 58.022 820.288 58.0803 820.072 58.1136C819.405 58.2303 818.713 58.3386 817.997 58.4386C817.297 58.522 816.655 58.6553 816.072 58.8386C815.488 59.022 815.005 59.2886 814.622 59.6386C814.255 59.9886 814.072 60.472 814.072 61.0886C814.072 61.4886 814.147 61.847 814.297 62.1636C814.463 62.4636 814.68 62.7303 814.947 62.9636C815.213 63.1803 815.513 63.347 815.847 63.4636C816.197 63.5803 816.563 63.6386 816.947 63.6386ZM829.036 65.3386C829.036 66.072 828.861 66.6553 828.511 67.0886C828.177 67.5386 827.744 67.847 827.211 68.0136V67.0886C827.411 66.9553 827.602 66.772 827.786 66.5386C827.969 66.3053 828.061 65.9386 828.061 65.4386V64.5886H827.211V62.3886H829.036V65.3386ZM63.5142 80.6886H64.9642V83.1386H65.0142C65.3809 82.2386 65.9725 81.547 66.7892 81.0636C67.6225 80.5636 68.5642 80.3136 69.6142 80.3136C70.5975 80.3136 71.4475 80.497 72.1642 80.8636C72.8975 81.2303 73.5059 81.7303 73.9892 82.3636C74.4725 82.9803 74.8309 83.7053 75.0642 84.5386C75.2975 85.3553 75.4142 86.222 75.4142 87.1386C75.4142 88.072 75.2975 88.947 75.0642 89.7636C74.8309 90.5803 74.4725 91.3053 73.9892 91.9386C73.5059 92.5553 72.8975 93.047 72.1642 93.4136C71.4475 93.7636 70.5975 93.9386 69.6142 93.9386C69.1309 93.9386 68.6559 93.8803 68.1892 93.7636C67.7392 93.647 67.3142 93.472 66.9142 93.2386C66.5142 93.0053 66.1559 92.7136 65.8392 92.3636C65.5392 92.0136 65.3059 91.6053 65.1392 91.1386H65.0892V98.3386H63.5142V80.6886ZM69.6142 92.6386C70.3642 92.6386 71.0059 92.4803 71.5392 92.1636C72.0725 91.8303 72.5059 91.4053 72.8392 90.8886C73.1892 90.372 73.4392 89.7886 73.5892 89.1386C73.7559 88.472 73.8392 87.8053 73.8392 87.1386C73.8392 86.472 73.7559 85.8136 73.5892 85.1636C73.4392 84.497 73.1892 83.9053 72.8392 83.3886C72.5059 82.872 72.0725 82.4553 71.5392 82.1386C71.0059 81.8053 70.3642 81.6386 69.6142 81.6386C68.7309 81.6386 67.9975 81.7886 67.4142 82.0886C66.8475 82.3886 66.3892 82.7886 66.0392 83.2886C65.6892 83.7886 65.4392 84.372 65.2892 85.0386C65.1559 85.7053 65.0892 86.4053 65.0892 87.1386C65.0892 87.8053 65.1642 88.472 65.3142 89.1386C65.4809 89.7886 65.7392 90.372 66.0892 90.8886C66.4559 91.4053 66.9225 91.8303 67.4892 92.1636C68.0725 92.4803 68.7809 92.6386 69.6142 92.6386ZM83.0447 93.9386C82.0113 93.9386 81.128 93.7636 80.3947 93.4136C79.6613 93.047 79.0613 92.5553 78.5947 91.9386C78.128 91.3053 77.778 90.5803 77.5447 89.7636C77.328 88.947 77.2197 88.072 77.2197 87.1386C77.2197 86.2886 77.328 85.4553 77.5447 84.6386C77.778 83.822 78.128 83.097 78.5947 82.4636C79.0613 81.8136 79.6613 81.297 80.3947 80.9136C81.128 80.5136 82.0113 80.3136 83.0447 80.3136C84.078 80.3136 84.9613 80.522 85.6947 80.9386C86.428 81.3553 87.0197 81.9053 87.4697 82.5886C87.9363 83.2553 88.2697 84.0303 88.4697 84.9136C88.6697 85.7803 88.753 86.6636 88.7197 87.5636H78.7947C78.7947 88.147 78.8697 88.7386 79.0197 89.3386C79.1863 89.9386 79.4447 90.4803 79.7947 90.9636C80.1447 91.447 80.5863 91.847 81.1197 92.1636C81.653 92.4803 82.2947 92.6386 83.0447 92.6386C84.1947 92.6386 85.0947 92.3386 85.7447 91.7386C86.3947 91.1386 86.8447 90.3386 87.0947 89.3386H88.6697C88.3363 90.8053 87.7197 91.9386 86.8197 92.7386C85.9363 93.5386 84.678 93.9386 83.0447 93.9386ZM87.1447 86.2386C87.128 85.6386 87.0197 85.0636 86.8197 84.5136C86.6363 83.9636 86.3697 83.4803 86.0197 83.0636C85.6697 82.6303 85.2447 82.2886 84.7447 82.0386C84.2447 81.772 83.678 81.6386 83.0447 81.6386C82.3947 81.6386 81.8197 81.772 81.3197 82.0386C80.8197 82.2886 80.3947 82.6303 80.0447 83.0636C79.6947 83.4803 79.4113 83.972 79.1947 84.5386C78.9947 85.0886 78.8613 85.6553 78.7947 86.2386H87.1447ZM89.4835 92.2636H91.0085C91.6252 91.1136 92.0752 89.747 92.3585 88.1636C92.6419 86.5803 92.7835 84.6553 92.7835 82.3886V80.6886H101.459V92.2636H103.384V97.6886H101.809V93.5886H91.0585V97.6886H89.4835V92.2636ZM99.8835 92.2636V82.0136H94.3085V82.9136C94.3085 85.0803 94.1502 86.947 93.8335 88.5136C93.5169 90.0636 93.1169 91.3136 92.6335 92.2636H99.8835ZM105.091 80.6886H106.666V87.3136L113.816 80.6886H115.916L110.441 85.7386L116.241 93.5886H114.266L109.291 86.8136L106.666 89.2386V93.5886H105.091V80.6886ZM117.518 80.6886H119.093V91.7386L126.218 80.6886H128.168V93.5886H126.593V82.5386L119.468 93.5886H117.518V80.6886ZM136.316 93.9386C135.283 93.9386 134.399 93.7636 133.666 93.4136C132.933 93.047 132.333 92.5553 131.866 91.9386C131.399 91.3053 131.049 90.5803 130.816 89.7636C130.599 88.947 130.491 88.072 130.491 87.1386C130.491 86.2886 130.599 85.4553 130.816 84.6386C131.049 83.822 131.399 83.097 131.866 82.4636C132.333 81.8136 132.933 81.297 133.666 80.9136C134.399 80.5136 135.283 80.3136 136.316 80.3136C137.349 80.3136 138.233 80.522 138.966 80.9386C139.699 81.3553 140.291 81.9053 140.741 82.5886C141.208 83.2553 141.541 84.0303 141.741 84.9136C141.941 85.7803 142.024 86.6636 141.991 87.5636H132.066C132.066 88.147 132.141 88.7386 132.291 89.3386C132.458 89.9386 132.716 90.4803 133.066 90.9636C133.416 91.447 133.858 91.847 134.391 92.1636C134.924 92.4803 135.566 92.6386 136.316 92.6386C137.466 92.6386 138.366 92.3386 139.016 91.7386C139.666 91.1386 140.116 90.3386 140.366 89.3386H141.941C141.608 90.8053 140.991 91.9386 140.091 92.7386C139.208 93.5386 137.949 93.9386 136.316 93.9386ZM140.416 86.2386C140.399 85.6386 140.291 85.0636 140.091 84.5136C139.908 83.9636 139.641 83.4803 139.291 83.0636C138.941 82.6303 138.516 82.2886 138.016 82.0386C137.516 81.772 136.949 81.6386 136.316 81.6386C135.666 81.6386 135.091 81.772 134.591 82.0386C134.091 82.2886 133.666 82.6303 133.316 83.0636C132.966 83.4803 132.683 83.972 132.466 84.5386C132.266 85.0886 132.133 85.6553 132.066 86.2386H140.416ZM151.038 80.6886H161.338V93.5886H159.763V82.0136H152.613V93.5886H151.038V80.6886ZM169.77 93.9386C168.787 93.9386 167.912 93.7636 167.145 93.4136C166.395 93.047 165.762 92.5553 165.245 91.9386C164.728 91.322 164.337 90.6053 164.07 89.7886C163.803 88.9553 163.67 88.072 163.67 87.1386C163.67 86.222 163.803 85.347 164.07 84.5136C164.337 83.6803 164.728 82.9553 165.245 82.3386C165.762 81.722 166.395 81.2303 167.145 80.8636C167.912 80.497 168.787 80.3136 169.77 80.3136C170.753 80.3136 171.62 80.497 172.37 80.8636C173.137 81.2303 173.778 81.722 174.295 82.3386C174.812 82.9553 175.203 83.6803 175.47 84.5136C175.737 85.347 175.87 86.222 175.87 87.1386C175.87 88.072 175.737 88.9553 175.47 89.7886C175.203 90.6053 174.812 91.322 174.295 91.9386C173.778 92.5553 173.137 93.047 172.37 93.4136C171.62 93.7636 170.753 93.9386 169.77 93.9386ZM169.77 92.6386C170.52 92.6386 171.178 92.4803 171.745 92.1636C172.312 91.847 172.778 91.4303 173.145 90.9136C173.528 90.397 173.812 89.8136 173.995 89.1636C174.195 88.497 174.295 87.822 174.295 87.1386C174.295 86.4553 174.195 85.7886 173.995 85.1386C173.812 84.472 173.528 83.8803 173.145 83.3636C172.778 82.847 172.312 82.4303 171.745 82.1136C171.178 81.797 170.52 81.6386 169.77 81.6386C169.02 81.6386 168.362 81.797 167.795 82.1136C167.228 82.4303 166.753 82.847 166.37 83.3636C166.003 83.8803 165.72 84.472 165.52 85.1386C165.337 85.7886 165.245 86.4553 165.245 87.1386C165.245 87.822 165.337 88.497 165.52 89.1636C165.72 89.8136 166.003 90.397 166.37 90.9136C166.753 91.4303 167.228 91.847 167.795 92.1636C168.362 92.4803 169.02 92.6386 169.77 92.6386ZM178.211 80.6886H179.661V83.1386H179.711C180.078 82.2386 180.67 81.547 181.486 81.0636C182.32 80.5636 183.261 80.3136 184.311 80.3136C185.295 80.3136 186.145 80.497 186.861 80.8636C187.595 81.2303 188.203 81.7303 188.686 82.3636C189.17 82.9803 189.528 83.7053 189.761 84.5386C189.995 85.3553 190.111 86.222 190.111 87.1386C190.111 88.072 189.995 88.947 189.761 89.7636C189.528 90.5803 189.17 91.3053 188.686 91.9386C188.203 92.5553 187.595 93.047 186.861 93.4136C186.145 93.7636 185.295 93.9386 184.311 93.9386C183.828 93.9386 183.353 93.8803 182.886 93.7636C182.436 93.647 182.011 93.472 181.611 93.2386C181.211 93.0053 180.853 92.7136 180.536 92.3636C180.236 92.0136 180.003 91.6053 179.836 91.1386H179.786V98.3386H178.211V80.6886ZM184.311 92.6386C185.061 92.6386 185.703 92.4803 186.236 92.1636C186.77 91.8303 187.203 91.4053 187.536 90.8886C187.886 90.372 188.136 89.7886 188.286 89.1386C188.453 88.472 188.536 87.8053 188.536 87.1386C188.536 86.472 188.453 85.8136 188.286 85.1636C188.136 84.497 187.886 83.9053 187.536 83.3886C187.203 82.872 186.77 82.4553 186.236 82.1386C185.703 81.8053 185.061 81.6386 184.311 81.6386C183.428 81.6386 182.695 81.7886 182.111 82.0886C181.545 82.3886 181.086 82.7886 180.736 83.2886C180.386 83.7886 180.136 84.372 179.986 85.0386C179.853 85.7053 179.786 86.4053 179.786 87.1386C179.786 87.8053 179.861 88.472 180.011 89.1386C180.178 89.7886 180.436 90.372 180.786 90.8886C181.153 91.4053 181.62 91.8303 182.186 92.1636C182.77 92.4803 183.478 92.6386 184.311 92.6386ZM198.017 93.9386C197.034 93.9386 196.159 93.7636 195.392 93.4136C194.642 93.047 194.009 92.5553 193.492 91.9386C192.975 91.322 192.584 90.6053 192.317 89.7886C192.05 88.9553 191.917 88.072 191.917 87.1386C191.917 86.222 192.05 85.347 192.317 84.5136C192.584 83.6803 192.975 82.9553 193.492 82.3386C194.009 81.722 194.642 81.2303 195.392 80.8636C196.159 80.497 197.034 80.3136 198.017 80.3136C199 80.3136 199.867 80.497 200.617 80.8636C201.384 81.2303 202.025 81.722 202.542 82.3386C203.059 82.9553 203.45 83.6803 203.717 84.5136C203.984 85.347 204.117 86.222 204.117 87.1386C204.117 88.072 203.984 88.9553 203.717 89.7886C203.45 90.6053 203.059 91.322 202.542 91.9386C202.025 92.5553 201.384 93.047 200.617 93.4136C199.867 93.7636 199 93.9386 198.017 93.9386ZM198.017 92.6386C198.767 92.6386 199.425 92.4803 199.992 92.1636C200.559 91.847 201.025 91.4303 201.392 90.9136C201.775 90.397 202.059 89.8136 202.242 89.1636C202.442 88.497 202.542 87.822 202.542 87.1386C202.542 86.4553 202.442 85.7886 202.242 85.1386C202.059 84.472 201.775 83.8803 201.392 83.3636C201.025 82.847 200.559 82.4303 199.992 82.1136C199.425 81.797 198.767 81.6386 198.017 81.6386C197.267 81.6386 196.609 81.797 196.042 82.1136C195.475 82.4303 195 82.847 194.617 83.3636C194.25 83.8803 193.967 84.472 193.767 85.1386C193.584 85.7886 193.492 86.4553 193.492 87.1386C193.492 87.822 193.584 88.497 193.767 89.1636C193.967 89.8136 194.25 90.397 194.617 90.9136C195 91.4303 195.475 91.847 196.042 92.1636C196.609 92.4803 197.267 92.6386 198.017 92.6386ZM205.109 92.2636H206.634C207.25 91.1136 207.7 89.747 207.984 88.1636C208.267 86.5803 208.409 84.6553 208.409 82.3886V80.6886H217.084V92.2636H219.009V97.6886H217.434V93.5886H206.684V97.6886H205.109V92.2636ZM215.509 92.2636V82.0136H209.934V82.9136C209.934 85.0803 209.775 86.947 209.459 88.5136C209.142 90.0636 208.742 91.3136 208.259 92.2636H215.509ZM220.691 80.6886H222.266V85.8636H226.441C227.691 85.8636 228.683 86.197 229.416 86.8636C230.15 87.5303 230.516 88.472 230.516 89.6886C230.516 90.9053 230.15 91.8636 229.416 92.5636C228.683 93.247 227.691 93.5886 226.441 93.5886H220.691V80.6886ZM226.066 92.2636C226.966 92.2636 227.666 92.047 228.166 91.6136C228.683 91.1803 228.941 90.5386 228.941 89.6886C228.941 88.8386 228.683 88.2136 228.166 87.8136C227.666 87.397 226.966 87.1886 226.066 87.1886H222.266V92.2636H226.066ZM232.941 80.6886H234.516V93.5886H232.941V80.6886ZM243.097 92.2636H244.622C245.238 91.1136 245.688 89.747 245.972 88.1636C246.255 86.5803 246.397 84.6553 246.397 82.3886V80.6886H255.072V92.2636H256.997V97.6886H255.422V93.5886H244.672V97.6886H243.097V92.2636ZM253.497 92.2636V82.0136H247.922V82.9136C247.922 85.0803 247.763 86.947 247.447 88.5136C247.13 90.0636 246.73 91.3136 246.247 92.2636H253.497ZM263.88 93.9386C262.846 93.9386 261.963 93.7636 261.23 93.4136C260.496 93.047 259.896 92.5553 259.43 91.9386C258.963 91.3053 258.613 90.5803 258.38 89.7636C258.163 88.947 258.055 88.072 258.055 87.1386C258.055 86.2886 258.163 85.4553 258.38 84.6386C258.613 83.822 258.963 83.097 259.43 82.4636C259.896 81.8136 260.496 81.297 261.23 80.9136C261.963 80.5136 262.846 80.3136 263.88 80.3136C264.913 80.3136 265.796 80.522 266.53 80.9386C267.263 81.3553 267.855 81.9053 268.305 82.5886C268.771 83.2553 269.105 84.0303 269.305 84.9136C269.505 85.7803 269.588 86.6636 269.555 87.5636H259.63C259.63 88.147 259.705 88.7386 259.855 89.3386C260.021 89.9386 260.28 90.4803 260.63 90.9636C260.98 91.447 261.421 91.847 261.955 92.1636C262.488 92.4803 263.13 92.6386 263.88 92.6386C265.03 92.6386 265.93 92.3386 266.58 91.7386C267.23 91.1386 267.68 90.3386 267.93 89.3386H269.505C269.171 90.8053 268.555 91.9386 267.655 92.7386C266.771 93.5386 265.513 93.9386 263.88 93.9386ZM267.98 86.2386C267.963 85.6386 267.855 85.0636 267.655 84.5136C267.471 83.9636 267.205 83.4803 266.855 83.0636C266.505 82.6303 266.08 82.2886 265.58 82.0386C265.08 81.772 264.513 81.6386 263.88 81.6386C263.23 81.6386 262.655 81.772 262.155 82.0386C261.655 82.2886 261.23 82.6303 260.88 83.0636C260.53 83.4803 260.246 83.972 260.03 84.5386C259.83 85.0886 259.696 85.6553 259.63 86.2386H267.98ZM271.668 80.6886H273.118V83.1386H273.168C273.535 82.2386 274.127 81.547 274.943 81.0636C275.777 80.5636 276.718 80.3136 277.768 80.3136C278.752 80.3136 279.602 80.497 280.318 80.8636C281.052 81.2303 281.66 81.7303 282.143 82.3636C282.627 82.9803 282.985 83.7053 283.218 84.5386C283.452 85.3553 283.568 86.222 283.568 87.1386C283.568 88.072 283.452 88.947 283.218 89.7636C282.985 90.5803 282.627 91.3053 282.143 91.9386C281.66 92.5553 281.052 93.047 280.318 93.4136C279.602 93.7636 278.752 93.9386 277.768 93.9386C277.285 93.9386 276.81 93.8803 276.343 93.7636C275.893 93.647 275.468 93.472 275.068 93.2386C274.668 93.0053 274.31 92.7136 273.993 92.3636C273.693 92.0136 273.46 91.6053 273.293 91.1386H273.243V98.3386H271.668V80.6886ZM277.768 92.6386C278.518 92.6386 279.16 92.4803 279.693 92.1636C280.227 91.8303 280.66 91.4053 280.993 90.8886C281.343 90.372 281.593 89.7886 281.743 89.1386C281.91 88.472 281.993 87.8053 281.993 87.1386C281.993 86.472 281.91 85.8136 281.743 85.1636C281.593 84.497 281.343 83.9053 280.993 83.3886C280.66 82.872 280.227 82.4553 279.693 82.1386C279.16 81.8053 278.518 81.6386 277.768 81.6386C276.885 81.6386 276.152 81.7886 275.568 82.0886C275.002 82.3886 274.543 82.7886 274.193 83.2886C273.843 83.7886 273.593 84.372 273.443 85.0386C273.31 85.7053 273.243 86.4053 273.243 87.1386C273.243 87.8053 273.318 88.472 273.468 89.1386C273.635 89.7886 273.893 90.372 274.243 90.8886C274.61 91.4053 275.077 91.8303 275.643 92.1636C276.227 92.4803 276.935 92.6386 277.768 92.6386ZM291.199 93.9386C290.166 93.9386 289.282 93.7636 288.549 93.4136C287.816 93.047 287.216 92.5553 286.749 91.9386C286.282 91.3053 285.932 90.5803 285.699 89.7636C285.482 88.947 285.374 88.072 285.374 87.1386C285.374 86.2886 285.482 85.4553 285.699 84.6386C285.932 83.822 286.282 83.097 286.749 82.4636C287.216 81.8136 287.816 81.297 288.549 80.9136C289.282 80.5136 290.166 80.3136 291.199 80.3136C292.232 80.3136 293.116 80.522 293.849 80.9386C294.582 81.3553 295.174 81.9053 295.624 82.5886C296.091 83.2553 296.424 84.0303 296.624 84.9136C296.824 85.7803 296.907 86.6636 296.874 87.5636H286.949C286.949 88.147 287.024 88.7386 287.174 89.3386C287.341 89.9386 287.599 90.4803 287.949 90.9636C288.299 91.447 288.741 91.847 289.274 92.1636C289.807 92.4803 290.449 92.6386 291.199 92.6386C292.349 92.6386 293.249 92.3386 293.899 91.7386C294.549 91.1386 294.999 90.3386 295.249 89.3386H296.824C296.491 90.8053 295.874 91.9386 294.974 92.7386C294.091 93.5386 292.832 93.9386 291.199 93.9386ZM295.299 86.2386C295.282 85.6386 295.174 85.0636 294.974 84.5136C294.791 83.9636 294.524 83.4803 294.174 83.0636C293.824 82.6303 293.399 82.2886 292.899 82.0386C292.399 81.772 291.832 81.6386 291.199 81.6386C290.549 81.6386 289.974 81.772 289.474 82.0386C288.974 82.2886 288.549 82.6303 288.199 83.0636C287.849 83.4803 287.566 83.972 287.349 84.5386C287.149 85.0886 287.016 85.6553 286.949 86.2386H295.299ZM298.963 80.6886H304.863C306.179 80.6886 307.196 80.947 307.913 81.4636C308.629 81.9803 308.988 82.7386 308.988 83.7386C308.988 84.5053 308.788 85.147 308.388 85.6636C308.004 86.1803 307.463 86.5386 306.763 86.7386V86.7886C307.613 86.9386 308.279 87.272 308.763 87.7886C309.246 88.3053 309.488 89.0386 309.488 89.9886C309.488 91.1553 309.096 92.047 308.313 92.6636C307.529 93.2803 306.379 93.5886 304.863 93.5886H298.963V80.6886ZM304.688 92.2636C305.788 92.2636 306.596 92.0636 307.113 91.6636C307.646 91.247 307.913 90.6303 307.913 89.8136C307.913 89.0636 307.646 88.4886 307.113 88.0886C306.596 87.6886 305.788 87.4886 304.688 87.4886H300.538V92.2636H304.688ZM304.688 86.2636C305.588 86.2636 306.263 86.072 306.713 85.6886C307.179 85.3053 307.413 84.7886 307.413 84.1386C307.413 82.722 306.504 82.0136 304.688 82.0136H300.538V86.2636H304.688ZM315.528 93.9386C314.928 93.9386 314.361 93.8636 313.828 93.7136C313.311 93.5803 312.853 93.3636 312.453 93.0636C312.07 92.747 311.761 92.3553 311.528 91.8886C311.311 91.4053 311.203 90.8386 311.203 90.1886C311.203 89.2886 311.403 88.5886 311.803 88.0886C312.203 87.572 312.728 87.1803 313.378 86.9136C314.045 86.647 314.786 86.4636 315.603 86.3636C316.436 86.247 317.278 86.1386 318.128 86.0386C318.445 86.0053 318.728 85.9636 318.978 85.9136C319.245 85.8636 319.461 85.7803 319.628 85.6636C319.795 85.5303 319.92 85.3553 320.003 85.1386C320.103 84.922 320.153 84.6386 320.153 84.2886C320.153 83.7553 320.061 83.322 319.878 82.9886C319.711 82.6386 319.47 82.3636 319.153 82.1636C318.853 81.9636 318.495 81.8303 318.078 81.7636C317.678 81.6803 317.245 81.6386 316.778 81.6386C315.778 81.6386 314.961 81.8803 314.328 82.3636C313.695 82.8303 313.361 83.5886 313.328 84.6386H311.753C311.853 83.122 312.37 82.022 313.303 81.3386C314.253 80.6553 315.478 80.3136 316.978 80.3136C317.545 80.3136 318.111 80.372 318.678 80.4886C319.245 80.5886 319.753 80.7886 320.203 81.0886C320.653 81.3886 321.02 81.8136 321.303 82.3636C321.586 82.897 321.728 83.597 321.728 84.4636V91.3136C321.728 91.947 322.036 92.2636 322.653 92.2636C322.853 92.2636 323.02 92.2303 323.153 92.1636V93.4886C322.97 93.522 322.803 93.547 322.653 93.5636C322.52 93.5803 322.345 93.5886 322.128 93.5886C321.728 93.5886 321.403 93.5386 321.153 93.4386C320.92 93.322 320.736 93.1636 320.603 92.9636C320.47 92.7636 320.378 92.5303 320.328 92.2636C320.295 91.9803 320.278 91.672 320.278 91.3386H320.228C319.945 91.7553 319.653 92.1303 319.353 92.4636C319.07 92.7803 318.745 93.047 318.378 93.2636C318.028 93.4803 317.62 93.647 317.153 93.7636C316.686 93.8803 316.145 93.9386 315.528 93.9386ZM315.653 92.6386C316.253 92.6386 316.828 92.547 317.378 92.3636C317.928 92.1803 318.403 91.9136 318.803 91.5636C319.22 91.2136 319.545 90.7886 319.778 90.2886C320.028 89.7886 320.153 89.222 320.153 88.5886V86.5386H320.103C320.003 86.722 319.811 86.8553 319.528 86.9386C319.245 87.022 318.995 87.0803 318.778 87.1136C318.111 87.2303 317.42 87.3386 316.703 87.4386C316.003 87.522 315.361 87.6553 314.778 87.8386C314.195 88.022 313.711 88.2886 313.328 88.6386C312.961 88.9886 312.778 89.472 312.778 90.0886C312.778 90.4886 312.853 90.847 313.003 91.1636C313.17 91.4636 313.386 91.7303 313.653 91.9636C313.92 92.1803 314.22 92.347 314.553 92.4636C314.903 92.5803 315.27 92.6386 315.653 92.6386ZM327.742 94.3386C327.742 95.072 327.567 95.6553 327.217 96.0886C326.883 96.5386 326.45 96.847 325.917 97.0136V96.0886C326.117 95.9553 326.308 95.772 326.492 95.5386C326.675 95.3053 326.767 94.9386 326.767 94.4386V93.5886H325.917V91.3886H327.742V94.3386ZM342.308 86.8886L337.683 80.6886H339.658L343.333 85.5886L346.933 80.6886H348.908L344.258 86.8636L349.283 93.5886H347.283L343.233 88.1636L339.258 93.5886H337.308L342.308 86.8886ZM356.269 93.9386C355.286 93.9386 354.411 93.7636 353.644 93.4136C352.894 93.047 352.261 92.5553 351.744 91.9386C351.227 91.322 350.836 90.6053 350.569 89.7886C350.302 88.9553 350.169 88.072 350.169 87.1386C350.169 86.222 350.302 85.347 350.569 84.5136C350.836 83.6803 351.227 82.9553 351.744 82.3386C352.261 81.722 352.894 81.2303 353.644 80.8636C354.411 80.497 355.286 80.3136 356.269 80.3136C357.252 80.3136 358.119 80.497 358.869 80.8636C359.636 81.2303 360.277 81.722 360.794 82.3386C361.311 82.9553 361.702 83.6803 361.969 84.5136C362.236 85.347 362.369 86.222 362.369 87.1386C362.369 88.072 362.236 88.9553 361.969 89.7886C361.702 90.6053 361.311 91.322 360.794 91.9386C360.277 92.5553 359.636 93.047 358.869 93.4136C358.119 93.7636 357.252 93.9386 356.269 93.9386ZM356.269 92.6386C357.019 92.6386 357.677 92.4803 358.244 92.1636C358.811 91.847 359.277 91.4303 359.644 90.9136C360.027 90.397 360.311 89.8136 360.494 89.1636C360.694 88.497 360.794 87.822 360.794 87.1386C360.794 86.4553 360.694 85.7886 360.494 85.1386C360.311 84.472 360.027 83.8803 359.644 83.3636C359.277 82.847 358.811 82.4303 358.244 82.1136C357.677 81.797 357.019 81.6386 356.269 81.6386C355.519 81.6386 354.861 81.797 354.294 82.1136C353.727 82.4303 353.252 82.847 352.869 83.3636C352.502 83.8803 352.219 84.472 352.019 85.1386C351.836 85.7886 351.744 86.4553 351.744 87.1386C351.744 87.822 351.836 88.497 352.019 89.1636C352.219 89.8136 352.502 90.397 352.869 90.9136C353.252 91.4303 353.727 91.847 354.294 92.1636C354.861 92.4803 355.519 92.6386 356.269 92.6386ZM364.56 93.7136C364.477 93.7136 364.377 93.7053 364.26 93.6886C364.144 93.672 364.019 93.6553 363.885 93.6386C363.769 93.622 363.652 93.6053 363.535 93.5886C363.435 93.5553 363.36 93.5303 363.31 93.5136V92.1386C363.444 92.1886 363.644 92.2303 363.91 92.2636C364.177 92.297 364.402 92.3136 364.585 92.3136C364.752 92.3136 364.935 92.2886 365.135 92.2386C365.335 92.1886 365.535 92.0553 365.735 91.8386C365.935 91.6053 366.127 91.247 366.31 90.7636C366.494 90.2803 366.652 89.6136 366.785 88.7636C366.919 87.897 367.027 86.8136 367.11 85.5136C367.194 84.197 367.235 82.5886 367.235 80.6886H375.86V93.5886H374.285V82.0136H368.76C368.76 83.8803 368.702 85.4636 368.585 86.7636C368.485 88.0636 368.335 89.147 368.135 90.0136C367.935 90.8803 367.702 91.5636 367.435 92.0636C367.169 92.5636 366.877 92.9386 366.56 93.1886C366.26 93.422 365.935 93.5636 365.585 93.6136C365.252 93.6803 364.91 93.7136 364.56 93.7136ZM384.296 93.9386C383.313 93.9386 382.438 93.7636 381.671 93.4136C380.921 93.047 380.288 92.5553 379.771 91.9386C379.255 91.322 378.863 90.6053 378.596 89.7886C378.33 88.9553 378.196 88.072 378.196 87.1386C378.196 86.222 378.33 85.347 378.596 84.5136C378.863 83.6803 379.255 82.9553 379.771 82.3386C380.288 81.722 380.921 81.2303 381.671 80.8636C382.438 80.497 383.313 80.3136 384.296 80.3136C385.28 80.3136 386.146 80.497 386.896 80.8636C387.663 81.2303 388.305 81.722 388.821 82.3386C389.338 82.9553 389.73 83.6803 389.996 84.5136C390.263 85.347 390.396 86.222 390.396 87.1386C390.396 88.072 390.263 88.9553 389.996 89.7886C389.73 90.6053 389.338 91.322 388.821 91.9386C388.305 92.5553 387.663 93.047 386.896 93.4136C386.146 93.7636 385.28 93.9386 384.296 93.9386ZM384.296 92.6386C385.046 92.6386 385.705 92.4803 386.271 92.1636C386.838 91.847 387.305 91.4303 387.671 90.9136C388.055 90.397 388.338 89.8136 388.521 89.1636C388.721 88.497 388.821 87.822 388.821 87.1386C388.821 86.4553 388.721 85.7886 388.521 85.1386C388.338 84.472 388.055 83.8803 387.671 83.3636C387.305 82.847 386.838 82.4303 386.271 82.1136C385.705 81.797 385.046 81.6386 384.296 81.6386C383.546 81.6386 382.888 81.797 382.321 82.1136C381.755 82.4303 381.28 82.847 380.896 83.3636C380.53 83.8803 380.246 84.472 380.046 85.1386C379.863 85.7886 379.771 86.4553 379.771 87.1386C379.771 87.822 379.863 88.497 380.046 89.1636C380.246 89.8136 380.53 90.397 380.896 90.9136C381.28 91.4303 381.755 91.847 382.321 92.1636C382.888 92.4803 383.546 92.6386 384.296 92.6386ZM391.388 92.2636H392.913C393.529 91.1136 393.979 89.747 394.263 88.1636C394.546 86.5803 394.688 84.6553 394.688 82.3886V80.6886H403.363V92.2636H405.288V97.6886H403.713V93.5886H392.963V97.6886H391.388V92.2636ZM401.788 92.2636V82.0136H396.213V82.9136C396.213 85.0803 396.054 86.947 395.738 88.5136C395.421 90.0636 395.021 91.3136 394.538 92.2636H401.788ZM406.971 80.6886H408.546V86.1636H415.871V80.6886H417.446V93.5886H415.871V87.4886H408.546V93.5886H406.971V80.6886ZM420.398 80.6886H421.973V85.8636H426.148C427.398 85.8636 428.39 86.197 429.123 86.8636C429.857 87.5303 430.223 88.472 430.223 89.6886C430.223 90.9053 429.857 91.8636 429.123 92.5636C428.39 93.247 427.398 93.5886 426.148 93.5886H420.398V80.6886ZM425.773 92.2636C426.673 92.2636 427.373 92.047 427.873 91.6136C428.39 91.1803 428.648 90.5386 428.648 89.6886C428.648 88.8386 428.39 88.2136 427.873 87.8136C427.373 87.397 426.673 87.1886 425.773 87.1886H421.973V92.2636H425.773ZM432.648 80.6886H434.223V93.5886H432.648V80.6886ZM442.371 93.9386C441.337 93.9386 440.454 93.7636 439.721 93.4136C438.987 93.047 438.387 92.5553 437.921 91.9386C437.454 91.3053 437.104 90.5803 436.871 89.7636C436.654 88.947 436.546 88.072 436.546 87.1386C436.546 86.2886 436.654 85.4553 436.871 84.6386C437.104 83.822 437.454 83.097 437.921 82.4636C438.387 81.8136 438.987 81.297 439.721 80.9136C440.454 80.5136 441.337 80.3136 442.371 80.3136C443.404 80.3136 444.287 80.522 445.021 80.9386C445.754 81.3553 446.346 81.9053 446.796 82.5886C447.262 83.2553 447.596 84.0303 447.796 84.9136C447.996 85.7803 448.079 86.6636 448.046 87.5636H438.121C438.121 88.147 438.196 88.7386 438.346 89.3386C438.512 89.9386 438.771 90.4803 439.121 90.9636C439.471 91.447 439.912 91.847 440.446 92.1636C440.979 92.4803 441.621 92.6386 442.371 92.6386C443.521 92.6386 444.421 92.3386 445.071 91.7386C445.721 91.1386 446.171 90.3386 446.421 89.3386H447.996C447.662 90.8053 447.046 91.9386 446.146 92.7386C445.262 93.5386 444.004 93.9386 442.371 93.9386ZM446.471 86.2386C446.454 85.6386 446.346 85.0636 446.146 84.5136C445.962 83.9636 445.696 83.4803 445.346 83.0636C444.996 82.6303 444.571 82.2886 444.071 82.0386C443.571 81.772 443.004 81.6386 442.371 81.6386C441.721 81.6386 441.146 81.772 440.646 82.0386C440.146 82.2886 439.721 82.6303 439.371 83.0636C439.021 83.4803 438.737 83.972 438.521 84.5386C438.321 85.0886 438.187 85.6553 438.121 86.2386H446.471ZM457.093 80.6886H458.668V91.7386L465.793 80.6886H467.743V93.5886H466.168V82.5386L459.043 93.5886H457.093V80.6886ZM477.799 80.6886H486.324V82.0136H479.374V93.5886H477.799V80.6886ZM493.134 93.9386C492.151 93.9386 491.276 93.7636 490.509 93.4136C489.759 93.047 489.126 92.5553 488.609 91.9386C488.092 91.322 487.701 90.6053 487.434 89.7886C487.167 88.9553 487.034 88.072 487.034 87.1386C487.034 86.222 487.167 85.347 487.434 84.5136C487.701 83.6803 488.092 82.9553 488.609 82.3386C489.126 81.722 489.759 81.2303 490.509 80.8636C491.276 80.497 492.151 80.3136 493.134 80.3136C494.117 80.3136 494.984 80.497 495.734 80.8636C496.501 81.2303 497.142 81.722 497.659 82.3386C498.176 82.9553 498.567 83.6803 498.834 84.5136C499.101 85.347 499.234 86.222 499.234 87.1386C499.234 88.072 499.101 88.9553 498.834 89.7886C498.567 90.6053 498.176 91.322 497.659 91.9386C497.142 92.5553 496.501 93.047 495.734 93.4136C494.984 93.7636 494.117 93.9386 493.134 93.9386ZM493.134 92.6386C493.884 92.6386 494.542 92.4803 495.109 92.1636C495.676 91.847 496.142 91.4303 496.509 90.9136C496.892 90.397 497.176 89.8136 497.359 89.1636C497.559 88.497 497.659 87.822 497.659 87.1386C497.659 86.4553 497.559 85.7886 497.359 85.1386C497.176 84.472 496.892 83.8803 496.509 83.3636C496.142 82.847 495.676 82.4303 495.109 82.1136C494.542 81.797 493.884 81.6386 493.134 81.6386C492.384 81.6386 491.726 81.797 491.159 82.1136C490.592 82.4303 490.117 82.847 489.734 83.3636C489.367 83.8803 489.084 84.472 488.884 85.1386C488.701 85.7886 488.609 86.4553 488.609 87.1386C488.609 87.822 488.701 88.497 488.884 89.1636C489.084 89.8136 489.367 90.397 489.734 90.9136C490.117 91.4303 490.592 91.847 491.159 92.1636C491.726 92.4803 492.384 92.6386 493.134 92.6386ZM501.576 80.6886H503.026V83.1386H503.076C503.442 82.2386 504.034 81.547 504.851 81.0636C505.684 80.5636 506.626 80.3136 507.676 80.3136C508.659 80.3136 509.509 80.497 510.226 80.8636C510.959 81.2303 511.567 81.7303 512.051 82.3636C512.534 82.9803 512.892 83.7053 513.126 84.5386C513.359 85.3553 513.476 86.222 513.476 87.1386C513.476 88.072 513.359 88.947 513.126 89.7636C512.892 90.5803 512.534 91.3053 512.051 91.9386C511.567 92.5553 510.959 93.047 510.226 93.4136C509.509 93.7636 508.659 93.9386 507.676 93.9386C507.192 93.9386 506.717 93.8803 506.251 93.7636C505.801 93.647 505.376 93.472 504.976 93.2386C504.576 93.0053 504.217 92.7136 503.901 92.3636C503.601 92.0136 503.367 91.6053 503.201 91.1386H503.151V98.3386H501.576V80.6886ZM507.676 92.6386C508.426 92.6386 509.067 92.4803 509.601 92.1636C510.134 91.8303 510.567 91.4053 510.901 90.8886C511.251 90.372 511.501 89.7886 511.651 89.1386C511.817 88.472 511.901 87.8053 511.901 87.1386C511.901 86.472 511.817 85.8136 511.651 85.1636C511.501 84.497 511.251 83.9053 510.901 83.3886C510.567 82.872 510.134 82.4553 509.601 82.1386C509.067 81.8053 508.426 81.6386 507.676 81.6386C506.792 81.6386 506.059 81.7886 505.476 82.0886C504.909 82.3886 504.451 82.7886 504.101 83.2886C503.751 83.7886 503.501 84.372 503.351 85.0386C503.217 85.7053 503.151 86.4053 503.151 87.1386C503.151 87.8053 503.226 88.472 503.376 89.1386C503.542 89.7886 503.801 90.372 504.151 90.8886C504.517 91.4053 504.984 91.8303 505.551 92.1636C506.134 92.4803 506.842 92.6386 507.676 92.6386ZM519.206 88.3636C518.056 88.2803 517.14 87.9053 516.456 87.2386C515.79 86.5553 515.456 85.6553 515.456 84.5386C515.456 83.972 515.548 83.4553 515.731 82.9886C515.915 82.5053 516.173 82.097 516.506 81.7636C516.84 81.4303 517.248 81.172 517.731 80.9886C518.215 80.7886 518.756 80.6886 519.356 80.6886H525.606V93.5886H524.031V88.4636H520.981L516.556 93.5886H514.506L519.206 88.3636ZM524.031 87.1386V82.0136H519.731C518.865 82.0136 518.198 82.2553 517.731 82.7386C517.265 83.2053 517.031 83.8136 517.031 84.5636C517.031 85.3136 517.265 85.9303 517.731 86.4136C518.198 86.897 518.865 87.1386 519.731 87.1386H524.031ZM536.478 87.9636C536.228 88.0636 535.936 88.1636 535.603 88.2636C535.286 88.347 534.936 88.4303 534.553 88.5136C534.186 88.5803 533.803 88.6386 533.403 88.6886C533.003 88.722 532.603 88.7386 532.203 88.7386C530.903 88.7386 529.894 88.422 529.178 87.7886C528.478 87.1553 528.128 86.0886 528.128 84.5886V80.6886H529.703V84.7636C529.703 85.397 529.786 85.8886 529.953 86.2386C530.136 86.572 530.361 86.822 530.628 86.9886C530.911 87.1386 531.219 87.2303 531.553 87.2636C531.886 87.297 532.211 87.3136 532.528 87.3136C533.211 87.3136 533.919 87.2386 534.653 87.0886C535.403 86.922 536.011 86.7386 536.478 86.5386V80.6886H538.053V93.5886H536.478V87.9636ZM541.004 80.6886H542.579V91.7386L549.704 80.6886H551.654V93.5886H550.079V82.5386L542.954 93.5886H541.004V80.6886ZM559.802 93.9386C558.769 93.9386 557.886 93.7636 557.152 93.4136C556.419 93.047 555.819 92.5553 555.352 91.9386C554.886 91.3053 554.536 90.5803 554.302 89.7636C554.086 88.947 553.977 88.072 553.977 87.1386C553.977 86.2886 554.086 85.4553 554.302 84.6386C554.536 83.822 554.886 83.097 555.352 82.4636C555.819 81.8136 556.419 81.297 557.152 80.9136C557.886 80.5136 558.769 80.3136 559.802 80.3136C560.836 80.3136 561.719 80.522 562.452 80.9386C563.186 81.3553 563.777 81.9053 564.227 82.5886C564.694 83.2553 565.027 84.0303 565.227 84.9136C565.427 85.7803 565.511 86.6636 565.477 87.5636H555.552C555.552 88.147 555.627 88.7386 555.777 89.3386C555.944 89.9386 556.202 90.4803 556.552 90.9636C556.902 91.447 557.344 91.847 557.877 92.1636C558.411 92.4803 559.052 92.6386 559.802 92.6386C560.952 92.6386 561.852 92.3386 562.502 91.7386C563.152 91.1386 563.602 90.3386 563.852 89.3386H565.427C565.094 90.8053 564.477 91.9386 563.577 92.7386C562.694 93.5386 561.436 93.9386 559.802 93.9386ZM563.902 86.2386C563.886 85.6386 563.777 85.0636 563.577 84.5136C563.394 83.9636 563.127 83.4803 562.777 83.0636C562.427 82.6303 562.002 82.2886 561.502 82.0386C561.002 81.772 560.436 81.6386 559.802 81.6386C559.152 81.6386 558.577 81.772 558.077 82.0386C557.577 82.2886 557.152 82.6303 556.802 83.0636C556.452 83.4803 556.169 83.972 555.952 84.5386C555.752 85.0886 555.619 85.6553 555.552 86.2386H563.902ZM579.174 93.9386C577.674 93.9386 576.458 93.547 575.524 92.7636C574.608 91.9636 574.016 90.847 573.749 89.4136H575.324C575.558 90.4636 576.016 91.2636 576.699 91.8136C577.399 92.3636 578.249 92.6386 579.249 92.6386C580.499 92.6386 581.491 92.197 582.224 91.3136C582.974 90.4303 583.391 89.2136 583.474 87.6636H577.574V86.3386H583.474C583.341 84.872 582.891 83.722 582.124 82.8886C581.358 82.0386 580.349 81.6136 579.099 81.6136C578.149 81.6136 577.358 81.8636 576.724 82.3636C576.108 82.847 575.683 83.547 575.449 84.4636H573.824C574.058 83.1636 574.633 82.147 575.549 81.4136C576.466 80.6803 577.658 80.3136 579.124 80.3136C580.024 80.3136 580.841 80.4803 581.574 80.8136C582.324 81.147 582.958 81.6136 583.474 82.2136C584.008 82.8136 584.416 83.547 584.699 84.4136C584.983 85.2636 585.124 86.2136 585.124 87.2636C585.124 88.2803 584.983 89.197 584.699 90.0136C584.416 90.8303 584.016 91.5303 583.499 92.1136C582.983 92.697 582.358 93.147 581.624 93.4636C580.891 93.7803 580.074 93.9386 579.174 93.9386ZM587.488 80.6886H589.588L594.388 91.8136L599.138 80.6886H601.238V93.5886H599.663V82.9636H599.588L595.063 93.5886H593.663L589.138 82.9636H589.063V93.5886H587.488V80.6886ZM607.837 93.9386C607.237 93.9386 606.671 93.8636 606.137 93.7136C605.621 93.5803 605.162 93.3636 604.762 93.0636C604.379 92.747 604.071 92.3553 603.837 91.8886C603.621 91.4053 603.512 90.8386 603.512 90.1886C603.512 89.2886 603.712 88.5886 604.112 88.0886C604.512 87.572 605.037 87.1803 605.687 86.9136C606.354 86.647 607.096 86.4636 607.912 86.3636C608.746 86.247 609.587 86.1386 610.437 86.0386C610.754 86.0053 611.037 85.9636 611.287 85.9136C611.554 85.8636 611.771 85.7803 611.937 85.6636C612.104 85.5303 612.229 85.3553 612.312 85.1386C612.412 84.922 612.462 84.6386 612.462 84.2886C612.462 83.7553 612.371 83.322 612.187 82.9886C612.021 82.6386 611.779 82.3636 611.462 82.1636C611.162 81.9636 610.804 81.8303 610.387 81.7636C609.987 81.6803 609.554 81.6386 609.087 81.6386C608.087 81.6386 607.271 81.8803 606.637 82.3636C606.004 82.8303 605.671 83.5886 605.637 84.6386H604.062C604.162 83.122 604.679 82.022 605.612 81.3386C606.562 80.6553 607.787 80.3136 609.287 80.3136C609.854 80.3136 610.421 80.372 610.987 80.4886C611.554 80.5886 612.062 80.7886 612.512 81.0886C612.962 81.3886 613.329 81.8136 613.612 82.3636C613.896 82.897 614.037 83.597 614.037 84.4636V91.3136C614.037 91.947 614.346 92.2636 614.962 92.2636C615.162 92.2636 615.329 92.2303 615.462 92.1636V93.4886C615.279 93.522 615.112 93.547 614.962 93.5636C614.829 93.5803 614.654 93.5886 614.437 93.5886C614.037 93.5886 613.712 93.5386 613.462 93.4386C613.229 93.322 613.046 93.1636 612.912 92.9636C612.779 92.7636 612.687 92.5303 612.637 92.2636C612.604 91.9803 612.587 91.672 612.587 91.3386H612.537C612.254 91.7553 611.962 92.1303 611.662 92.4636C611.379 92.7803 611.054 93.047 610.687 93.2636C610.337 93.4803 609.929 93.647 609.462 93.7636C608.996 93.8803 608.454 93.9386 607.837 93.9386ZM607.962 92.6386C608.562 92.6386 609.137 92.547 609.687 92.3636C610.237 92.1803 610.712 91.9136 611.112 91.5636C611.529 91.2136 611.854 90.7886 612.087 90.2886C612.337 89.7886 612.462 89.222 612.462 88.5886V86.5386H612.412C612.312 86.722 612.121 86.8553 611.837 86.9386C611.554 87.022 611.304 87.0803 611.087 87.1136C610.421 87.2303 609.729 87.3386 609.012 87.4386C608.312 87.522 607.671 87.6553 607.087 87.8386C606.504 88.022 606.021 88.2886 605.637 88.6386C605.271 88.9886 605.087 89.472 605.087 90.0886C605.087 90.4886 605.162 90.847 605.312 91.1636C605.479 91.4636 605.696 91.7303 605.962 91.9636C606.229 92.1803 606.529 92.347 606.862 92.4636C607.212 92.5803 607.579 92.6386 607.962 92.6386ZM617.026 93.7136C616.943 93.7136 616.843 93.7053 616.726 93.6886C616.61 93.672 616.485 93.6553 616.351 93.6386C616.235 93.622 616.118 93.6053 616.001 93.5886C615.901 93.5553 615.826 93.5303 615.776 93.5136V92.1386C615.91 92.1886 616.11 92.2303 616.376 92.2636C616.643 92.297 616.868 92.3136 617.051 92.3136C617.218 92.3136 617.401 92.2886 617.601 92.2386C617.801 92.1886 618.001 92.0553 618.201 91.8386C618.401 91.6053 618.593 91.247 618.776 90.7636C618.96 90.2803 619.118 89.6136 619.251 88.7636C619.385 87.897 619.493 86.8136 619.576 85.5136C619.66 84.197 619.701 82.5886 619.701 80.6886H628.326V93.5886H626.751V82.0136H621.226C621.226 83.8803 621.168 85.4636 621.051 86.7636C620.951 88.0636 620.801 89.147 620.601 90.0136C620.401 90.8803 620.168 91.5636 619.901 92.0636C619.635 92.5636 619.343 92.9386 619.026 93.1886C618.726 93.422 618.401 93.5636 618.051 93.6136C617.718 93.6803 617.376 93.7136 617.026 93.7136ZM631.287 80.6886H632.862V91.7386L639.987 80.6886H641.937V93.5886H640.362V82.5386L633.237 93.5886H631.287V80.6886ZM647.786 94.3386C647.786 95.072 647.611 95.6553 647.261 96.0886C646.927 96.5386 646.494 96.847 645.961 97.0136V96.0886C646.161 95.9553 646.352 95.772 646.536 95.5386C646.719 95.3053 646.811 94.9386 646.811 94.4386V93.5886H645.961V91.3886H647.786V94.3386ZM658.802 80.6886H660.377V86.1636H667.702V80.6886H669.277V93.5886H667.702V87.4886H660.377V93.5886H658.802V80.6886ZM677.429 93.9386C676.396 93.9386 675.513 93.7636 674.779 93.4136C674.046 93.047 673.446 92.5553 672.979 91.9386C672.513 91.3053 672.163 90.5803 671.929 89.7636C671.713 88.947 671.604 88.072 671.604 87.1386C671.604 86.2886 671.713 85.4553 671.929 84.6386C672.163 83.822 672.513 83.097 672.979 82.4636C673.446 81.8136 674.046 81.297 674.779 80.9136C675.513 80.5136 676.396 80.3136 677.429 80.3136C678.463 80.3136 679.346 80.522 680.079 80.9386C680.813 81.3553 681.404 81.9053 681.854 82.5886C682.321 83.2553 682.654 84.0303 682.854 84.9136C683.054 85.7803 683.138 86.6636 683.104 87.5636H673.179C673.179 88.147 673.254 88.7386 673.404 89.3386C673.571 89.9386 673.829 90.4803 674.179 90.9636C674.529 91.447 674.971 91.847 675.504 92.1636C676.038 92.4803 676.679 92.6386 677.429 92.6386C678.579 92.6386 679.479 92.3386 680.129 91.7386C680.779 91.1386 681.229 90.3386 681.479 89.3386H683.054C682.721 90.8053 682.104 91.9386 681.204 92.7386C680.321 93.5386 679.063 93.9386 677.429 93.9386ZM681.529 86.2386C681.513 85.6386 681.404 85.0636 681.204 84.5136C681.021 83.9636 680.754 83.4803 680.404 83.0636C680.054 82.6303 679.629 82.2886 679.129 82.0386C678.629 81.772 678.063 81.6386 677.429 81.6386C676.779 81.6386 676.204 81.772 675.704 82.0386C675.204 82.2886 674.779 82.6303 674.429 83.0636C674.079 83.4803 673.796 83.972 673.579 84.5386C673.379 85.0886 673.246 85.6553 673.179 86.2386H681.529ZM692.943 92.2136H692.893C692.61 92.7136 692.177 93.1303 691.593 93.4636C691.01 93.7803 690.368 93.9386 689.668 93.9386C688.985 93.9386 688.343 93.7886 687.743 93.4886C687.143 93.1886 686.61 92.7553 686.143 92.1886C685.693 91.6053 685.335 90.897 685.068 90.0636C684.802 89.2303 684.668 88.272 684.668 87.1886C684.668 84.9053 685.11 83.1886 685.993 82.0386C686.893 80.8886 688.127 80.3136 689.693 80.3136C690.393 80.3136 691.018 80.472 691.568 80.7886C692.118 81.0886 692.56 81.5136 692.893 82.0636H692.943V75.7386H694.518V82.0636H694.568C694.902 81.5136 695.343 81.0886 695.893 80.7886C696.443 80.472 697.068 80.3136 697.768 80.3136C699.335 80.3136 700.56 80.8886 701.443 82.0386C702.343 83.1886 702.793 84.9053 702.793 87.1886C702.793 88.272 702.66 89.2303 702.393 90.0636C702.127 90.897 701.76 91.6053 701.293 92.1886C700.843 92.7553 700.31 93.1886 699.693 93.4886C699.093 93.7886 698.46 93.9386 697.793 93.9386C697.093 93.9386 696.452 93.7803 695.868 93.4636C695.285 93.1303 694.852 92.7136 694.568 92.2136C694.552 92.2303 694.535 92.2303 694.518 92.2136V98.3386H692.943V92.2136ZM690.068 92.6136C690.885 92.6136 691.568 92.3636 692.118 91.8636C692.668 91.347 692.943 90.6636 692.943 89.8136V84.3886C692.943 83.9886 692.868 83.622 692.718 83.2886C692.568 82.9553 692.368 82.6636 692.118 82.4136C691.868 82.1636 691.568 81.972 691.218 81.8386C690.868 81.7053 690.493 81.6386 690.093 81.6386C689.56 81.6386 689.06 81.747 688.593 81.9636C688.127 82.1636 687.718 82.4886 687.368 82.9386C687.018 83.3886 686.743 83.9636 686.543 84.6636C686.343 85.3636 686.243 86.2053 686.243 87.1886C686.243 88.1386 686.335 88.9636 686.518 89.6636C686.702 90.347 686.96 90.9053 687.293 91.3386C687.643 91.772 688.052 92.097 688.518 92.3136C688.985 92.5136 689.502 92.6136 690.068 92.6136ZM697.393 92.6136C697.96 92.6136 698.477 92.5136 698.943 92.3136C699.41 92.097 699.81 91.772 700.143 91.3386C700.477 90.9053 700.735 90.347 700.918 89.6636C701.118 88.9636 701.218 88.1386 701.218 87.1886C701.218 86.2053 701.118 85.3636 700.918 84.6636C700.718 83.9636 700.443 83.3886 700.093 82.9386C699.743 82.4886 699.335 82.1636 698.868 81.9636C698.402 81.747 697.902 81.6386 697.368 81.6386C696.968 81.6386 696.593 81.7053 696.243 81.8386C695.893 81.972 695.593 82.1636 695.343 82.4136C695.093 82.6636 694.893 82.9553 694.743 83.2886C694.593 83.622 694.518 83.9886 694.518 84.3886V89.8136C694.518 90.6636 694.793 91.347 695.343 91.8636C695.893 92.3636 696.577 92.6136 697.393 92.6136ZM708.463 82.0136H703.688V80.6886H714.813V82.0136H710.038V93.5886H708.463V82.0136ZM716.397 80.6886H717.972V85.8636H722.597C723.847 85.8636 724.839 86.197 725.572 86.8636C726.306 87.5303 726.672 88.472 726.672 89.6886C726.672 90.9053 726.306 91.8636 725.572 92.5636C724.839 93.247 723.847 93.5886 722.597 93.5886H716.397V80.6886ZM722.222 92.2636C723.122 92.2636 723.822 92.047 724.322 91.6136C724.839 91.1803 725.097 90.5386 725.097 89.6886C725.097 88.8386 724.839 88.2136 724.322 87.8136C723.822 87.397 723.122 87.1886 722.222 87.1886H717.972V92.2636H722.222Z" fill="black"/>
</svg>
