<svg width="423" height="127" viewBox="0 0 423 127" fill="none" xmlns="http://www.w3.org/2000/svg">
<rect x="2.36194" y="1.82593" width="419.027" height="122.873" rx="28.5" stroke="black" stroke-width="3"/>
<path d="M91.5678 58.9984H93.1428V70.5734H99.0928V58.9984H100.668V70.5734H106.618V58.9984H108.193V71.8984H91.5678V58.9984ZM111.148 58.9984H112.723V70.0484L119.848 58.9984H121.798V71.8984H120.223V60.8484L113.098 71.8984H111.148V58.9984ZM124.771 58.9984H126.221V61.4484H126.271C126.638 60.5484 127.23 59.8568 128.046 59.3734C128.88 58.8734 129.821 58.6234 130.871 58.6234C131.855 58.6234 132.705 58.8068 133.421 59.1734C134.155 59.5401 134.763 60.0401 135.246 60.6734C135.73 61.2901 136.088 62.0151 136.321 62.8484C136.555 63.6651 136.671 64.5318 136.671 65.4484C136.671 66.3818 136.555 67.2568 136.321 68.0734C136.088 68.8901 135.73 69.6151 135.246 70.2484C134.763 70.8651 134.155 71.3568 133.421 71.7234C132.705 72.0734 131.855 72.2484 130.871 72.2484C130.388 72.2484 129.913 72.1901 129.446 72.0734C128.996 71.9568 128.571 71.7818 128.171 71.5484C127.771 71.3151 127.413 71.0234 127.096 70.6734C126.796 70.3234 126.563 69.9151 126.396 69.4484H126.346V76.6484H124.771V58.9984ZM130.871 70.9484C131.621 70.9484 132.263 70.7901 132.796 70.4734C133.33 70.1401 133.763 69.7151 134.096 69.1984C134.446 68.6818 134.696 68.0984 134.846 67.4484C135.013 66.7818 135.096 66.1151 135.096 65.4484C135.096 64.7818 135.013 64.1234 134.846 63.4734C134.696 62.8068 134.446 62.2151 134.096 61.6984C133.763 61.1818 133.33 60.7651 132.796 60.4484C132.263 60.1151 131.621 59.9484 130.871 59.9484C129.988 59.9484 129.255 60.0984 128.671 60.3984C128.105 60.6984 127.646 61.0984 127.296 61.5984C126.946 62.0984 126.696 62.6818 126.546 63.3484C126.413 64.0151 126.346 64.7151 126.346 65.4484C126.346 66.1151 126.421 66.7818 126.571 67.4484C126.738 68.0984 126.996 68.6818 127.346 69.1984C127.713 69.7151 128.18 70.1401 128.746 70.4734C129.33 70.7901 130.038 70.9484 130.871 70.9484ZM144.577 72.2484C143.594 72.2484 142.719 72.0734 141.952 71.7234C141.202 71.3568 140.569 70.8651 140.052 70.2484C139.535 69.6318 139.144 68.9151 138.877 68.0984C138.61 67.2651 138.477 66.3818 138.477 65.4484C138.477 64.5318 138.61 63.6568 138.877 62.8234C139.144 61.9901 139.535 61.2651 140.052 60.6484C140.569 60.0318 141.202 59.5401 141.952 59.1734C142.719 58.8068 143.594 58.6234 144.577 58.6234C145.56 58.6234 146.427 58.8068 147.177 59.1734C147.944 59.5401 148.585 60.0318 149.102 60.6484C149.619 61.2651 150.01 61.9901 150.277 62.8234C150.544 63.6568 150.677 64.5318 150.677 65.4484C150.677 66.3818 150.544 67.2651 150.277 68.0984C150.01 68.9151 149.619 69.6318 149.102 70.2484C148.585 70.8651 147.944 71.3568 147.177 71.7234C146.427 72.0734 145.56 72.2484 144.577 72.2484ZM144.577 70.9484C145.327 70.9484 145.985 70.7901 146.552 70.4734C147.119 70.1568 147.585 69.7401 147.952 69.2234C148.335 68.7068 148.619 68.1234 148.802 67.4734C149.002 66.8068 149.102 66.1318 149.102 65.4484C149.102 64.7651 149.002 64.0984 148.802 63.4484C148.619 62.7818 148.335 62.1901 147.952 61.6734C147.585 61.1568 147.119 60.7401 146.552 60.4234C145.985 60.1068 145.327 59.9484 144.577 59.9484C143.827 59.9484 143.169 60.1068 142.602 60.4234C142.035 60.7401 141.56 61.1568 141.177 61.6734C140.81 62.1901 140.527 62.7818 140.327 63.4484C140.144 64.0984 140.052 64.7651 140.052 65.4484C140.052 66.1318 140.144 66.8068 140.327 67.4734C140.527 68.1234 140.81 68.7068 141.177 69.2234C141.56 69.7401 142.035 70.1568 142.602 70.4734C143.169 70.7901 143.827 70.9484 144.577 70.9484ZM153.019 58.9984H154.594V65.6234L161.744 58.9984H163.844L158.369 64.0484L164.169 71.8984H162.194L157.219 65.1234L154.594 67.5484V71.8984H153.019V58.9984ZM165.445 58.9984H167.02V70.0484L174.145 58.9984H176.095V71.8984H174.52V60.8484L167.395 71.8984H165.445V58.9984ZM179.043 58.9984H180.618V70.0484L187.743 58.9984H189.693V71.8984H188.118V60.8484L180.993 71.8984H179.043V58.9984ZM184.318 57.0984C183.268 57.0984 182.452 56.8234 181.868 56.2734C181.285 55.7068 180.927 54.8984 180.793 53.8484H181.768C181.852 54.4818 182.11 54.9818 182.543 55.3484C182.993 55.7151 183.593 55.8984 184.343 55.8984C185.06 55.8984 185.643 55.7234 186.093 55.3734C186.56 55.0068 186.86 54.4984 186.993 53.8484H187.968C187.785 54.8984 187.393 55.7068 186.793 56.2734C186.193 56.8234 185.368 57.0984 184.318 57.0984ZM203.25 72.2484C202.65 72.2484 202.083 72.1734 201.55 72.0234C201.033 71.8901 200.575 71.6734 200.175 71.3734C199.792 71.0568 199.483 70.6651 199.25 70.1984C199.033 69.7151 198.925 69.1484 198.925 68.4984C198.925 67.5984 199.125 66.8984 199.525 66.3984C199.925 65.8818 200.45 65.4901 201.1 65.2234C201.767 64.9568 202.508 64.7734 203.325 64.6734C204.158 64.5568 205 64.4484 205.85 64.3484C206.167 64.3151 206.45 64.2734 206.7 64.2234C206.967 64.1734 207.183 64.0901 207.35 63.9734C207.517 63.8401 207.642 63.6651 207.725 63.4484C207.825 63.2318 207.875 62.9484 207.875 62.5984C207.875 62.0651 207.783 61.6318 207.6 61.2984C207.433 60.9484 207.192 60.6734 206.875 60.4734C206.575 60.2734 206.217 60.1401 205.8 60.0734C205.4 59.9901 204.967 59.9484 204.5 59.9484C203.5 59.9484 202.683 60.1901 202.05 60.6734C201.417 61.1401 201.083 61.8984 201.05 62.9484H199.475C199.575 61.4318 200.092 60.3318 201.025 59.6484C201.975 58.9651 203.2 58.6234 204.7 58.6234C205.267 58.6234 205.833 58.6818 206.4 58.7984C206.967 58.8984 207.475 59.0984 207.925 59.3984C208.375 59.6984 208.742 60.1234 209.025 60.6734C209.308 61.2068 209.45 61.9068 209.45 62.7734V69.6234C209.45 70.2568 209.758 70.5734 210.375 70.5734C210.575 70.5734 210.742 70.5401 210.875 70.4734V71.7984C210.692 71.8318 210.525 71.8568 210.375 71.8734C210.242 71.8901 210.067 71.8984 209.85 71.8984C209.45 71.8984 209.125 71.8484 208.875 71.7484C208.642 71.6318 208.458 71.4734 208.325 71.2734C208.192 71.0734 208.1 70.8401 208.05 70.5734C208.017 70.2901 208 69.9818 208 69.6484H207.95C207.667 70.0651 207.375 70.4401 207.075 70.7734C206.792 71.0901 206.467 71.3568 206.1 71.5734C205.75 71.7901 205.342 71.9568 204.875 72.0734C204.408 72.1901 203.867 72.2484 203.25 72.2484ZM203.375 70.9484C203.975 70.9484 204.55 70.8568 205.1 70.6734C205.65 70.4901 206.125 70.2234 206.525 69.8734C206.942 69.5234 207.267 69.0984 207.5 68.5984C207.75 68.0984 207.875 67.5318 207.875 66.8984V64.8484H207.825C207.725 65.0318 207.533 65.1651 207.25 65.2484C206.967 65.3318 206.717 65.3901 206.5 65.4234C205.833 65.5401 205.142 65.6484 204.425 65.7484C203.725 65.8318 203.083 65.9651 202.5 66.1484C201.917 66.3318 201.433 66.5984 201.05 66.9484C200.683 67.2984 200.5 67.7818 200.5 68.3984C200.5 68.7984 200.575 69.1568 200.725 69.4734C200.892 69.7734 201.108 70.0401 201.375 70.2734C201.642 70.4901 201.942 70.6568 202.275 70.7734C202.625 70.8901 202.992 70.9484 203.375 70.9484ZM218.039 72.2484C217.056 72.2484 216.181 72.0734 215.414 71.7234C214.664 71.3568 214.031 70.8651 213.514 70.2484C212.997 69.6318 212.606 68.9151 212.339 68.0984C212.072 67.2651 211.939 66.3818 211.939 65.4484C211.939 64.5318 212.072 63.6568 212.339 62.8234C212.606 61.9901 212.997 61.2651 213.514 60.6484C214.031 60.0318 214.664 59.5401 215.414 59.1734C216.181 58.8068 217.056 58.6234 218.039 58.6234C219.422 58.6234 220.589 58.9901 221.539 59.7234C222.506 60.4568 223.081 61.5651 223.264 63.0484H221.689C221.472 62.0818 221.072 61.3234 220.489 60.7734C219.906 60.2234 219.089 59.9484 218.039 59.9484C217.289 59.9484 216.631 60.1068 216.064 60.4234C215.497 60.7401 215.022 61.1568 214.639 61.6734C214.272 62.1901 213.989 62.7818 213.789 63.4484C213.606 64.0984 213.514 64.7651 213.514 65.4484C213.514 66.1318 213.606 66.8068 213.789 67.4734C213.989 68.1234 214.272 68.7068 214.639 69.2234C215.022 69.7401 215.497 70.1568 216.064 70.4734C216.631 70.7901 217.289 70.9484 218.039 70.9484C218.522 70.9484 218.981 70.8568 219.414 70.6734C219.847 70.4901 220.231 70.2401 220.564 69.9234C220.897 69.5901 221.172 69.1984 221.389 68.7484C221.606 68.2984 221.739 67.8068 221.789 67.2734H223.364C223.147 68.8401 222.572 70.0651 221.639 70.9484C220.706 71.8151 219.506 72.2484 218.039 72.2484ZM231.003 72.2484C230.019 72.2484 229.144 72.0734 228.378 71.7234C227.628 71.3568 226.994 70.8651 226.478 70.2484C225.961 69.6318 225.569 68.9151 225.303 68.0984C225.036 67.2651 224.903 66.3818 224.903 65.4484C224.903 64.5318 225.036 63.6568 225.303 62.8234C225.569 61.9901 225.961 61.2651 226.478 60.6484C226.994 60.0318 227.628 59.5401 228.378 59.1734C229.144 58.8068 230.019 58.6234 231.003 58.6234C232.386 58.6234 233.553 58.9901 234.503 59.7234C235.469 60.4568 236.044 61.5651 236.228 63.0484H234.653C234.436 62.0818 234.036 61.3234 233.453 60.7734C232.869 60.2234 232.053 59.9484 231.003 59.9484C230.253 59.9484 229.594 60.1068 229.028 60.4234C228.461 60.7401 227.986 61.1568 227.603 61.6734C227.236 62.1901 226.953 62.7818 226.753 63.4484C226.569 64.0984 226.478 64.7651 226.478 65.4484C226.478 66.1318 226.569 66.8068 226.753 67.4734C226.953 68.1234 227.236 68.7068 227.603 69.2234C227.986 69.7401 228.461 70.1568 229.028 70.4734C229.594 70.7901 230.253 70.9484 231.003 70.9484C231.486 70.9484 231.944 70.8568 232.378 70.6734C232.811 70.4901 233.194 70.2401 233.528 69.9234C233.861 69.5901 234.136 69.1984 234.353 68.7484C234.569 68.2984 234.703 67.8068 234.753 67.2734H236.328C236.111 68.8401 235.536 70.0651 234.603 70.9484C233.669 71.8151 232.469 72.2484 231.003 72.2484ZM243.967 72.2484C242.983 72.2484 242.108 72.0734 241.342 71.7234C240.592 71.3568 239.958 70.8651 239.442 70.2484C238.925 69.6318 238.533 68.9151 238.267 68.0984C238 67.2651 237.867 66.3818 237.867 65.4484C237.867 64.5318 238 63.6568 238.267 62.8234C238.533 61.9901 238.925 61.2651 239.442 60.6484C239.958 60.0318 240.592 59.5401 241.342 59.1734C242.108 58.8068 242.983 58.6234 243.967 58.6234C244.95 58.6234 245.817 58.8068 246.567 59.1734C247.333 59.5401 247.975 60.0318 248.492 60.6484C249.008 61.2651 249.4 61.9901 249.667 62.8234C249.933 63.6568 250.067 64.5318 250.067 65.4484C250.067 66.3818 249.933 67.2651 249.667 68.0984C249.4 68.9151 249.008 69.6318 248.492 70.2484C247.975 70.8651 247.333 71.3568 246.567 71.7234C245.817 72.0734 244.95 72.2484 243.967 72.2484ZM243.967 70.9484C244.717 70.9484 245.375 70.7901 245.942 70.4734C246.508 70.1568 246.975 69.7401 247.342 69.2234C247.725 68.7068 248.008 68.1234 248.192 67.4734C248.392 66.8068 248.492 66.1318 248.492 65.4484C248.492 64.7651 248.392 64.0984 248.192 63.4484C248.008 62.7818 247.725 62.1901 247.342 61.6734C246.975 61.1568 246.508 60.7401 245.942 60.4234C245.375 60.1068 244.717 59.9484 243.967 59.9484C243.217 59.9484 242.558 60.1068 241.992 60.4234C241.425 60.7401 240.95 61.1568 240.567 61.6734C240.2 62.1901 239.917 62.7818 239.717 63.4484C239.533 64.0984 239.442 64.7651 239.442 65.4484C239.442 66.1318 239.533 66.8068 239.717 67.4734C239.917 68.1234 240.2 68.7068 240.567 69.2234C240.95 69.7401 241.425 70.1568 241.992 70.4734C242.558 70.7901 243.217 70.9484 243.967 70.9484ZM252.408 58.9984H253.858V61.4484H253.908C254.275 60.5484 254.867 59.8568 255.683 59.3734C256.517 58.8734 257.458 58.6234 258.508 58.6234C259.492 58.6234 260.342 58.8068 261.058 59.1734C261.792 59.5401 262.4 60.0401 262.883 60.6734C263.367 61.2901 263.725 62.0151 263.958 62.8484C264.192 63.6651 264.308 64.5318 264.308 65.4484C264.308 66.3818 264.192 67.2568 263.958 68.0734C263.725 68.8901 263.367 69.6151 262.883 70.2484C262.4 70.8651 261.792 71.3568 261.058 71.7234C260.342 72.0734 259.492 72.2484 258.508 72.2484C258.025 72.2484 257.55 72.1901 257.083 72.0734C256.633 71.9568 256.208 71.7818 255.808 71.5484C255.408 71.3151 255.05 71.0234 254.733 70.6734C254.433 70.3234 254.2 69.9151 254.033 69.4484H253.983V76.6484H252.408V58.9984ZM258.508 70.9484C259.258 70.9484 259.9 70.7901 260.433 70.4734C260.967 70.1401 261.4 69.7151 261.733 69.1984C262.083 68.6818 262.333 68.0984 262.483 67.4484C262.65 66.7818 262.733 66.1151 262.733 65.4484C262.733 64.7818 262.65 64.1234 262.483 63.4734C262.333 62.8068 262.083 62.2151 261.733 61.6984C261.4 61.1818 260.967 60.7651 260.433 60.4484C259.9 60.1151 259.258 59.9484 258.508 59.9484C257.625 59.9484 256.892 60.0984 256.308 60.3984C255.742 60.6984 255.283 61.0984 254.933 61.5984C254.583 62.0984 254.333 62.6818 254.183 63.3484C254.05 64.0151 253.983 64.7151 253.983 65.4484C253.983 66.1151 254.058 66.7818 254.208 67.4484C254.375 68.0984 254.633 68.6818 254.983 69.1984C255.35 69.7151 255.817 70.1401 256.383 70.4734C256.967 70.7901 257.675 70.9484 258.508 70.9484ZM270.014 60.3234H265.239V58.9984H276.364V60.3234H271.589V71.8984H270.014V60.3234ZM277.823 58.9984H279.398V70.0484L286.523 58.9984H288.473V71.8984H286.898V60.8484L279.773 71.8984H277.823V58.9984ZM291.421 58.9984H293.521L298.321 70.1234L303.071 58.9984H305.171V71.8984H303.596V61.2734H303.521L298.996 71.8984H297.596L293.071 61.2734H292.996V71.8984H291.421V58.9984ZM313.321 72.2484C312.287 72.2484 311.404 72.0734 310.671 71.7234C309.937 71.3568 309.337 70.8651 308.871 70.2484C308.404 69.6151 308.054 68.8901 307.821 68.0734C307.604 67.2568 307.496 66.3818 307.496 65.4484C307.496 64.5984 307.604 63.7651 307.821 62.9484C308.054 62.1318 308.404 61.4068 308.871 60.7734C309.337 60.1234 309.937 59.6068 310.671 59.2234C311.404 58.8234 312.287 58.6234 313.321 58.6234C314.354 58.6234 315.237 58.8318 315.971 59.2484C316.704 59.6651 317.296 60.2151 317.746 60.8984C318.212 61.5651 318.546 62.3401 318.746 63.2234C318.946 64.0901 319.029 64.9734 318.996 65.8734H309.071C309.071 66.4568 309.146 67.0484 309.296 67.6484C309.462 68.2484 309.721 68.7901 310.071 69.2734C310.421 69.7568 310.862 70.1568 311.396 70.4734C311.929 70.7901 312.571 70.9484 313.321 70.9484C314.471 70.9484 315.371 70.6484 316.021 70.0484C316.671 69.4484 317.121 68.6484 317.371 67.6484H318.946C318.612 69.1151 317.996 70.2484 317.096 71.0484C316.212 71.8484 314.954 72.2484 313.321 72.2484ZM317.421 64.5484C317.404 63.9484 317.296 63.3734 317.096 62.8234C316.912 62.2734 316.646 61.7901 316.296 61.3734C315.946 60.9401 315.521 60.5984 315.021 60.3484C314.521 60.0818 313.954 59.9484 313.321 59.9484C312.671 59.9484 312.096 60.0818 311.596 60.3484C311.096 60.5984 310.671 60.9401 310.321 61.3734C309.971 61.7901 309.687 62.2818 309.471 62.8484C309.271 63.3984 309.137 63.9651 309.071 64.5484H317.421ZM321.084 58.9984H322.659V64.4734H329.984V58.9984H331.559V71.8984H329.984V65.7984H322.659V71.8984H321.084V58.9984ZM337.787 60.3234H333.012V58.9984H344.137V60.3234H339.362V71.8984H337.787V60.3234Z" fill="black"/>
</svg>
