<svg width="423" height="127" viewBox="0 0 423 127" fill="none" xmlns="http://www.w3.org/2000/svg">
<rect x="2.31616" y="2.11499" width="419.027" height="122.873" rx="28.5" stroke="black" stroke-width="3"/>
<path d="M105.149 46.5875H111.049C112.366 46.5875 113.382 46.8459 114.099 47.3625C114.816 47.8792 115.174 48.6375 115.174 49.6375C115.174 50.4042 114.974 51.0459 114.574 51.5625C114.191 52.0792 113.649 52.4375 112.949 52.6375V52.6875C113.799 52.8375 114.466 53.1709 114.949 53.6875C115.432 54.2042 115.674 54.9375 115.674 55.8875C115.674 57.0542 115.282 57.9459 114.499 58.5625C113.716 59.1792 112.566 59.4875 111.049 59.4875H105.149V46.5875ZM110.874 58.1625C111.974 58.1625 112.782 57.9625 113.299 57.5625C113.832 57.1459 114.099 56.5292 114.099 55.7125C114.099 54.9625 113.832 54.3875 113.299 53.9875C112.782 53.5875 111.974 53.3875 110.874 53.3875H106.724V58.1625H110.874ZM110.874 52.1625C111.774 52.1625 112.449 51.9709 112.899 51.5875C113.366 51.2042 113.599 50.6875 113.599 50.0375C113.599 48.6209 112.691 47.9125 110.874 47.9125H106.724V52.1625H110.874ZM118.064 46.5875H119.639V51.7625H123.814C125.064 51.7625 126.056 52.0959 126.789 52.7625C127.522 53.4292 127.889 54.3709 127.889 55.5875C127.889 56.8042 127.522 57.7625 126.789 58.4625C126.056 59.1459 125.064 59.4875 123.814 59.4875H118.064V46.5875ZM123.439 58.1625C124.339 58.1625 125.039 57.9459 125.539 57.5125C126.056 57.0792 126.314 56.4375 126.314 55.5875C126.314 54.7375 126.056 54.1125 125.539 53.7125C125.039 53.2959 124.339 53.0875 123.439 53.0875H119.639V58.1625H123.439ZM130.314 46.5875H131.889V59.4875H130.314V46.5875ZM134.837 46.5875H145.137V59.4875H143.562V47.9125H136.412V59.4875H134.837V46.5875ZM153.568 59.8375C152.585 59.8375 151.71 59.6625 150.943 59.3125C150.193 58.9459 149.56 58.4542 149.043 57.8375C148.527 57.2209 148.135 56.5042 147.868 55.6875C147.602 54.8542 147.468 53.9709 147.468 53.0375C147.468 52.1209 147.602 51.2459 147.868 50.4125C148.135 49.5792 148.527 48.8542 149.043 48.2375C149.56 47.6209 150.193 47.1292 150.943 46.7625C151.71 46.3959 152.585 46.2125 153.568 46.2125C154.552 46.2125 155.418 46.3959 156.168 46.7625C156.935 47.1292 157.577 47.6209 158.093 48.2375C158.61 48.8542 159.002 49.5792 159.268 50.4125C159.535 51.2459 159.668 52.1209 159.668 53.0375C159.668 53.9709 159.535 54.8542 159.268 55.6875C159.002 56.5042 158.61 57.2209 158.093 57.8375C157.577 58.4542 156.935 58.9459 156.168 59.3125C155.418 59.6625 154.552 59.8375 153.568 59.8375ZM153.568 58.5375C154.318 58.5375 154.977 58.3792 155.543 58.0625C156.11 57.7459 156.577 57.3292 156.943 56.8125C157.327 56.2959 157.61 55.7125 157.793 55.0625C157.993 54.3959 158.093 53.7209 158.093 53.0375C158.093 52.3542 157.993 51.6875 157.793 51.0375C157.61 50.3709 157.327 49.7792 156.943 49.2625C156.577 48.7459 156.11 48.3292 155.543 48.0125C154.977 47.6959 154.318 47.5375 153.568 47.5375C152.818 47.5375 152.16 47.6959 151.593 48.0125C151.027 48.3292 150.552 48.7459 150.168 49.2625C149.802 49.7792 149.518 50.3709 149.318 51.0375C149.135 51.6875 149.043 52.3542 149.043 53.0375C149.043 53.7209 149.135 54.3959 149.318 55.0625C149.518 55.7125 149.802 56.2959 150.168 56.8125C150.552 57.3292 151.027 57.7459 151.593 58.0625C152.16 58.3792 152.818 58.5375 153.568 58.5375ZM161.86 59.6125C161.777 59.6125 161.677 59.6042 161.56 59.5875C161.443 59.5709 161.318 59.5542 161.185 59.5375C161.068 59.5209 160.952 59.5042 160.835 59.4875C160.735 59.4542 160.66 59.4292 160.61 59.4125V58.0375C160.743 58.0875 160.943 58.1292 161.21 58.1625C161.477 58.1959 161.702 58.2125 161.885 58.2125C162.052 58.2125 162.235 58.1875 162.435 58.1375C162.635 58.0875 162.835 57.9542 163.035 57.7375C163.235 57.5042 163.427 57.1459 163.61 56.6625C163.793 56.1792 163.952 55.5125 164.085 54.6625C164.218 53.7959 164.327 52.7125 164.41 51.4125C164.493 50.0959 164.535 48.4875 164.535 46.5875H173.16V59.4875H171.585V47.9125H166.06C166.06 49.7792 166.002 51.3625 165.885 52.6625C165.785 53.9625 165.635 55.0459 165.435 55.9125C165.235 56.7792 165.002 57.4625 164.735 57.9625C164.468 58.4625 164.177 58.8375 163.86 59.0875C163.56 59.3209 163.235 59.4625 162.885 59.5125C162.552 59.5792 162.21 59.6125 161.86 59.6125ZM176.121 46.5875H177.696V52.0625H185.021V46.5875H186.596V59.4875H185.021V53.3875H177.696V59.4875H176.121V46.5875ZM189.548 46.5875H191.123V57.6375L198.248 46.5875H200.198V59.4875H198.623V48.4375L191.498 59.4875H189.548V46.5875ZM203.147 46.5875H205.247L210.047 57.7125L214.797 46.5875H216.897V59.4875H215.322V48.8625H215.247L210.722 59.4875H209.322L204.797 48.8625H204.722V59.4875H203.147V46.5875ZM226.829 46.5875H228.279V49.0375H228.329C228.696 48.1375 229.288 47.4459 230.104 46.9625C230.938 46.4625 231.879 46.2125 232.929 46.2125C233.913 46.2125 234.763 46.3959 235.479 46.7625C236.213 47.1292 236.821 47.6292 237.304 48.2625C237.788 48.8792 238.146 49.6042 238.379 50.4375C238.613 51.2542 238.729 52.1209 238.729 53.0375C238.729 53.9709 238.613 54.8459 238.379 55.6625C238.146 56.4792 237.788 57.2042 237.304 57.8375C236.821 58.4542 236.213 58.9459 235.479 59.3125C234.763 59.6625 233.913 59.8375 232.929 59.8375C232.446 59.8375 231.971 59.7792 231.504 59.6625C231.054 59.5459 230.629 59.3709 230.229 59.1375C229.829 58.9042 229.471 58.6125 229.154 58.2625C228.854 57.9125 228.621 57.5042 228.454 57.0375H228.404V64.2375H226.829V46.5875ZM232.929 58.5375C233.679 58.5375 234.321 58.3792 234.854 58.0625C235.388 57.7292 235.821 57.3042 236.154 56.7875C236.504 56.2709 236.754 55.6875 236.904 55.0375C237.071 54.3709 237.154 53.7042 237.154 53.0375C237.154 52.3709 237.071 51.7125 236.904 51.0625C236.754 50.3959 236.504 49.8042 236.154 49.2875C235.821 48.7709 235.388 48.3542 234.854 48.0375C234.321 47.7042 233.679 47.5375 232.929 47.5375C232.046 47.5375 231.313 47.6875 230.729 47.9875C230.163 48.2875 229.704 48.6875 229.354 49.1875C229.004 49.6875 228.754 50.2709 228.604 50.9375C228.471 51.6042 228.404 52.3042 228.404 53.0375C228.404 53.7042 228.479 54.3709 228.629 55.0375C228.796 55.6875 229.054 56.2709 229.404 56.7875C229.771 57.3042 230.238 57.7292 230.804 58.0625C231.388 58.3792 232.096 58.5375 232.929 58.5375ZM244.81 59.8375C244.21 59.8375 243.643 59.7625 243.11 59.6125C242.593 59.4792 242.135 59.2625 241.735 58.9625C241.351 58.6459 241.043 58.2542 240.81 57.7875C240.593 57.3042 240.485 56.7375 240.485 56.0875C240.485 55.1875 240.685 54.4875 241.085 53.9875C241.485 53.4709 242.01 53.0792 242.66 52.8125C243.326 52.5459 244.068 52.3625 244.885 52.2625C245.718 52.1459 246.56 52.0375 247.41 51.9375C247.726 51.9042 248.01 51.8625 248.26 51.8125C248.526 51.7625 248.743 51.6792 248.91 51.5625C249.076 51.4292 249.201 51.2542 249.285 51.0375C249.385 50.8209 249.435 50.5375 249.435 50.1875C249.435 49.6542 249.343 49.2209 249.16 48.8875C248.993 48.5375 248.751 48.2625 248.435 48.0625C248.135 47.8625 247.776 47.7292 247.36 47.6625C246.96 47.5792 246.526 47.5375 246.06 47.5375C245.06 47.5375 244.243 47.7792 243.61 48.2625C242.976 48.7292 242.643 49.4875 242.61 50.5375H241.035C241.135 49.0209 241.651 47.9209 242.585 47.2375C243.535 46.5542 244.76 46.2125 246.26 46.2125C246.826 46.2125 247.393 46.2709 247.96 46.3875C248.526 46.4875 249.035 46.6875 249.485 46.9875C249.935 47.2875 250.301 47.7125 250.585 48.2625C250.868 48.7959 251.01 49.4959 251.01 50.3625V57.2125C251.01 57.8459 251.318 58.1625 251.935 58.1625C252.135 58.1625 252.301 58.1292 252.435 58.0625V59.3875C252.251 59.4209 252.085 59.4459 251.935 59.4625C251.801 59.4792 251.626 59.4875 251.41 59.4875C251.01 59.4875 250.685 59.4375 250.435 59.3375C250.201 59.2209 250.018 59.0625 249.885 58.8625C249.751 58.6625 249.66 58.4292 249.61 58.1625C249.576 57.8792 249.56 57.5709 249.56 57.2375H249.51C249.226 57.6542 248.935 58.0292 248.635 58.3625C248.351 58.6792 248.026 58.9459 247.66 59.1625C247.31 59.3792 246.901 59.5459 246.435 59.6625C245.968 59.7792 245.426 59.8375 244.81 59.8375ZM244.935 58.5375C245.535 58.5375 246.11 58.4459 246.66 58.2625C247.21 58.0792 247.685 57.8125 248.085 57.4625C248.501 57.1125 248.826 56.6875 249.06 56.1875C249.31 55.6875 249.435 55.1209 249.435 54.4875V52.4375H249.385C249.285 52.6209 249.093 52.7542 248.81 52.8375C248.526 52.9209 248.276 52.9792 248.06 53.0125C247.393 53.1292 246.701 53.2375 245.985 53.3375C245.285 53.4209 244.643 53.5542 244.06 53.7375C243.476 53.9209 242.993 54.1875 242.61 54.5375C242.243 54.8875 242.06 55.3709 242.06 55.9875C242.06 56.3875 242.135 56.7459 242.285 57.0625C242.451 57.3625 242.668 57.6292 242.935 57.8625C243.201 58.0792 243.501 58.2459 243.835 58.3625C244.185 58.4792 244.551 58.5375 244.935 58.5375ZM259.724 59.8375C258.54 59.8375 257.565 59.6209 256.799 59.1875C256.032 58.7542 255.424 58.1792 254.974 57.4625C254.524 56.7459 254.207 55.9209 254.024 54.9875C253.84 54.0542 253.749 53.0875 253.749 52.0875C253.749 51.4709 253.774 50.8292 253.824 50.1625C253.874 49.4792 253.957 48.8125 254.074 48.1625C254.207 47.4959 254.374 46.8625 254.574 46.2625C254.774 45.6625 255.032 45.1209 255.349 44.6375C255.932 43.7375 256.632 43.0959 257.449 42.7125C258.265 42.3292 259.29 42.0959 260.524 42.0125L261.724 41.9375C262.39 41.9042 262.84 41.8375 263.074 41.7375C263.307 41.6375 263.474 41.4792 263.574 41.2625H265.324C265.19 42.0292 264.849 42.5542 264.299 42.8375C263.765 43.1042 262.949 43.2709 261.849 43.3375L259.949 43.4625C258.482 43.5625 257.365 44.0875 256.599 45.0375C255.832 45.9875 255.307 47.4625 255.024 49.4625H255.099C255.532 48.5959 256.174 47.9042 257.024 47.3875C257.874 46.8542 258.824 46.5875 259.874 46.5875C260.74 46.5875 261.524 46.7375 262.224 47.0375C262.94 47.3375 263.557 47.7709 264.074 48.3375C264.59 48.9042 264.99 49.5959 265.274 50.4125C265.557 51.2292 265.699 52.1459 265.699 53.1625C265.699 54.1625 265.557 55.0792 265.274 55.9125C264.99 56.7292 264.582 57.4292 264.049 58.0125C263.532 58.5959 262.907 59.0459 262.174 59.3625C261.44 59.6792 260.624 59.8375 259.724 59.8375ZM259.724 58.5375C260.357 58.5375 260.94 58.4125 261.474 58.1625C262.024 57.8959 262.49 57.5292 262.874 57.0625C263.274 56.5792 263.582 56.0125 263.799 55.3625C264.015 54.6959 264.124 53.9625 264.124 53.1625C264.124 52.3792 264.015 51.6625 263.799 51.0125C263.582 50.3625 263.274 49.8125 262.874 49.3625C262.49 48.8959 262.032 48.5375 261.499 48.2875C260.982 48.0209 260.415 47.8875 259.799 47.8875C259.132 47.8875 258.524 48.0125 257.974 48.2625C257.424 48.5125 256.949 48.8709 256.549 49.3375C256.165 49.7875 255.865 50.3375 255.649 50.9875C255.432 51.6375 255.324 52.3625 255.324 53.1625C255.324 53.9625 255.432 54.6959 255.649 55.3625C255.865 56.0125 256.165 56.5792 256.549 57.0625C256.949 57.5292 257.415 57.8959 257.949 58.1625C258.499 58.4125 259.09 58.5375 259.724 58.5375ZM273.49 59.8375C272.507 59.8375 271.632 59.6625 270.865 59.3125C270.115 58.9459 269.482 58.4542 268.965 57.8375C268.449 57.2209 268.057 56.5042 267.79 55.6875C267.524 54.8542 267.39 53.9709 267.39 53.0375C267.39 52.1209 267.524 51.2459 267.79 50.4125C268.057 49.5792 268.449 48.8542 268.965 48.2375C269.482 47.6209 270.115 47.1292 270.865 46.7625C271.632 46.3959 272.507 46.2125 273.49 46.2125C274.474 46.2125 275.34 46.3959 276.09 46.7625C276.857 47.1292 277.499 47.6209 278.015 48.2375C278.532 48.8542 278.924 49.5792 279.19 50.4125C279.457 51.2459 279.59 52.1209 279.59 53.0375C279.59 53.9709 279.457 54.8542 279.19 55.6875C278.924 56.5042 278.532 57.2209 278.015 57.8375C277.499 58.4542 276.857 58.9459 276.09 59.3125C275.34 59.6625 274.474 59.8375 273.49 59.8375ZM273.49 58.5375C274.24 58.5375 274.899 58.3792 275.465 58.0625C276.032 57.7459 276.499 57.3292 276.865 56.8125C277.249 56.2959 277.532 55.7125 277.715 55.0625C277.915 54.3959 278.015 53.7209 278.015 53.0375C278.015 52.3542 277.915 51.6875 277.715 51.0375C277.532 50.3709 277.249 49.7792 276.865 49.2625C276.499 48.7459 276.032 48.3292 275.465 48.0125C274.899 47.6959 274.24 47.5375 273.49 47.5375C272.74 47.5375 272.082 47.6959 271.515 48.0125C270.949 48.3292 270.474 48.7459 270.09 49.2625C269.724 49.7792 269.44 50.3709 269.24 51.0375C269.057 51.6875 268.965 52.3542 268.965 53.0375C268.965 53.7209 269.057 54.3959 269.24 55.0625C269.44 55.7125 269.724 56.2959 270.09 56.8125C270.474 57.3292 270.949 57.7459 271.515 58.0625C272.082 58.3792 272.74 58.5375 273.49 58.5375ZM285.182 47.9125H280.407V46.5875H291.532V47.9125H286.757V59.4875H285.182V47.9125ZM294.041 64.2375C293.724 64.2209 293.474 64.2042 293.291 64.1875C293.124 64.1875 292.974 64.1625 292.841 64.1125V62.7875C293.024 62.8209 293.199 62.8459 293.366 62.8625C293.549 62.8959 293.732 62.9125 293.916 62.9125C294.266 62.9125 294.549 62.8625 294.766 62.7625C294.999 62.6625 295.199 62.5209 295.366 62.3375C295.532 62.1709 295.674 61.9625 295.791 61.7125C295.907 61.4625 296.032 61.1875 296.166 60.8875L296.716 59.4375L291.566 46.5875H293.241L297.491 57.5875L301.466 46.5875H303.041L297.441 61.4375C297.207 61.9875 296.991 62.4375 296.791 62.7875C296.591 63.1542 296.366 63.4375 296.116 63.6375C295.882 63.8542 295.599 64.0042 295.266 64.0875C294.949 64.1875 294.541 64.2375 294.041 64.2375ZM105.024 88.6125C104.941 88.6125 104.841 88.6042 104.724 88.5875C104.607 88.5709 104.482 88.5542 104.349 88.5375C104.232 88.5209 104.116 88.5042 103.999 88.4875C103.899 88.4542 103.824 88.4292 103.774 88.4125V87.0375C103.907 87.0875 104.107 87.1292 104.374 87.1625C104.641 87.1959 104.866 87.2125 105.049 87.2125C105.216 87.2125 105.399 87.1875 105.599 87.1375C105.799 87.0875 105.999 86.9542 106.199 86.7375C106.399 86.5042 106.591 86.1459 106.774 85.6625C106.957 85.1792 107.116 84.5125 107.249 83.6625C107.382 82.7959 107.491 81.7125 107.574 80.4125C107.657 79.0959 107.699 77.4875 107.699 75.5875H116.324V88.4875H114.749V76.9125H109.224C109.224 78.7792 109.166 80.3625 109.049 81.6625C108.949 82.9625 108.799 84.0459 108.599 84.9125C108.399 85.7792 108.166 86.4625 107.899 86.9625C107.632 87.4625 107.341 87.8375 107.024 88.0875C106.724 88.3209 106.399 88.4625 106.049 88.5125C105.716 88.5792 105.374 88.6125 105.024 88.6125ZM129.66 88.8375C128.776 88.8375 127.976 88.6709 127.26 88.3375C126.543 88.0042 125.926 87.5542 125.41 86.9875C124.91 86.4042 124.51 85.7209 124.21 84.9375C123.926 84.1542 123.768 83.3209 123.735 82.4375H120.86V88.4875H119.285V75.5875H120.86V81.1125H123.785C123.868 80.2959 124.06 79.5292 124.36 78.8125C124.676 78.0959 125.085 77.4709 125.585 76.9375C126.085 76.4042 126.676 75.9875 127.36 75.6875C128.043 75.3709 128.81 75.2125 129.66 75.2125C130.576 75.2125 131.401 75.3959 132.135 75.7625C132.868 76.1292 133.485 76.6209 133.985 77.2375C134.501 77.8542 134.893 78.5792 135.16 79.4125C135.443 80.2459 135.585 81.1209 135.585 82.0375C135.585 82.9709 135.443 83.8542 135.16 84.6875C134.893 85.5042 134.501 86.2209 133.985 86.8375C133.485 87.4542 132.868 87.9459 132.135 88.3125C131.401 88.6625 130.576 88.8375 129.66 88.8375ZM129.66 87.5375C130.343 87.5375 130.951 87.3792 131.485 87.0625C132.035 86.7459 132.493 86.3292 132.86 85.8125C133.243 85.2959 133.526 84.7125 133.71 84.0625C133.91 83.3959 134.01 82.7209 134.01 82.0375C134.01 81.3542 133.91 80.6875 133.71 80.0375C133.526 79.3709 133.243 78.7792 132.86 78.2625C132.493 77.7459 132.035 77.3292 131.485 77.0125C130.951 76.6959 130.343 76.5375 129.66 76.5375C128.976 76.5375 128.36 76.6959 127.81 77.0125C127.276 77.3292 126.818 77.7459 126.435 78.2625C126.068 78.7792 125.785 79.3709 125.585 80.0375C125.401 80.6875 125.31 81.3542 125.31 82.0375C125.31 82.7209 125.401 83.3959 125.585 84.0625C125.785 84.7125 126.068 85.2959 126.435 85.8125C126.818 86.3292 127.276 86.7459 127.81 87.0625C128.36 87.3792 128.976 87.5375 129.66 87.5375ZM143.513 88.8375C142.329 88.8375 141.354 88.6209 140.588 88.1875C139.821 87.7542 139.213 87.1792 138.763 86.4625C138.313 85.7459 137.996 84.9209 137.813 83.9875C137.629 83.0542 137.538 82.0875 137.538 81.0875C137.538 80.4709 137.563 79.8292 137.613 79.1625C137.663 78.4792 137.746 77.8125 137.863 77.1625C137.996 76.4959 138.163 75.8625 138.363 75.2625C138.563 74.6625 138.821 74.1209 139.138 73.6375C139.721 72.7375 140.421 72.0959 141.238 71.7125C142.054 71.3292 143.079 71.0959 144.313 71.0125L145.513 70.9375C146.179 70.9042 146.629 70.8375 146.863 70.7375C147.096 70.6375 147.263 70.4792 147.363 70.2625H149.113C148.979 71.0292 148.638 71.5542 148.088 71.8375C147.554 72.1042 146.738 72.2709 145.638 72.3375L143.738 72.4625C142.271 72.5625 141.154 73.0875 140.388 74.0375C139.621 74.9875 139.096 76.4625 138.813 78.4625H138.888C139.321 77.5959 139.963 76.9042 140.813 76.3875C141.663 75.8542 142.613 75.5875 143.663 75.5875C144.529 75.5875 145.313 75.7375 146.013 76.0375C146.729 76.3375 147.346 76.7709 147.863 77.3375C148.379 77.9042 148.779 78.5959 149.063 79.4125C149.346 80.2292 149.488 81.1459 149.488 82.1625C149.488 83.1625 149.346 84.0792 149.063 84.9125C148.779 85.7292 148.371 86.4292 147.838 87.0125C147.321 87.5959 146.696 88.0459 145.963 88.3625C145.229 88.6792 144.413 88.8375 143.513 88.8375ZM143.513 87.5375C144.146 87.5375 144.729 87.4125 145.263 87.1625C145.813 86.8959 146.279 86.5292 146.663 86.0625C147.063 85.5792 147.371 85.0125 147.588 84.3625C147.804 83.6959 147.913 82.9625 147.913 82.1625C147.913 81.3792 147.804 80.6625 147.588 80.0125C147.371 79.3625 147.063 78.8125 146.663 78.3625C146.279 77.8959 145.821 77.5375 145.288 77.2875C144.771 77.0209 144.204 76.8875 143.588 76.8875C142.921 76.8875 142.313 77.0125 141.763 77.2625C141.213 77.5125 140.738 77.8709 140.338 78.3375C139.954 78.7875 139.654 79.3375 139.438 79.9875C139.221 80.6375 139.113 81.3625 139.113 82.1625C139.113 82.9625 139.221 83.6959 139.438 84.3625C139.654 85.0125 139.954 85.5792 140.338 86.0625C140.738 86.5292 141.204 86.8959 141.738 87.1625C142.288 87.4125 142.879 87.5375 143.513 87.5375ZM157.279 88.8375C156.296 88.8375 155.421 88.6625 154.654 88.3125C153.904 87.9459 153.271 87.4542 152.754 86.8375C152.238 86.2209 151.846 85.5042 151.579 84.6875C151.313 83.8542 151.179 82.9709 151.179 82.0375C151.179 81.1209 151.313 80.2459 151.579 79.4125C151.846 78.5792 152.238 77.8542 152.754 77.2375C153.271 76.6209 153.904 76.1292 154.654 75.7625C155.421 75.3959 156.296 75.2125 157.279 75.2125C158.263 75.2125 159.129 75.3959 159.879 75.7625C160.646 76.1292 161.288 76.6209 161.804 77.2375C162.321 77.8542 162.713 78.5792 162.979 79.4125C163.246 80.2459 163.379 81.1209 163.379 82.0375C163.379 82.9709 163.246 83.8542 162.979 84.6875C162.713 85.5042 162.321 86.2209 161.804 86.8375C161.288 87.4542 160.646 87.9459 159.879 88.3125C159.129 88.6625 158.263 88.8375 157.279 88.8375ZM157.279 87.5375C158.029 87.5375 158.688 87.3792 159.254 87.0625C159.821 86.7459 160.288 86.3292 160.654 85.8125C161.038 85.2959 161.321 84.7125 161.504 84.0625C161.704 83.3959 161.804 82.7209 161.804 82.0375C161.804 81.3542 161.704 80.6875 161.504 80.0375C161.321 79.3709 161.038 78.7792 160.654 78.2625C160.288 77.7459 159.821 77.3292 159.254 77.0125C158.688 76.6959 158.029 76.5375 157.279 76.5375C156.529 76.5375 155.871 76.6959 155.304 77.0125C154.738 77.3292 154.263 77.7459 153.879 78.2625C153.513 78.7792 153.229 79.3709 153.029 80.0375C152.846 80.6875 152.754 81.3542 152.754 82.0375C152.754 82.7209 152.846 83.3959 153.029 84.0625C153.229 84.7125 153.513 85.2959 153.879 85.8125C154.263 86.3292 154.738 86.7459 155.304 87.0625C155.871 87.3792 156.529 87.5375 157.279 87.5375ZM165.696 75.5875H167.271V86.6375L174.396 75.5875H176.346V88.4875H174.771V77.4375L167.646 88.4875H165.696V75.5875ZM170.971 73.6875C169.921 73.6875 169.104 73.4125 168.521 72.8625C167.938 72.2959 167.579 71.4875 167.446 70.4375H168.421C168.504 71.0709 168.763 71.5709 169.196 71.9375C169.646 72.3042 170.246 72.4875 170.996 72.4875C171.713 72.4875 172.296 72.3125 172.746 71.9625C173.213 71.5959 173.513 71.0875 173.646 70.4375H174.621C174.438 71.4875 174.046 72.2959 173.446 72.8625C172.846 73.4125 172.021 73.6875 170.971 73.6875ZM191.728 88.8375C190.744 88.8375 189.869 88.6625 189.103 88.3125C188.353 87.9459 187.719 87.4542 187.203 86.8375C186.686 86.2209 186.294 85.5042 186.028 84.6875C185.761 83.8542 185.628 82.9709 185.628 82.0375C185.628 81.1209 185.761 80.2459 186.028 79.4125C186.294 78.5792 186.686 77.8542 187.203 77.2375C187.719 76.6209 188.353 76.1292 189.103 75.7625C189.869 75.3959 190.744 75.2125 191.728 75.2125C193.111 75.2125 194.278 75.5792 195.228 76.3125C196.194 77.0459 196.769 78.1542 196.953 79.6375H195.378C195.161 78.6709 194.761 77.9125 194.178 77.3625C193.594 76.8125 192.778 76.5375 191.728 76.5375C190.978 76.5375 190.319 76.6959 189.753 77.0125C189.186 77.3292 188.711 77.7459 188.328 78.2625C187.961 78.7792 187.678 79.3709 187.478 80.0375C187.294 80.6875 187.203 81.3542 187.203 82.0375C187.203 82.7209 187.294 83.3959 187.478 84.0625C187.678 84.7125 187.961 85.2959 188.328 85.8125C188.711 86.3292 189.186 86.7459 189.753 87.0625C190.319 87.3792 190.978 87.5375 191.728 87.5375C192.211 87.5375 192.669 87.4459 193.103 87.2625C193.536 87.0792 193.919 86.8292 194.253 86.5125C194.586 86.1792 194.861 85.7875 195.078 85.3375C195.294 84.8875 195.428 84.3959 195.478 83.8625H197.053C196.836 85.4292 196.261 86.6542 195.328 87.5375C194.394 88.4042 193.194 88.8375 191.728 88.8375ZM199.091 88.6125C199.008 88.6125 198.908 88.6042 198.791 88.5875C198.675 88.5709 198.55 88.5542 198.416 88.5375C198.3 88.5209 198.183 88.5042 198.066 88.4875C197.966 88.4542 197.891 88.4292 197.841 88.4125V87.0375C197.975 87.0875 198.175 87.1292 198.441 87.1625C198.708 87.1959 198.933 87.2125 199.116 87.2125C199.283 87.2125 199.466 87.1875 199.666 87.1375C199.866 87.0875 200.066 86.9542 200.266 86.7375C200.466 86.5042 200.658 86.1459 200.841 85.6625C201.025 85.1792 201.183 84.5125 201.316 83.6625C201.45 82.7959 201.558 81.7125 201.641 80.4125C201.725 79.0959 201.766 77.4875 201.766 75.5875H210.391V88.4875H208.816V76.9125H203.291C203.291 78.7792 203.233 80.3625 203.116 81.6625C203.016 82.9625 202.866 84.0459 202.666 84.9125C202.466 85.7792 202.233 86.4625 201.966 86.9625C201.7 87.4625 201.408 87.8375 201.091 88.0875C200.791 88.3209 200.466 88.4625 200.116 88.5125C199.783 88.5792 199.441 88.6125 199.091 88.6125ZM218.827 88.8375C217.844 88.8375 216.969 88.6625 216.202 88.3125C215.452 87.9459 214.819 87.4542 214.302 86.8375C213.785 86.2209 213.394 85.5042 213.127 84.6875C212.86 83.8542 212.727 82.9709 212.727 82.0375C212.727 81.1209 212.86 80.2459 213.127 79.4125C213.394 78.5792 213.785 77.8542 214.302 77.2375C214.819 76.6209 215.452 76.1292 216.202 75.7625C216.969 75.3959 217.844 75.2125 218.827 75.2125C219.81 75.2125 220.677 75.3959 221.427 75.7625C222.194 76.1292 222.835 76.6209 223.352 77.2375C223.869 77.8542 224.26 78.5792 224.527 79.4125C224.794 80.2459 224.927 81.1209 224.927 82.0375C224.927 82.9709 224.794 83.8542 224.527 84.6875C224.26 85.5042 223.869 86.2209 223.352 86.8375C222.835 87.4542 222.194 87.9459 221.427 88.3125C220.677 88.6625 219.81 88.8375 218.827 88.8375ZM218.827 87.5375C219.577 87.5375 220.235 87.3792 220.802 87.0625C221.369 86.7459 221.835 86.3292 222.202 85.8125C222.585 85.2959 222.869 84.7125 223.052 84.0625C223.252 83.3959 223.352 82.7209 223.352 82.0375C223.352 81.3542 223.252 80.6875 223.052 80.0375C222.869 79.3709 222.585 78.7792 222.202 78.2625C221.835 77.7459 221.369 77.3292 220.802 77.0125C220.235 76.6959 219.577 76.5375 218.827 76.5375C218.077 76.5375 217.419 76.6959 216.852 77.0125C216.285 77.3292 215.81 77.7459 215.427 78.2625C215.06 78.7792 214.777 79.3709 214.577 80.0375C214.394 80.6875 214.302 81.3542 214.302 82.0375C214.302 82.7209 214.394 83.3959 214.577 84.0625C214.777 84.7125 215.06 85.2959 215.427 85.8125C215.81 86.3292 216.285 86.7459 216.852 87.0625C217.419 87.3792 218.077 87.5375 218.827 87.5375ZM231.169 80.9875L226.144 75.5875H228.269L234.194 82.1875V75.5875H235.769V82.1625L241.694 75.5875H243.819L238.794 80.9875L244.369 88.4875H242.444L237.694 82.0375L235.769 84.0375V88.4875H234.194V84.0375L232.269 82.0375L227.519 88.4875H225.594L231.169 80.9875ZM245.676 75.5875H247.251V81.0625H254.576V75.5875H256.151V88.4875H254.576V82.3875H247.251V88.4875H245.676V75.5875ZM264.579 88.8375C263.596 88.8375 262.721 88.6625 261.954 88.3125C261.204 87.9459 260.571 87.4542 260.054 86.8375C259.537 86.2209 259.146 85.5042 258.879 84.6875C258.612 83.8542 258.479 82.9709 258.479 82.0375C258.479 81.1209 258.612 80.2459 258.879 79.4125C259.146 78.5792 259.537 77.8542 260.054 77.2375C260.571 76.6209 261.204 76.1292 261.954 75.7625C262.721 75.3959 263.596 75.2125 264.579 75.2125C265.562 75.2125 266.429 75.3959 267.179 75.7625C267.946 76.1292 268.587 76.6209 269.104 77.2375C269.621 77.8542 270.012 78.5792 270.279 79.4125C270.546 80.2459 270.679 81.1209 270.679 82.0375C270.679 82.9709 270.546 83.8542 270.279 84.6875C270.012 85.5042 269.621 86.2209 269.104 86.8375C268.587 87.4542 267.946 87.9459 267.179 88.3125C266.429 88.6625 265.562 88.8375 264.579 88.8375ZM264.579 87.5375C265.329 87.5375 265.987 87.3792 266.554 87.0625C267.121 86.7459 267.587 86.3292 267.954 85.8125C268.337 85.2959 268.621 84.7125 268.804 84.0625C269.004 83.3959 269.104 82.7209 269.104 82.0375C269.104 81.3542 269.004 80.6875 268.804 80.0375C268.621 79.3709 268.337 78.7792 267.954 78.2625C267.587 77.7459 267.121 77.3292 266.554 77.0125C265.987 76.6959 265.329 76.5375 264.579 76.5375C263.829 76.5375 263.171 76.6959 262.604 77.0125C262.037 77.3292 261.562 77.7459 261.179 78.2625C260.812 78.7792 260.529 79.3709 260.329 80.0375C260.146 80.6875 260.054 81.3542 260.054 82.0375C260.054 82.7209 260.146 83.3959 260.329 84.0625C260.529 84.7125 260.812 85.2959 261.179 85.8125C261.562 86.3292 262.037 86.7459 262.604 87.0625C263.171 87.3792 263.829 87.5375 264.579 87.5375ZM278.471 88.8375C277.487 88.8375 276.612 88.6625 275.846 88.3125C275.096 87.9459 274.462 87.4542 273.946 86.8375C273.429 86.2209 273.037 85.5042 272.771 84.6875C272.504 83.8542 272.371 82.9709 272.371 82.0375C272.371 81.1209 272.504 80.2459 272.771 79.4125C273.037 78.5792 273.429 77.8542 273.946 77.2375C274.462 76.6209 275.096 76.1292 275.846 75.7625C276.612 75.3959 277.487 75.2125 278.471 75.2125C279.854 75.2125 281.021 75.5792 281.971 76.3125C282.937 77.0459 283.512 78.1542 283.696 79.6375H282.121C281.904 78.6709 281.504 77.9125 280.921 77.3625C280.337 76.8125 279.521 76.5375 278.471 76.5375C277.721 76.5375 277.062 76.6959 276.496 77.0125C275.929 77.3292 275.454 77.7459 275.071 78.2625C274.704 78.7792 274.421 79.3709 274.221 80.0375C274.037 80.6875 273.946 81.3542 273.946 82.0375C273.946 82.7209 274.037 83.3959 274.221 84.0625C274.421 84.7125 274.704 85.2959 275.071 85.8125C275.454 86.3292 275.929 86.7459 276.496 87.0625C277.062 87.3792 277.721 87.5375 278.471 87.5375C278.954 87.5375 279.412 87.4459 279.846 87.2625C280.279 87.0792 280.662 86.8292 280.996 86.5125C281.329 86.1792 281.604 85.7875 281.821 85.3375C282.037 84.8875 282.171 84.3959 282.221 83.8625H283.796C283.579 85.4292 283.004 86.6542 282.071 87.5375C281.137 88.4042 279.937 88.8375 278.471 88.8375ZM289.235 76.9125H284.46V75.5875H295.585V76.9125H290.81V88.4875H289.235V76.9125ZM297.044 75.5875H298.619V86.6375L305.744 75.5875H307.694V88.4875H306.119V77.4375L298.994 88.4875H297.044V75.5875Z" fill="black"/>
</svg>
