<svg width="423" height="127" viewBox="0 0 423 127" fill="none" xmlns="http://www.w3.org/2000/svg">
<rect x="2.4248" y="2.11499" width="419.027" height="122.873" rx="28.5" stroke="black" stroke-width="3"/>
<path d="M105.635 58.1625H107.16C107.777 57.0125 108.227 55.6459 108.51 54.0625C108.794 52.4792 108.935 50.5542 108.935 48.2875V46.5875H117.61V58.1625H119.535V63.5875H117.96V59.4875H107.21V63.5875H105.635V58.1625ZM116.035 58.1625V47.9125H110.46V48.8125C110.46 50.9792 110.302 52.8459 109.985 54.4125C109.669 55.9625 109.269 57.2125 108.785 58.1625H116.035ZM126.418 59.8375C125.385 59.8375 124.501 59.6625 123.768 59.3125C123.035 58.9459 122.435 58.4542 121.968 57.8375C121.501 57.2042 121.151 56.4792 120.918 55.6625C120.701 54.8459 120.593 53.9709 120.593 53.0375C120.593 52.1875 120.701 51.3542 120.918 50.5375C121.151 49.7209 121.501 48.9959 121.968 48.3625C122.435 47.7125 123.035 47.1959 123.768 46.8125C124.501 46.4125 125.385 46.2125 126.418 46.2125C127.451 46.2125 128.335 46.4209 129.068 46.8375C129.801 47.2542 130.393 47.8042 130.843 48.4875C131.31 49.1542 131.643 49.9292 131.843 50.8125C132.043 51.6792 132.126 52.5625 132.093 53.4625H122.168C122.168 54.0459 122.243 54.6375 122.393 55.2375C122.56 55.8375 122.818 56.3792 123.168 56.8625C123.518 57.3459 123.96 57.7459 124.493 58.0625C125.026 58.3792 125.668 58.5375 126.418 58.5375C127.568 58.5375 128.468 58.2375 129.118 57.6375C129.768 57.0375 130.218 56.2375 130.468 55.2375H132.043C131.71 56.7042 131.093 57.8375 130.193 58.6375C129.31 59.4375 128.051 59.8375 126.418 59.8375ZM130.518 52.1375C130.501 51.5375 130.393 50.9625 130.193 50.4125C130.01 49.8625 129.743 49.3792 129.393 48.9625C129.043 48.5292 128.618 48.1875 128.118 47.9375C127.618 47.6709 127.051 47.5375 126.418 47.5375C125.768 47.5375 125.193 47.6709 124.693 47.9375C124.193 48.1875 123.768 48.5292 123.418 48.9625C123.068 49.3792 122.785 49.8709 122.568 50.4375C122.368 50.9875 122.235 51.5542 122.168 52.1375H130.518ZM134.057 59.6125C133.974 59.6125 133.874 59.6042 133.757 59.5875C133.64 59.5709 133.515 59.5542 133.382 59.5375C133.265 59.5209 133.149 59.5042 133.032 59.4875C132.932 59.4542 132.857 59.4292 132.807 59.4125V58.0375C132.94 58.0875 133.14 58.1292 133.407 58.1625C133.674 58.1959 133.899 58.2125 134.082 58.2125C134.249 58.2125 134.432 58.1875 134.632 58.1375C134.832 58.0875 135.032 57.9542 135.232 57.7375C135.432 57.5042 135.624 57.1459 135.807 56.6625C135.99 56.1792 136.149 55.5125 136.282 54.6625C136.415 53.7959 136.524 52.7125 136.607 51.4125C136.69 50.0959 136.732 48.4875 136.732 46.5875H145.357V59.4875H143.782V47.9125H138.257C138.257 49.7792 138.199 51.3625 138.082 52.6625C137.982 53.9625 137.832 55.0459 137.632 55.9125C137.432 56.7792 137.199 57.4625 136.932 57.9625C136.665 58.4625 136.374 58.8375 136.057 59.0875C135.757 59.3209 135.432 59.4625 135.082 59.5125C134.749 59.5792 134.407 59.6125 134.057 59.6125ZM151.968 59.8375C151.368 59.8375 150.801 59.7625 150.268 59.6125C149.751 59.4792 149.293 59.2625 148.893 58.9625C148.509 58.6459 148.201 58.2542 147.968 57.7875C147.751 57.3042 147.643 56.7375 147.643 56.0875C147.643 55.1875 147.843 54.4875 148.243 53.9875C148.643 53.4709 149.168 53.0792 149.818 52.8125C150.484 52.5459 151.226 52.3625 152.043 52.2625C152.876 52.1459 153.718 52.0375 154.568 51.9375C154.884 51.9042 155.168 51.8625 155.418 51.8125C155.684 51.7625 155.901 51.6792 156.068 51.5625C156.234 51.4292 156.359 51.2542 156.443 51.0375C156.543 50.8209 156.593 50.5375 156.593 50.1875C156.593 49.6542 156.501 49.2209 156.318 48.8875C156.151 48.5375 155.909 48.2625 155.593 48.0625C155.293 47.8625 154.934 47.7292 154.518 47.6625C154.118 47.5792 153.684 47.5375 153.218 47.5375C152.218 47.5375 151.401 47.7792 150.768 48.2625C150.134 48.7292 149.801 49.4875 149.768 50.5375H148.193C148.293 49.0209 148.809 47.9209 149.743 47.2375C150.693 46.5542 151.918 46.2125 153.418 46.2125C153.984 46.2125 154.551 46.2709 155.118 46.3875C155.684 46.4875 156.193 46.6875 156.643 46.9875C157.093 47.2875 157.459 47.7125 157.743 48.2625C158.026 48.7959 158.168 49.4959 158.168 50.3625V57.2125C158.168 57.8459 158.476 58.1625 159.093 58.1625C159.293 58.1625 159.459 58.1292 159.593 58.0625V59.3875C159.409 59.4209 159.243 59.4459 159.093 59.4625C158.959 59.4792 158.784 59.4875 158.568 59.4875C158.168 59.4875 157.843 59.4375 157.593 59.3375C157.359 59.2209 157.176 59.0625 157.043 58.8625C156.909 58.6625 156.818 58.4292 156.768 58.1625C156.734 57.8792 156.718 57.5709 156.718 57.2375H156.668C156.384 57.6542 156.093 58.0292 155.793 58.3625C155.509 58.6792 155.184 58.9459 154.818 59.1625C154.468 59.3792 154.059 59.5459 153.593 59.6625C153.126 59.7792 152.584 59.8375 151.968 59.8375ZM152.093 58.5375C152.693 58.5375 153.268 58.4459 153.818 58.2625C154.368 58.0792 154.843 57.8125 155.243 57.4625C155.659 57.1125 155.984 56.6875 156.218 56.1875C156.468 55.6875 156.593 55.1209 156.593 54.4875V52.4375H156.543C156.443 52.6209 156.251 52.7542 155.968 52.8375C155.684 52.9209 155.434 52.9792 155.218 53.0125C154.551 53.1292 153.859 53.2375 153.143 53.3375C152.443 53.4209 151.801 53.5542 151.218 53.7375C150.634 53.9209 150.151 54.1875 149.768 54.5375C149.401 54.8875 149.218 55.3709 149.218 55.9875C149.218 56.3875 149.293 56.7459 149.443 57.0625C149.609 57.3625 149.826 57.6292 150.093 57.8625C150.359 58.0792 150.659 58.2459 150.993 58.3625C151.343 58.4792 151.709 58.5375 152.093 58.5375ZM166.482 59.8375C165.448 59.8375 164.565 59.6625 163.832 59.3125C163.098 58.9459 162.498 58.4542 162.032 57.8375C161.565 57.2042 161.215 56.4792 160.982 55.6625C160.765 54.8459 160.657 53.9709 160.657 53.0375C160.657 52.1875 160.765 51.3542 160.982 50.5375C161.215 49.7209 161.565 48.9959 162.032 48.3625C162.498 47.7125 163.098 47.1959 163.832 46.8125C164.565 46.4125 165.448 46.2125 166.482 46.2125C167.515 46.2125 168.398 46.4209 169.132 46.8375C169.865 47.2542 170.457 47.8042 170.907 48.4875C171.373 49.1542 171.707 49.9292 171.907 50.8125C172.107 51.6792 172.19 52.5625 172.157 53.4625H162.232C162.232 54.0459 162.307 54.6375 162.457 55.2375C162.623 55.8375 162.882 56.3792 163.232 56.8625C163.582 57.3459 164.023 57.7459 164.557 58.0625C165.09 58.3792 165.732 58.5375 166.482 58.5375C167.632 58.5375 168.532 58.2375 169.182 57.6375C169.832 57.0375 170.282 56.2375 170.532 55.2375H172.107C171.773 56.7042 171.157 57.8375 170.257 58.6375C169.373 59.4375 168.115 59.8375 166.482 59.8375ZM170.582 52.1375C170.565 51.5375 170.457 50.9625 170.257 50.4125C170.073 49.8625 169.807 49.3792 169.457 48.9625C169.107 48.5292 168.682 48.1875 168.182 47.9375C167.682 47.6709 167.115 47.5375 166.482 47.5375C165.832 47.5375 165.257 47.6709 164.757 47.9375C164.257 48.1875 163.832 48.5292 163.482 48.9625C163.132 49.3792 162.848 49.8709 162.632 50.4375C162.432 50.9875 162.298 51.5542 162.232 52.1375H170.582ZM174.245 46.5875H176.345L181.145 57.7125L185.895 46.5875H187.995V59.4875H186.42V48.8625H186.345L181.82 59.4875H180.42L175.895 48.8625H175.82V59.4875H174.245V46.5875ZM198.953 64.2375C198.636 64.2209 198.386 64.2042 198.203 64.1875C198.036 64.1875 197.886 64.1625 197.753 64.1125V62.7875C197.936 62.8209 198.111 62.8459 198.278 62.8625C198.461 62.8959 198.644 62.9125 198.828 62.9125C199.178 62.9125 199.461 62.8625 199.678 62.7625C199.911 62.6625 200.111 62.5209 200.278 62.3375C200.444 62.1709 200.586 61.9625 200.703 61.7125C200.819 61.4625 200.944 61.1875 201.078 60.8875L201.628 59.4375L196.478 46.5875H198.153L202.403 57.5875L206.378 46.5875H207.953L202.353 61.4375C202.119 61.9875 201.903 62.4375 201.703 62.7875C201.503 63.1542 201.278 63.4375 201.028 63.6375C200.794 63.8542 200.511 64.0042 200.178 64.0875C199.861 64.1875 199.453 64.2375 198.953 64.2375ZM209.475 46.5875H211.05V52.0625H218.375V46.5875H219.95V59.4875H218.375V53.3875H211.05V59.4875H209.475V46.5875ZM222.903 46.5875H224.478V57.6375L231.603 46.5875H233.553V59.4875H231.978V48.4375L224.853 59.4875H222.903V46.5875ZM236.526 46.5875H238.101V53.2125L245.251 46.5875H247.351L241.876 51.6375L247.676 59.4875H245.701L240.726 52.7125L238.101 55.1375V59.4875H236.526V46.5875ZM252.602 59.8375C252.002 59.8375 251.436 59.7625 250.902 59.6125C250.386 59.4792 249.927 59.2625 249.527 58.9625C249.144 58.6459 248.836 58.2542 248.602 57.7875C248.386 57.3042 248.277 56.7375 248.277 56.0875C248.277 55.1875 248.477 54.4875 248.877 53.9875C249.277 53.4709 249.802 53.0792 250.452 52.8125C251.119 52.5459 251.861 52.3625 252.677 52.2625C253.511 52.1459 254.352 52.0375 255.202 51.9375C255.519 51.9042 255.802 51.8625 256.052 51.8125C256.319 51.7625 256.536 51.6792 256.702 51.5625C256.869 51.4292 256.994 51.2542 257.077 51.0375C257.177 50.8209 257.227 50.5375 257.227 50.1875C257.227 49.6542 257.136 49.2209 256.952 48.8875C256.786 48.5375 256.544 48.2625 256.227 48.0625C255.927 47.8625 255.569 47.7292 255.152 47.6625C254.752 47.5792 254.319 47.5375 253.852 47.5375C252.852 47.5375 252.036 47.7792 251.402 48.2625C250.769 48.7292 250.436 49.4875 250.402 50.5375H248.827C248.927 49.0209 249.444 47.9209 250.377 47.2375C251.327 46.5542 252.552 46.2125 254.052 46.2125C254.619 46.2125 255.186 46.2709 255.752 46.3875C256.319 46.4875 256.827 46.6875 257.277 46.9875C257.727 47.2875 258.094 47.7125 258.377 48.2625C258.661 48.7959 258.802 49.4959 258.802 50.3625V57.2125C258.802 57.8459 259.111 58.1625 259.727 58.1625C259.927 58.1625 260.094 58.1292 260.227 58.0625V59.3875C260.044 59.4209 259.877 59.4459 259.727 59.4625C259.594 59.4792 259.419 59.4875 259.202 59.4875C258.802 59.4875 258.477 59.4375 258.227 59.3375C257.994 59.2209 257.811 59.0625 257.677 58.8625C257.544 58.6625 257.452 58.4292 257.402 58.1625C257.369 57.8792 257.352 57.5709 257.352 57.2375H257.302C257.019 57.6542 256.727 58.0292 256.427 58.3625C256.144 58.6792 255.819 58.9459 255.452 59.1625C255.102 59.3792 254.694 59.5459 254.227 59.6625C253.761 59.7792 253.219 59.8375 252.602 59.8375ZM252.727 58.5375C253.327 58.5375 253.902 58.4459 254.452 58.2625C255.002 58.0792 255.477 57.8125 255.877 57.4625C256.294 57.1125 256.619 56.6875 256.852 56.1875C257.102 55.6875 257.227 55.1209 257.227 54.4875V52.4375H257.177C257.077 52.6209 256.886 52.7542 256.602 52.8375C256.319 52.9209 256.069 52.9792 255.852 53.0125C255.186 53.1292 254.494 53.2375 253.777 53.3375C253.077 53.4209 252.436 53.5542 251.852 53.7375C251.269 53.9209 250.786 54.1875 250.402 54.5375C250.036 54.8875 249.852 55.3709 249.852 55.9875C249.852 56.3875 249.927 56.7459 250.077 57.0625C250.244 57.3625 250.461 57.6292 250.727 57.8625C250.994 58.0792 251.294 58.2459 251.627 58.3625C251.977 58.4792 252.344 58.5375 252.727 58.5375ZM261.791 59.6125C261.708 59.6125 261.608 59.6042 261.491 59.5875C261.375 59.5709 261.25 59.5542 261.116 59.5375C261 59.5209 260.883 59.5042 260.766 59.4875C260.666 59.4542 260.591 59.4292 260.541 59.4125V58.0375C260.675 58.0875 260.875 58.1292 261.141 58.1625C261.408 58.1959 261.633 58.2125 261.816 58.2125C261.983 58.2125 262.166 58.1875 262.366 58.1375C262.566 58.0875 262.766 57.9542 262.966 57.7375C263.166 57.5042 263.358 57.1459 263.541 56.6625C263.725 56.1792 263.883 55.5125 264.016 54.6625C264.15 53.7959 264.258 52.7125 264.341 51.4125C264.425 50.0959 264.466 48.4875 264.466 46.5875H273.091V59.4875H271.516V47.9125H265.991C265.991 49.7792 265.933 51.3625 265.816 52.6625C265.716 53.9625 265.566 55.0459 265.366 55.9125C265.166 56.7792 264.933 57.4625 264.666 57.9625C264.4 58.4625 264.108 58.8375 263.791 59.0875C263.491 59.3209 263.166 59.4625 262.816 59.5125C262.483 59.5792 262.141 59.6125 261.791 59.6125ZM276.177 46.5875H277.752V51.7625H282.377C283.627 51.7625 284.619 52.0959 285.352 52.7625C286.085 53.4292 286.452 54.3709 286.452 55.5875C286.452 56.8042 286.085 57.7625 285.352 58.4625C284.619 59.1459 283.627 59.4875 282.377 59.4875H276.177V46.5875ZM282.002 58.1625C282.902 58.1625 283.602 57.9459 284.102 57.5125C284.619 57.0792 284.877 56.4375 284.877 55.5875C284.877 54.7375 284.619 54.1125 284.102 53.7125C283.602 53.2959 282.902 53.0875 282.002 53.0875H277.752V58.1625H282.002ZM288.552 46.5875H290.127V52.0625H297.452V46.5875H299.027V59.4875H297.452V53.3875H290.127V59.4875H288.552V46.5875ZM301.98 46.5875H303.555V51.7625H307.73C308.98 51.7625 309.971 52.0959 310.705 52.7625C311.438 53.4292 311.805 54.3709 311.805 55.5875C311.805 56.8042 311.438 57.7625 310.705 58.4625C309.971 59.1459 308.98 59.4875 307.73 59.4875H301.98V46.5875ZM307.355 58.1625C308.255 58.1625 308.955 57.9459 309.455 57.5125C309.971 57.0792 310.23 56.4375 310.23 55.5875C310.23 54.7375 309.971 54.1125 309.455 53.7125C308.955 53.2959 308.255 53.0875 307.355 53.0875H303.555V58.1625H307.355ZM314.23 46.5875H315.805V59.4875H314.23V46.5875ZM323.952 59.8375C322.919 59.8375 322.036 59.6625 321.302 59.3125C320.569 58.9459 319.969 58.4542 319.502 57.8375C319.036 57.2042 318.686 56.4792 318.452 55.6625C318.236 54.8459 318.127 53.9709 318.127 53.0375C318.127 52.1875 318.236 51.3542 318.452 50.5375C318.686 49.7209 319.036 48.9959 319.502 48.3625C319.969 47.7125 320.569 47.1959 321.302 46.8125C322.036 46.4125 322.919 46.2125 323.952 46.2125C324.986 46.2125 325.869 46.4209 326.602 46.8375C327.336 47.2542 327.927 47.8042 328.377 48.4875C328.844 49.1542 329.177 49.9292 329.377 50.8125C329.577 51.6792 329.661 52.5625 329.627 53.4625H319.702C319.702 54.0459 319.777 54.6375 319.927 55.2375C320.094 55.8375 320.352 56.3792 320.702 56.8625C321.052 57.3459 321.494 57.7459 322.027 58.0625C322.561 58.3792 323.202 58.5375 323.952 58.5375C325.102 58.5375 326.002 58.2375 326.652 57.6375C327.302 57.0375 327.752 56.2375 328.002 55.2375H329.577C329.244 56.7042 328.627 57.8375 327.727 58.6375C326.844 59.4375 325.586 59.8375 323.952 59.8375ZM328.052 52.1375C328.036 51.5375 327.927 50.9625 327.727 50.4125C327.544 49.8625 327.277 49.3792 326.927 48.9625C326.577 48.5292 326.152 48.1875 325.652 47.9375C325.152 47.6709 324.586 47.5375 323.952 47.5375C323.302 47.5375 322.727 47.6709 322.227 47.9375C321.727 48.1875 321.302 48.5292 320.952 48.9625C320.602 49.3792 320.319 49.8709 320.102 50.4375C319.902 50.9875 319.769 51.5542 319.702 52.1375H328.052ZM106.96 75.5875H108.535V86.6375L115.66 75.5875H117.61V88.4875H116.035V77.4375L108.91 88.4875H106.96V75.5875ZM125.109 88.8375C123.392 88.8375 122.092 88.4459 121.209 87.6625C120.342 86.8625 119.867 85.7875 119.784 84.4375H121.359C121.426 84.9042 121.542 85.3292 121.709 85.7125C121.876 86.0959 122.109 86.4209 122.409 86.6875C122.709 86.9542 123.076 87.1625 123.509 87.3125C123.959 87.4459 124.501 87.5125 125.134 87.5125C125.851 87.5125 126.434 87.4292 126.884 87.2625C127.334 87.0959 127.684 86.8792 127.934 86.6125C128.201 86.3292 128.384 86.0209 128.484 85.6875C128.584 85.3542 128.634 85.0209 128.634 84.6875C128.634 84.0375 128.417 83.4875 127.984 83.0375C127.567 82.5875 126.867 82.3625 125.884 82.3625H123.734V81.1625H125.509C126.259 81.1625 126.901 80.9625 127.434 80.5625C127.967 80.1625 128.234 79.5792 128.234 78.8125C128.234 78.5792 128.192 78.3292 128.109 78.0625C128.042 77.7959 127.892 77.5542 127.659 77.3375C127.426 77.1042 127.101 76.9209 126.684 76.7875C126.267 76.6375 125.726 76.5625 125.059 76.5625C123.876 76.5625 123.017 76.8292 122.484 77.3625C121.967 77.8792 121.667 78.5375 121.584 79.3375H120.034C120.101 78.5542 120.284 77.9042 120.584 77.3875C120.884 76.8542 121.259 76.4292 121.709 76.1125C122.159 75.7959 122.676 75.5709 123.259 75.4375C123.842 75.3042 124.451 75.2375 125.084 75.2375C125.751 75.2375 126.367 75.3042 126.934 75.4375C127.517 75.5542 128.026 75.7542 128.459 76.0375C128.892 76.3042 129.234 76.6625 129.484 77.1125C129.734 77.5459 129.859 78.0792 129.859 78.7125C129.859 79.0959 129.801 79.4459 129.684 79.7625C129.567 80.0792 129.409 80.3625 129.209 80.6125C129.026 80.8625 128.809 81.0709 128.559 81.2375C128.309 81.4042 128.051 81.5125 127.784 81.5625V81.6125C128.084 81.6625 128.384 81.7542 128.684 81.8875C128.984 82.0209 129.251 82.2125 129.484 82.4625C129.717 82.6959 129.909 82.9959 130.059 83.3625C130.209 83.7125 130.284 84.1375 130.284 84.6375C130.284 85.3375 130.142 85.9542 129.859 86.4875C129.576 87.0042 129.192 87.4375 128.709 87.7875C128.242 88.1375 127.692 88.3959 127.059 88.5625C126.442 88.7459 125.792 88.8375 125.109 88.8375ZM131.368 87.1625H132.893C133.509 86.0125 133.959 84.6459 134.243 83.0625C134.526 81.4792 134.668 79.5542 134.668 77.2875V75.5875H143.343V87.1625H145.268V92.5875H143.693V88.4875H132.943V92.5875H131.368V87.1625ZM141.768 87.1625V76.9125H136.193V77.8125C136.193 79.9792 136.034 81.8459 135.718 83.4125C135.401 84.9625 135.001 86.2125 134.518 87.1625H141.768ZM152.15 88.8375C151.117 88.8375 150.234 88.6625 149.5 88.3125C148.767 87.9459 148.167 87.4542 147.7 86.8375C147.234 86.2042 146.884 85.4792 146.65 84.6625C146.434 83.8459 146.325 82.9709 146.325 82.0375C146.325 81.1875 146.434 80.3542 146.65 79.5375C146.884 78.7209 147.234 77.9959 147.7 77.3625C148.167 76.7125 148.767 76.1959 149.5 75.8125C150.234 75.4125 151.117 75.2125 152.15 75.2125C153.184 75.2125 154.067 75.4209 154.8 75.8375C155.534 76.2542 156.125 76.8042 156.575 77.4875C157.042 78.1542 157.375 78.9292 157.575 79.8125C157.775 80.6792 157.859 81.5625 157.825 82.4625H147.9C147.9 83.0459 147.975 83.6375 148.125 84.2375C148.292 84.8375 148.55 85.3792 148.9 85.8625C149.25 86.3459 149.692 86.7459 150.225 87.0625C150.759 87.3792 151.4 87.5375 152.15 87.5375C153.3 87.5375 154.2 87.2375 154.85 86.6375C155.5 86.0375 155.95 85.2375 156.2 84.2375H157.775C157.442 85.7042 156.825 86.8375 155.925 87.6375C155.042 88.4375 153.784 88.8375 152.15 88.8375ZM156.25 81.1375C156.234 80.5375 156.125 79.9625 155.925 79.4125C155.742 78.8625 155.475 78.3792 155.125 77.9625C154.775 77.5292 154.35 77.1875 153.85 76.9375C153.35 76.6709 152.784 76.5375 152.15 76.5375C151.5 76.5375 150.925 76.6709 150.425 76.9375C149.925 77.1875 149.5 77.5292 149.15 77.9625C148.8 78.3792 148.517 78.8709 148.3 79.4375C148.1 79.9875 147.967 80.5542 147.9 81.1375H156.25ZM159.789 88.6125C159.706 88.6125 159.606 88.6042 159.489 88.5875C159.373 88.5709 159.248 88.5542 159.114 88.5375C158.998 88.5209 158.881 88.5042 158.764 88.4875C158.664 88.4542 158.589 88.4292 158.539 88.4125V87.0375C158.673 87.0875 158.873 87.1292 159.139 87.1625C159.406 87.1959 159.631 87.2125 159.814 87.2125C159.981 87.2125 160.164 87.1875 160.364 87.1375C160.564 87.0875 160.764 86.9542 160.964 86.7375C161.164 86.5042 161.356 86.1459 161.539 85.6625C161.723 85.1792 161.881 84.5125 162.014 83.6625C162.148 82.7959 162.256 81.7125 162.339 80.4125C162.423 79.0959 162.464 77.4875 162.464 75.5875H171.089V88.4875H169.514V76.9125H163.989C163.989 78.7792 163.931 80.3625 163.814 81.6625C163.714 82.9625 163.564 84.0459 163.364 84.9125C163.164 85.7792 162.931 86.4625 162.664 86.9625C162.398 87.4625 162.106 87.8375 161.789 88.0875C161.489 88.3209 161.164 88.4625 160.814 88.5125C160.481 88.5792 160.139 88.6125 159.789 88.6125ZM174.05 75.5875H175.625V86.6375L182.75 75.5875H184.7V88.4875H183.125V77.4375L176 88.4875H174.05V75.5875ZM190.949 83.2625C189.799 83.1792 188.882 82.8042 188.199 82.1375C187.532 81.4542 187.199 80.5542 187.199 79.4375C187.199 78.8709 187.29 78.3542 187.474 77.8875C187.657 77.4042 187.915 76.9959 188.249 76.6625C188.582 76.3292 188.99 76.0709 189.474 75.8875C189.957 75.6875 190.499 75.5875 191.099 75.5875H197.349V88.4875H195.774V83.3625H192.724L188.299 88.4875H186.249L190.949 83.2625ZM195.774 82.0375V76.9125H191.474C190.607 76.9125 189.94 77.1542 189.474 77.6375C189.007 78.1042 188.774 78.7125 188.774 79.4625C188.774 80.2125 189.007 80.8292 189.474 81.3125C189.94 81.7959 190.607 82.0375 191.474 82.0375H195.774Z" fill="black"/>
</svg>
