<svg width="423" height="127" viewBox="0 0 423 127" fill="none" xmlns="http://www.w3.org/2000/svg">
<rect x="1.53369" y="2.05127" width="419.027" height="122.873" rx="28.5" stroke="black" stroke-width="3"/>
<path d="M82.7864 40.5961H84.2364V43.0461H84.2864C84.653 42.1461 85.2447 41.4544 86.0614 40.9711C86.8947 40.4711 87.8364 40.2211 88.8864 40.2211C89.8697 40.2211 90.7197 40.4044 91.4364 40.7711C92.1697 41.1378 92.778 41.6378 93.2614 42.2711C93.7447 42.8878 94.103 43.6128 94.3364 44.4461C94.5697 45.2628 94.6864 46.1294 94.6864 47.0461C94.6864 47.9794 94.5697 48.8544 94.3364 49.6711C94.103 50.4878 93.7447 51.2128 93.2614 51.8461C92.778 52.4628 92.1697 52.9544 91.4364 53.3211C90.7197 53.6711 89.8697 53.8461 88.8864 53.8461C88.403 53.8461 87.928 53.7878 87.4614 53.6711C87.0114 53.5544 86.5864 53.3794 86.1864 53.1461C85.7864 52.9128 85.428 52.6211 85.1114 52.2711C84.8114 51.9211 84.578 51.5128 84.4114 51.0461H84.3614V58.2461H82.7864V40.5961ZM88.8864 52.5461C89.6364 52.5461 90.278 52.3878 90.8114 52.0711C91.3447 51.7378 91.778 51.3128 92.1114 50.7961C92.4614 50.2794 92.7114 49.6961 92.8614 49.0461C93.028 48.3794 93.1114 47.7128 93.1114 47.0461C93.1114 46.3794 93.028 45.7211 92.8614 45.0711C92.7114 44.4044 92.4614 43.8128 92.1114 43.2961C91.778 42.7794 91.3447 42.3628 90.8114 42.0461C90.278 41.7128 89.6364 41.5461 88.8864 41.5461C88.003 41.5461 87.2697 41.6961 86.6864 41.9961C86.1197 42.2961 85.6614 42.6961 85.3114 43.1961C84.9614 43.6961 84.7114 44.2794 84.5614 44.9461C84.428 45.6128 84.3614 46.3128 84.3614 47.0461C84.3614 47.7128 84.4364 48.3794 84.5864 49.0461C84.753 49.6961 85.0114 50.2794 85.3614 50.7961C85.728 51.3128 86.1947 51.7378 86.7614 52.0711C87.3447 52.3878 88.053 52.5461 88.8864 52.5461ZM100.767 53.8461C100.167 53.8461 99.6002 53.7711 99.0668 53.6211C98.5502 53.4878 98.0918 53.2711 97.6918 52.9711C97.3085 52.6544 97.0002 52.2628 96.7668 51.7961C96.5502 51.3128 96.4418 50.7461 96.4418 50.0961C96.4418 49.1961 96.6418 48.4961 97.0418 47.9961C97.4418 47.4794 97.9668 47.0878 98.6168 46.8211C99.2835 46.5544 100.025 46.3711 100.842 46.2711C101.675 46.1544 102.517 46.0461 103.367 45.9461C103.684 45.9128 103.967 45.8711 104.217 45.8211C104.484 45.7711 104.7 45.6878 104.867 45.5711C105.034 45.4378 105.159 45.2628 105.242 45.0461C105.342 44.8294 105.392 44.5461 105.392 44.1961C105.392 43.6628 105.3 43.2294 105.117 42.8961C104.95 42.5461 104.709 42.2711 104.392 42.0711C104.092 41.8711 103.734 41.7378 103.317 41.6711C102.917 41.5878 102.484 41.5461 102.017 41.5461C101.017 41.5461 100.2 41.7878 99.5668 42.2711C98.9335 42.7378 98.6002 43.4961 98.5668 44.5461H96.9918C97.0918 43.0294 97.6085 41.9294 98.5418 41.2461C99.4918 40.5628 100.717 40.2211 102.217 40.2211C102.784 40.2211 103.35 40.2794 103.917 40.3961C104.484 40.4961 104.992 40.6961 105.442 40.9961C105.892 41.2961 106.259 41.7211 106.542 42.2711C106.825 42.8044 106.967 43.5044 106.967 44.3711V51.2211C106.967 51.8544 107.275 52.1711 107.892 52.1711C108.092 52.1711 108.259 52.1378 108.392 52.0711V53.3961C108.209 53.4294 108.042 53.4544 107.892 53.4711C107.759 53.4878 107.584 53.4961 107.367 53.4961C106.967 53.4961 106.642 53.4461 106.392 53.3461C106.159 53.2294 105.975 53.0711 105.842 52.8711C105.709 52.6711 105.617 52.4378 105.567 52.1711C105.534 51.8878 105.517 51.5794 105.517 51.2461H105.467C105.184 51.6628 104.892 52.0378 104.592 52.3711C104.309 52.6878 103.984 52.9544 103.617 53.1711C103.267 53.3878 102.859 53.5544 102.392 53.6711C101.925 53.7878 101.384 53.8461 100.767 53.8461ZM100.892 52.5461C101.492 52.5461 102.067 52.4544 102.617 52.2711C103.167 52.0878 103.642 51.8211 104.042 51.4711C104.459 51.1211 104.784 50.6961 105.017 50.1961C105.267 49.6961 105.392 49.1294 105.392 48.4961V46.4461H105.342C105.242 46.6294 105.05 46.7628 104.767 46.8461C104.484 46.9294 104.234 46.9878 104.017 47.0211C103.35 47.1378 102.659 47.2461 101.942 47.3461C101.242 47.4294 100.6 47.5628 100.017 47.7461C99.4335 47.9294 98.9502 48.1961 98.5668 48.5461C98.2002 48.8961 98.0168 49.3794 98.0168 49.9961C98.0168 50.3961 98.0918 50.7544 98.2418 51.0711C98.4085 51.3711 98.6252 51.6378 98.8918 51.8711C99.1585 52.0878 99.4585 52.2544 99.7918 52.3711C100.142 52.4878 100.509 52.5461 100.892 52.5461ZM114.631 53.8461C112.914 53.8461 111.614 53.4544 110.731 52.6711C109.864 51.8711 109.389 50.7961 109.306 49.4461H110.881C110.947 49.9128 111.064 50.3378 111.231 50.7211C111.397 51.1044 111.631 51.4294 111.931 51.6961C112.231 51.9628 112.597 52.1711 113.031 52.3211C113.481 52.4544 114.022 52.5211 114.656 52.5211C115.372 52.5211 115.956 52.4378 116.406 52.2711C116.856 52.1044 117.206 51.8878 117.456 51.6211C117.722 51.3378 117.906 51.0294 118.006 50.6961C118.106 50.3628 118.156 50.0294 118.156 49.6961C118.156 49.0461 117.939 48.4961 117.506 48.0461C117.089 47.5961 116.389 47.3711 115.406 47.3711H113.256V46.1711H115.031C115.781 46.1711 116.422 45.9711 116.956 45.5711C117.489 45.1711 117.756 44.5878 117.756 43.8211C117.756 43.5878 117.714 43.3378 117.631 43.0711C117.564 42.8044 117.414 42.5628 117.181 42.3461C116.947 42.1128 116.622 41.9294 116.206 41.7961C115.789 41.6461 115.247 41.5711 114.581 41.5711C113.397 41.5711 112.539 41.8378 112.006 42.3711C111.489 42.8878 111.189 43.5461 111.106 44.3461H109.556C109.622 43.5628 109.806 42.9128 110.106 42.3961C110.406 41.8628 110.781 41.4378 111.231 41.1211C111.681 40.8044 112.197 40.5794 112.781 40.4461C113.364 40.3128 113.972 40.2461 114.606 40.2461C115.272 40.2461 115.889 40.3128 116.456 40.4461C117.039 40.5628 117.547 40.7628 117.981 41.0461C118.414 41.3128 118.756 41.6711 119.006 42.1211C119.256 42.5544 119.381 43.0878 119.381 43.7211C119.381 44.1044 119.322 44.4544 119.206 44.7711C119.089 45.0878 118.931 45.3711 118.731 45.6211C118.547 45.8711 118.331 46.0794 118.081 46.2461C117.831 46.4128 117.572 46.5211 117.306 46.5711V46.6211C117.606 46.6711 117.906 46.7628 118.206 46.8961C118.506 47.0294 118.772 47.2211 119.006 47.4711C119.239 47.7044 119.431 48.0044 119.581 48.3711C119.731 48.7211 119.806 49.1461 119.806 49.6461C119.806 50.3461 119.664 50.9628 119.381 51.4961C119.097 52.0128 118.714 52.4461 118.231 52.7961C117.764 53.1461 117.214 53.4044 116.581 53.5711C115.964 53.7544 115.314 53.8461 114.631 53.8461ZM122.09 53.6211C122.006 53.6211 121.906 53.6128 121.79 53.5961C121.673 53.5794 121.548 53.5628 121.415 53.5461C121.298 53.5294 121.181 53.5128 121.065 53.4961C120.965 53.4628 120.89 53.4378 120.84 53.4211V52.0461C120.973 52.0961 121.173 52.1378 121.44 52.1711C121.706 52.2044 121.931 52.2211 122.115 52.2211C122.281 52.2211 122.465 52.1961 122.665 52.1461C122.865 52.0961 123.065 51.9628 123.265 51.7461C123.465 51.5128 123.656 51.1544 123.84 50.6711C124.023 50.1878 124.181 49.5211 124.315 48.6711C124.448 47.8044 124.556 46.7211 124.64 45.4211C124.723 44.1044 124.765 42.4961 124.765 40.5961H133.39V53.4961H131.815V41.9211H126.29C126.29 43.7878 126.231 45.3711 126.115 46.6711C126.015 47.9711 125.865 49.0544 125.665 49.9211C125.465 50.7878 125.231 51.4711 124.965 51.9711C124.698 52.4711 124.406 52.8461 124.09 53.0961C123.79 53.3294 123.465 53.4711 123.115 53.5211C122.781 53.5878 122.44 53.6211 122.09 53.6211ZM136.35 40.5961H137.925V51.6461L145.05 40.5961H147V53.4961H145.425V42.4461L138.3 53.4961H136.35V40.5961ZM157.874 47.8711C157.624 47.9711 157.332 48.0711 156.999 48.1711C156.682 48.2544 156.332 48.3378 155.949 48.4211C155.582 48.4878 155.199 48.5461 154.799 48.5961C154.399 48.6294 153.999 48.6461 153.599 48.6461C152.299 48.6461 151.291 48.3294 150.574 47.6961C149.874 47.0628 149.524 45.9961 149.524 44.4961V40.5961H151.099V44.6711C151.099 45.3044 151.182 45.7961 151.349 46.1461C151.532 46.4794 151.757 46.7294 152.024 46.8961C152.307 47.0461 152.616 47.1378 152.949 47.1711C153.282 47.2044 153.607 47.2211 153.924 47.2211C154.607 47.2211 155.316 47.1461 156.049 46.9961C156.799 46.8294 157.407 46.6461 157.874 46.4461V40.5961H159.449V53.4961H157.874V47.8711ZM162.4 40.5961H163.975V46.0711H171.3V40.5961H172.875V53.4961H171.3V47.3961H163.975V53.4961H162.4V40.5961ZM175.828 40.5961H177.403V45.7711H181.578C182.828 45.7711 183.819 46.1044 184.553 46.7711C185.286 47.4378 185.653 48.3794 185.653 49.5961C185.653 50.8128 185.286 51.7711 184.553 52.4711C183.819 53.1544 182.828 53.4961 181.578 53.4961H175.828V40.5961ZM181.203 52.1711C182.103 52.1711 182.803 51.9544 183.303 51.5211C183.819 51.0878 184.078 50.4461 184.078 49.5961C184.078 48.7461 183.819 48.1211 183.303 47.7211C182.803 47.3044 182.103 47.0961 181.203 47.0961H177.403V52.1711H181.203ZM188.078 40.5961H189.653V53.4961H188.078V40.5961ZM197.8 53.8461C196.767 53.8461 195.884 53.6711 195.15 53.3211C194.417 52.9544 193.817 52.4628 193.35 51.8461C192.884 51.2128 192.534 50.4878 192.3 49.6711C192.084 48.8544 191.975 47.9794 191.975 47.0461C191.975 46.1961 192.084 45.3628 192.3 44.5461C192.534 43.7294 192.884 43.0044 193.35 42.3711C193.817 41.7211 194.417 41.2044 195.15 40.8211C195.884 40.4211 196.767 40.2211 197.8 40.2211C198.834 40.2211 199.717 40.4294 200.45 40.8461C201.184 41.2628 201.775 41.8128 202.225 42.4961C202.692 43.1628 203.025 43.9378 203.225 44.8211C203.425 45.6878 203.509 46.5711 203.475 47.4711H193.55C193.55 48.0544 193.625 48.6461 193.775 49.2461C193.942 49.8461 194.2 50.3878 194.55 50.8711C194.9 51.3544 195.342 51.7544 195.875 52.0711C196.409 52.3878 197.05 52.5461 197.8 52.5461C198.95 52.5461 199.85 52.2461 200.5 51.6461C201.15 51.0461 201.6 50.2461 201.85 49.2461H203.425C203.092 50.7128 202.475 51.8461 201.575 52.6461C200.692 53.4461 199.434 53.8461 197.8 53.8461ZM201.9 46.1461C201.884 45.5461 201.775 44.9711 201.575 44.4211C201.392 43.8711 201.125 43.3878 200.775 42.9711C200.425 42.5378 200 42.1961 199.5 41.9461C199 41.6794 198.434 41.5461 197.8 41.5461C197.15 41.5461 196.575 41.6794 196.075 41.9461C195.575 42.1961 195.15 42.5378 194.8 42.9711C194.45 43.3878 194.167 43.8794 193.95 44.4461C193.75 44.9961 193.617 45.5628 193.55 46.1461H201.9ZM86.0364 70.9211H81.2614V69.5961H92.3864V70.9211H87.6114V82.4961H86.0364V70.9211ZM99.0454 82.8461C98.012 82.8461 97.1287 82.6711 96.3954 82.3211C95.662 81.9544 95.062 81.4628 94.5954 80.8461C94.1287 80.2128 93.7787 79.4878 93.5454 78.6711C93.3287 77.8544 93.2204 76.9794 93.2204 76.0461C93.2204 75.1961 93.3287 74.3628 93.5454 73.5461C93.7787 72.7294 94.1287 72.0044 94.5954 71.3711C95.062 70.7211 95.662 70.2044 96.3954 69.8211C97.1287 69.4211 98.012 69.2211 99.0454 69.2211C100.079 69.2211 100.962 69.4294 101.695 69.8461C102.429 70.2628 103.02 70.8128 103.47 71.4961C103.937 72.1628 104.27 72.9378 104.47 73.8211C104.67 74.6878 104.754 75.5711 104.72 76.4711H94.7954C94.7954 77.0544 94.8704 77.6461 95.0204 78.2461C95.187 78.8461 95.4454 79.3878 95.7954 79.8711C96.1454 80.3544 96.587 80.7544 97.1204 81.0711C97.6537 81.3878 98.2954 81.5461 99.0454 81.5461C100.195 81.5461 101.095 81.2461 101.745 80.6461C102.395 80.0461 102.845 79.2461 103.095 78.2461H104.67C104.337 79.7128 103.72 80.8461 102.82 81.6461C101.937 82.4461 100.679 82.8461 99.0454 82.8461ZM103.145 75.1461C103.129 74.5461 103.02 73.9711 102.82 73.4211C102.637 72.8711 102.37 72.3878 102.02 71.9711C101.67 71.5378 101.245 71.1961 100.745 70.9461C100.245 70.6794 99.6787 70.5461 99.0454 70.5461C98.3954 70.5461 97.8204 70.6794 97.3204 70.9461C96.8204 71.1961 96.3954 71.5378 96.0454 71.9711C95.6954 72.3878 95.412 72.8794 95.1954 73.4461C94.9954 73.9961 94.862 74.5628 94.7954 75.1461H103.145ZM110.359 75.7961L105.734 69.5961H107.709L111.384 74.4961L114.984 69.5961H116.959L112.309 75.7711L117.334 82.4961H115.334L111.284 77.0711L107.309 82.4961H105.359L110.359 75.7961ZM118.845 69.5961H120.42V75.0711H127.745V69.5961H129.32V82.4961H127.745V76.3961H120.42V82.4961H118.845V69.5961ZM137.748 82.8461C136.765 82.8461 135.89 82.6711 135.123 82.3211C134.373 81.9544 133.74 81.4628 133.223 80.8461C132.706 80.2294 132.315 79.5128 132.048 78.6961C131.781 77.8628 131.648 76.9794 131.648 76.0461C131.648 75.1294 131.781 74.2544 132.048 73.4211C132.315 72.5878 132.706 71.8628 133.223 71.2461C133.74 70.6294 134.373 70.1378 135.123 69.7711C135.89 69.4044 136.765 69.2211 137.748 69.2211C138.731 69.2211 139.598 69.4044 140.348 69.7711C141.115 70.1378 141.756 70.6294 142.273 71.2461C142.79 71.8628 143.181 72.5878 143.448 73.4211C143.715 74.2544 143.848 75.1294 143.848 76.0461C143.848 76.9794 143.715 77.8628 143.448 78.6961C143.181 79.5128 142.79 80.2294 142.273 80.8461C141.756 81.4628 141.115 81.9544 140.348 82.3211C139.598 82.6711 138.731 82.8461 137.748 82.8461ZM137.748 81.5461C138.498 81.5461 139.156 81.3878 139.723 81.0711C140.29 80.7544 140.756 80.3378 141.123 79.8211C141.506 79.3044 141.79 78.7211 141.973 78.0711C142.173 77.4044 142.273 76.7294 142.273 76.0461C142.273 75.3628 142.173 74.6961 141.973 74.0461C141.79 73.3794 141.506 72.7878 141.123 72.2711C140.756 71.7544 140.29 71.3378 139.723 71.0211C139.156 70.7044 138.498 70.5461 137.748 70.5461C136.998 70.5461 136.34 70.7044 135.773 71.0211C135.206 71.3378 134.731 71.7544 134.348 72.2711C133.981 72.7878 133.698 73.3794 133.498 74.0461C133.315 74.6961 133.223 75.3628 133.223 76.0461C133.223 76.7294 133.315 77.4044 133.498 78.0711C133.698 78.7211 133.981 79.3044 134.348 79.8211C134.731 80.3378 135.206 80.7544 135.773 81.0711C136.34 81.3878 136.998 81.5461 137.748 81.5461ZM146.04 82.6211C145.956 82.6211 145.856 82.6128 145.74 82.5961C145.623 82.5794 145.498 82.5628 145.365 82.5461C145.248 82.5294 145.131 82.5128 145.015 82.4961C144.915 82.4628 144.84 82.4378 144.79 82.4211V81.0461C144.923 81.0961 145.123 81.1378 145.39 81.1711C145.656 81.2044 145.881 81.2211 146.065 81.2211C146.231 81.2211 146.415 81.1961 146.615 81.1461C146.815 81.0961 147.015 80.9628 147.215 80.7461C147.415 80.5128 147.606 80.1544 147.79 79.6711C147.973 79.1878 148.131 78.5211 148.265 77.6711C148.398 76.8044 148.506 75.7211 148.59 74.4211C148.673 73.1044 148.715 71.4961 148.715 69.5961H157.34V82.4961H155.765V70.9211H150.24C150.24 72.7878 150.181 74.3711 150.065 75.6711C149.965 76.9711 149.815 78.0544 149.615 78.9211C149.415 79.7878 149.181 80.4711 148.915 80.9711C148.648 81.4711 148.356 81.8461 148.04 82.0961C147.74 82.3294 147.415 82.4711 147.065 82.5211C146.731 82.5878 146.39 82.6211 146.04 82.6211ZM165.775 82.8461C164.792 82.8461 163.917 82.6711 163.15 82.3211C162.4 81.9544 161.767 81.4628 161.25 80.8461C160.734 80.2294 160.342 79.5128 160.075 78.6961C159.809 77.8628 159.675 76.9794 159.675 76.0461C159.675 75.1294 159.809 74.2544 160.075 73.4211C160.342 72.5878 160.734 71.8628 161.25 71.2461C161.767 70.6294 162.4 70.1378 163.15 69.7711C163.917 69.4044 164.792 69.2211 165.775 69.2211C166.759 69.2211 167.625 69.4044 168.375 69.7711C169.142 70.1378 169.784 70.6294 170.3 71.2461C170.817 71.8628 171.209 72.5878 171.475 73.4211C171.742 74.2544 171.875 75.1294 171.875 76.0461C171.875 76.9794 171.742 77.8628 171.475 78.6961C171.209 79.5128 170.817 80.2294 170.3 80.8461C169.784 81.4628 169.142 81.9544 168.375 82.3211C167.625 82.6711 166.759 82.8461 165.775 82.8461ZM165.775 81.5461C166.525 81.5461 167.184 81.3878 167.75 81.0711C168.317 80.7544 168.784 80.3378 169.15 79.8211C169.534 79.3044 169.817 78.7211 170 78.0711C170.2 77.4044 170.3 76.7294 170.3 76.0461C170.3 75.3628 170.2 74.6961 170 74.0461C169.817 73.3794 169.534 72.7878 169.15 72.2711C168.784 71.7544 168.317 71.3378 167.75 71.0211C167.184 70.7044 166.525 70.5461 165.775 70.5461C165.025 70.5461 164.367 70.7044 163.8 71.0211C163.234 71.3378 162.759 71.7544 162.375 72.2711C162.009 72.7878 161.725 73.3794 161.525 74.0461C161.342 74.6961 161.25 75.3628 161.25 76.0461C161.25 76.7294 161.342 77.4044 161.525 78.0711C161.725 78.7211 162.009 79.3044 162.375 79.8211C162.759 80.3378 163.234 80.7544 163.8 81.0711C164.367 81.3878 165.025 81.5461 165.775 81.5461ZM174.342 69.5961H182.867V70.9211H175.917V82.4961H174.342V69.5961ZM184.202 69.5961H185.777V80.6461L192.902 69.5961H194.852V82.4961H193.277V71.4461L186.152 82.4961H184.202V69.5961ZM197.8 69.5961H199.375V80.6461L206.5 69.5961H208.45V82.4961H206.875V71.4461L199.75 82.4961H197.8V69.5961ZM218.357 69.5961H219.932V80.6461L227.057 69.5961H229.007V82.4961H227.432V71.4461L220.307 82.4961H218.357V69.5961ZM236.506 82.8461C234.789 82.8461 233.489 82.4544 232.606 81.6711C231.739 80.8711 231.264 79.7961 231.181 78.4461H232.756C232.822 78.9128 232.939 79.3378 233.106 79.7211C233.272 80.1044 233.506 80.4294 233.806 80.6961C234.106 80.9628 234.472 81.1711 234.906 81.3211C235.356 81.4544 235.897 81.5211 236.531 81.5211C237.247 81.5211 237.831 81.4378 238.281 81.2711C238.731 81.1044 239.081 80.8878 239.331 80.6211C239.597 80.3378 239.781 80.0294 239.881 79.6961C239.981 79.3628 240.031 79.0294 240.031 78.6961C240.031 78.0461 239.814 77.4961 239.381 77.0461C238.964 76.5961 238.264 76.3711 237.281 76.3711H235.131V75.1711H236.906C237.656 75.1711 238.297 74.9711 238.831 74.5711C239.364 74.1711 239.631 73.5878 239.631 72.8211C239.631 72.5878 239.589 72.3378 239.506 72.0711C239.439 71.8044 239.289 71.5628 239.056 71.3461C238.822 71.1128 238.497 70.9294 238.081 70.7961C237.664 70.6461 237.122 70.5711 236.456 70.5711C235.272 70.5711 234.414 70.8378 233.881 71.3711C233.364 71.8878 233.064 72.5461 232.981 73.3461H231.431C231.497 72.5628 231.681 71.9128 231.981 71.3961C232.281 70.8628 232.656 70.4378 233.106 70.1211C233.556 69.8044 234.072 69.5794 234.656 69.4461C235.239 69.3128 235.847 69.2461 236.481 69.2461C237.147 69.2461 237.764 69.3128 238.331 69.4461C238.914 69.5628 239.422 69.7628 239.856 70.0461C240.289 70.3128 240.631 70.6711 240.881 71.1211C241.131 71.5544 241.256 72.0878 241.256 72.7211C241.256 73.1044 241.197 73.4544 241.081 73.7711C240.964 74.0878 240.806 74.3711 240.606 74.6211C240.422 74.8711 240.206 75.0794 239.956 75.2461C239.706 75.4128 239.447 75.5211 239.181 75.5711V75.6211C239.481 75.6711 239.781 75.7628 240.081 75.8961C240.381 76.0294 240.647 76.2211 240.881 76.4711C241.114 76.7044 241.306 77.0044 241.456 77.3711C241.606 77.7211 241.681 78.1461 241.681 78.6461C241.681 79.3461 241.539 79.9628 241.256 80.4961C240.972 81.0128 240.589 81.4461 240.106 81.7961C239.639 82.1461 239.089 82.4044 238.456 82.5711C237.839 82.7544 237.189 82.8461 236.506 82.8461ZM244.24 69.5961H252.765V70.9211H245.815V82.4961H244.24V69.5961ZM259.574 82.8461C258.591 82.8461 257.716 82.6711 256.949 82.3211C256.199 81.9544 255.566 81.4628 255.049 80.8461C254.533 80.2294 254.141 79.5128 253.874 78.6961C253.608 77.8628 253.474 76.9794 253.474 76.0461C253.474 75.1294 253.608 74.2544 253.874 73.4211C254.141 72.5878 254.533 71.8628 255.049 71.2461C255.566 70.6294 256.199 70.1378 256.949 69.7711C257.716 69.4044 258.591 69.2211 259.574 69.2211C260.558 69.2211 261.424 69.4044 262.174 69.7711C262.941 70.1378 263.583 70.6294 264.099 71.2461C264.616 71.8628 265.008 72.5878 265.274 73.4211C265.541 74.2544 265.674 75.1294 265.674 76.0461C265.674 76.9794 265.541 77.8628 265.274 78.6961C265.008 79.5128 264.616 80.2294 264.099 80.8461C263.583 81.4628 262.941 81.9544 262.174 82.3211C261.424 82.6711 260.558 82.8461 259.574 82.8461ZM259.574 81.5461C260.324 81.5461 260.983 81.3878 261.549 81.0711C262.116 80.7544 262.583 80.3378 262.949 79.8211C263.333 79.3044 263.616 78.7211 263.799 78.0711C263.999 77.4044 264.099 76.7294 264.099 76.0461C264.099 75.3628 263.999 74.6961 263.799 74.0461C263.616 73.3794 263.333 72.7878 262.949 72.2711C262.583 71.7544 262.116 71.3378 261.549 71.0211C260.983 70.7044 260.324 70.5461 259.574 70.5461C258.824 70.5461 258.166 70.7044 257.599 71.0211C257.033 71.3378 256.558 71.7544 256.174 72.2711C255.808 72.7878 255.524 73.3794 255.324 74.0461C255.141 74.6961 255.049 75.3628 255.049 76.0461C255.049 76.7294 255.141 77.4044 255.324 78.0711C255.524 78.7211 255.808 79.3044 256.174 79.8211C256.558 80.3378 257.033 80.7544 257.599 81.0711C258.166 81.3878 258.824 81.5461 259.574 81.5461ZM271.266 70.9211H266.491V69.5961H277.616V70.9211H272.841V82.4961H271.266V70.9211ZM284.55 82.8461C283.567 82.8461 282.692 82.6711 281.925 82.3211C281.175 81.9544 280.542 81.4628 280.025 80.8461C279.508 80.2294 279.117 79.5128 278.85 78.6961C278.583 77.8628 278.45 76.9794 278.45 76.0461C278.45 75.1294 278.583 74.2544 278.85 73.4211C279.117 72.5878 279.508 71.8628 280.025 71.2461C280.542 70.6294 281.175 70.1378 281.925 69.7711C282.692 69.4044 283.567 69.2211 284.55 69.2211C285.533 69.2211 286.4 69.4044 287.15 69.7711C287.917 70.1378 288.558 70.6294 289.075 71.2461C289.592 71.8628 289.983 72.5878 290.25 73.4211C290.517 74.2544 290.65 75.1294 290.65 76.0461C290.65 76.9794 290.517 77.8628 290.25 78.6961C289.983 79.5128 289.592 80.2294 289.075 80.8461C288.558 81.4628 287.917 81.9544 287.15 82.3211C286.4 82.6711 285.533 82.8461 284.55 82.8461ZM284.55 81.5461C285.3 81.5461 285.958 81.3878 286.525 81.0711C287.092 80.7544 287.558 80.3378 287.925 79.8211C288.308 79.3044 288.592 78.7211 288.775 78.0711C288.975 77.4044 289.075 76.7294 289.075 76.0461C289.075 75.3628 288.975 74.6961 288.775 74.0461C288.592 73.3794 288.308 72.7878 287.925 72.2711C287.558 71.7544 287.092 71.3378 286.525 71.0211C285.958 70.7044 285.3 70.5461 284.55 70.5461C283.8 70.5461 283.142 70.7044 282.575 71.0211C282.008 71.3378 281.533 71.7544 281.15 72.2711C280.783 72.7878 280.5 73.3794 280.3 74.0461C280.117 74.6961 280.025 75.3628 280.025 76.0461C280.025 76.7294 280.117 77.4044 280.3 78.0711C280.5 78.7211 280.783 79.3044 281.15 79.8211C281.533 80.3378 282.008 80.7544 282.575 81.0711C283.142 81.3878 283.8 81.5461 284.55 81.5461ZM292.966 69.5961H298.866C300.183 69.5961 301.2 69.8544 301.916 70.3711C302.633 70.8878 302.991 71.6461 302.991 72.6461C302.991 73.4128 302.791 74.0544 302.391 74.5711C302.008 75.0878 301.466 75.4461 300.766 75.6461V75.6961C301.616 75.8461 302.283 76.1794 302.766 76.6961C303.25 77.2128 303.491 77.9461 303.491 78.8961C303.491 80.0628 303.1 80.9544 302.316 81.5711C301.533 82.1878 300.383 82.4961 298.866 82.4961H292.966V69.5961ZM298.691 81.1711C299.791 81.1711 300.6 80.9711 301.116 80.5711C301.65 80.1544 301.916 79.5378 301.916 78.7211C301.916 77.9711 301.65 77.3961 301.116 76.9961C300.6 76.5961 299.791 76.3961 298.691 76.3961H294.541V81.1711H298.691ZM298.691 75.1711C299.591 75.1711 300.266 74.9794 300.716 74.5961C301.183 74.2128 301.416 73.6961 301.416 73.0461C301.416 71.6294 300.508 70.9211 298.691 70.9211H294.541V75.1711H298.691ZM305.756 82.6211C305.673 82.6211 305.573 82.6128 305.456 82.5961C305.34 82.5794 305.215 82.5628 305.081 82.5461C304.965 82.5294 304.848 82.5128 304.731 82.4961C304.631 82.4628 304.556 82.4378 304.506 82.4211V81.0461C304.64 81.0961 304.84 81.1378 305.106 81.1711C305.373 81.2044 305.598 81.2211 305.781 81.2211C305.948 81.2211 306.131 81.1961 306.331 81.1461C306.531 81.0961 306.731 80.9628 306.931 80.7461C307.131 80.5128 307.323 80.1544 307.506 79.6711C307.69 79.1878 307.848 78.5211 307.981 77.6711C308.115 76.8044 308.223 75.7211 308.306 74.4211C308.39 73.1044 308.431 71.4961 308.431 69.5961H317.056V82.4961H315.481V70.9211H309.956C309.956 72.7878 309.898 74.3711 309.781 75.6711C309.681 76.9711 309.531 78.0544 309.331 78.9211C309.131 79.7878 308.898 80.4711 308.631 80.9711C308.365 81.4711 308.073 81.8461 307.756 82.0961C307.456 82.3294 307.131 82.4711 306.781 82.5211C306.448 82.5878 306.106 82.6211 305.756 82.6211ZM325.217 82.8461C324.184 82.8461 323.301 82.6711 322.567 82.3211C321.834 81.9544 321.234 81.4628 320.767 80.8461C320.301 80.2128 319.951 79.4878 319.717 78.6711C319.501 77.8544 319.392 76.9794 319.392 76.0461C319.392 75.1961 319.501 74.3628 319.717 73.5461C319.951 72.7294 320.301 72.0044 320.767 71.3711C321.234 70.7211 321.834 70.2044 322.567 69.8211C323.301 69.4211 324.184 69.2211 325.217 69.2211C326.251 69.2211 327.134 69.4294 327.867 69.8461C328.601 70.2628 329.192 70.8128 329.642 71.4961C330.109 72.1628 330.442 72.9378 330.642 73.8211C330.842 74.6878 330.926 75.5711 330.892 76.4711H320.967C320.967 77.0544 321.042 77.6461 321.192 78.2461C321.359 78.8461 321.617 79.3878 321.967 79.8711C322.317 80.3544 322.759 80.7544 323.292 81.0711C323.826 81.3878 324.467 81.5461 325.217 81.5461C326.367 81.5461 327.267 81.2461 327.917 80.6461C328.567 80.0461 329.017 79.2461 329.267 78.2461H330.842C330.509 79.7128 329.892 80.8461 328.992 81.6461C328.109 82.4461 326.851 82.8461 325.217 82.8461ZM329.317 75.1461C329.301 74.5461 329.192 73.9711 328.992 73.4211C328.809 72.8711 328.542 72.3878 328.192 71.9711C327.842 71.5378 327.417 71.1961 326.917 70.9461C326.417 70.6794 325.851 70.5461 325.217 70.5461C324.567 70.5461 323.992 70.6794 323.492 70.9461C322.992 71.1961 322.567 71.5378 322.217 71.9711C321.867 72.3878 321.584 72.8794 321.367 73.4461C321.167 73.9961 321.034 74.5628 320.967 75.1461H329.317ZM332.981 69.5961H334.556V75.0711H341.881V69.5961H343.456V82.4961H341.881V76.3961H334.556V82.4961H332.981V69.5961ZM346.409 69.5961H347.984V80.6461L355.109 69.5961H357.059V82.4961H355.484V71.4461L348.359 82.4961H346.409V69.5961ZM363.307 77.2711C362.157 77.1878 361.241 76.8128 360.557 76.1461C359.891 75.4628 359.557 74.5628 359.557 73.4461C359.557 72.8794 359.649 72.3628 359.832 71.8961C360.016 71.4128 360.274 71.0044 360.607 70.6711C360.941 70.3378 361.349 70.0794 361.832 69.8961C362.316 69.6961 362.857 69.5961 363.457 69.5961H369.707V82.4961H368.132V77.3711H365.082L360.657 82.4961H358.607L363.307 77.2711ZM368.132 76.0461V70.9211H363.832C362.966 70.9211 362.299 71.1628 361.832 71.6461C361.366 72.1128 361.132 72.7211 361.132 73.4711C361.132 74.2211 361.366 74.8378 361.832 75.3211C362.299 75.8044 362.966 76.0461 363.832 76.0461H368.132Z" fill="black"/>
</svg>
