<svg width="423" height="127" viewBox="0 0 423 127" fill="none" xmlns="http://www.w3.org/2000/svg">
<rect x="2.1601" y="1.82593" width="419.027" height="122.873" rx="28.5" stroke="black" stroke-width="3"/>
<path d="M86.1831 58.8622H96.4831V71.7622H94.9081V60.1872H87.7581V71.7622H86.1831V58.8622ZM104.64 72.1122C103.607 72.1122 102.723 71.9372 101.99 71.5872C101.257 71.2205 100.657 70.7289 100.19 70.1122C99.7232 69.4789 99.3732 68.7539 99.1399 67.9372C98.9232 67.1205 98.8149 66.2455 98.8149 65.3122C98.8149 64.4622 98.9232 63.6289 99.1399 62.8122C99.3732 61.9955 99.7232 61.2705 100.19 60.6372C100.657 59.9872 101.257 59.4705 101.99 59.0872C102.723 58.6872 103.607 58.4872 104.64 58.4872C105.673 58.4872 106.557 58.6955 107.29 59.1122C108.023 59.5289 108.615 60.0789 109.065 60.7622C109.532 61.4289 109.865 62.2039 110.065 63.0872C110.265 63.9539 110.348 64.8372 110.315 65.7372H100.39C100.39 66.3205 100.465 66.9122 100.615 67.5122C100.782 68.1122 101.04 68.6539 101.39 69.1372C101.74 69.6205 102.182 70.0205 102.715 70.3372C103.248 70.6539 103.89 70.8122 104.64 70.8122C105.79 70.8122 106.69 70.5122 107.34 69.9122C107.99 69.3122 108.44 68.5122 108.69 67.5122H110.265C109.932 68.9789 109.315 70.1122 108.415 70.9122C107.532 71.7122 106.273 72.1122 104.64 72.1122ZM108.74 64.4122C108.723 63.8122 108.615 63.2372 108.415 62.6872C108.232 62.1372 107.965 61.6539 107.615 61.2372C107.265 60.8039 106.84 60.4622 106.34 60.2122C105.84 59.9455 105.273 59.8122 104.64 59.8122C103.99 59.8122 103.415 59.9455 102.915 60.2122C102.415 60.4622 101.99 60.8039 101.64 61.2372C101.29 61.6539 101.007 62.1455 100.79 62.7122C100.59 63.2622 100.457 63.8289 100.39 64.4122H108.74ZM112.429 58.8622H113.879V61.3122H113.929C114.295 60.4122 114.887 59.7205 115.704 59.2372C116.537 58.7372 117.479 58.4872 118.529 58.4872C119.512 58.4872 120.362 58.6705 121.079 59.0372C121.812 59.4039 122.42 59.9039 122.904 60.5372C123.387 61.1539 123.745 61.8789 123.979 62.7122C124.212 63.5289 124.329 64.3955 124.329 65.3122C124.329 66.2455 124.212 67.1205 123.979 67.9372C123.745 68.7539 123.387 69.4789 122.904 70.1122C122.42 70.7289 121.812 71.2205 121.079 71.5872C120.362 71.9372 119.512 72.1122 118.529 72.1122C118.045 72.1122 117.57 72.0539 117.104 71.9372C116.654 71.8205 116.229 71.6455 115.829 71.4122C115.429 71.1789 115.07 70.8872 114.754 70.5372C114.454 70.1872 114.22 69.7789 114.054 69.3122H114.004V76.5122H112.429V58.8622ZM118.529 70.8122C119.279 70.8122 119.92 70.6539 120.454 70.3372C120.987 70.0039 121.42 69.5789 121.754 69.0622C122.104 68.5455 122.354 67.9622 122.504 67.3122C122.67 66.6455 122.754 65.9789 122.754 65.3122C122.754 64.6455 122.67 63.9872 122.504 63.3372C122.354 62.6705 122.104 62.0789 121.754 61.5622C121.42 61.0455 120.987 60.6289 120.454 60.3122C119.92 59.9789 119.279 59.8122 118.529 59.8122C117.645 59.8122 116.912 59.9622 116.329 60.2622C115.762 60.5622 115.304 60.9622 114.954 61.4622C114.604 61.9622 114.354 62.5455 114.204 63.2122C114.07 63.8789 114.004 64.5789 114.004 65.3122C114.004 65.9789 114.079 66.6455 114.229 67.3122C114.395 67.9622 114.654 68.5455 115.004 69.0622C115.37 69.5789 115.837 70.0039 116.404 70.3372C116.987 70.6539 117.695 70.8122 118.529 70.8122ZM132.234 72.1122C131.251 72.1122 130.376 71.9372 129.609 71.5872C128.859 71.2205 128.226 70.7289 127.709 70.1122C127.193 69.4955 126.801 68.7789 126.534 67.9622C126.268 67.1289 126.134 66.2455 126.134 65.3122C126.134 64.3955 126.268 63.5205 126.534 62.6872C126.801 61.8539 127.193 61.1289 127.709 60.5122C128.226 59.8955 128.859 59.4039 129.609 59.0372C130.376 58.6705 131.251 58.4872 132.234 58.4872C133.618 58.4872 134.784 58.8539 135.734 59.5872C136.701 60.3205 137.276 61.4289 137.459 62.9122H135.884C135.668 61.9455 135.268 61.1872 134.684 60.6372C134.101 60.0872 133.284 59.8122 132.234 59.8122C131.484 59.8122 130.826 59.9705 130.259 60.2872C129.693 60.6039 129.218 61.0205 128.834 61.5372C128.468 62.0539 128.184 62.6455 127.984 63.3122C127.801 63.9622 127.709 64.6289 127.709 65.3122C127.709 65.9955 127.801 66.6705 127.984 67.3372C128.184 67.9872 128.468 68.5705 128.834 69.0872C129.218 69.6039 129.693 70.0205 130.259 70.3372C130.826 70.6539 131.484 70.8122 132.234 70.8122C132.718 70.8122 133.176 70.7205 133.609 70.5372C134.043 70.3539 134.426 70.1039 134.759 69.7872C135.093 69.4539 135.368 69.0622 135.584 68.6122C135.801 68.1622 135.934 67.6705 135.984 67.1372H137.559C137.343 68.7039 136.768 69.9289 135.834 70.8122C134.901 71.6789 133.701 72.1122 132.234 72.1122ZM145.198 72.1122C144.215 72.1122 143.34 71.9372 142.573 71.5872C141.823 71.2205 141.19 70.7289 140.673 70.1122C140.156 69.4955 139.765 68.7789 139.498 67.9622C139.231 67.1289 139.098 66.2455 139.098 65.3122C139.098 64.3955 139.231 63.5205 139.498 62.6872C139.765 61.8539 140.156 61.1289 140.673 60.5122C141.19 59.8955 141.823 59.4039 142.573 59.0372C143.34 58.6705 144.215 58.4872 145.198 58.4872C146.181 58.4872 147.048 58.6705 147.798 59.0372C148.565 59.4039 149.206 59.8955 149.723 60.5122C150.24 61.1289 150.631 61.8539 150.898 62.6872C151.165 63.5205 151.298 64.3955 151.298 65.3122C151.298 66.2455 151.165 67.1289 150.898 67.9622C150.631 68.7789 150.24 69.4955 149.723 70.1122C149.206 70.7289 148.565 71.2205 147.798 71.5872C147.048 71.9372 146.181 72.1122 145.198 72.1122ZM145.198 70.8122C145.948 70.8122 146.606 70.6539 147.173 70.3372C147.74 70.0205 148.206 69.6039 148.573 69.0872C148.956 68.5705 149.24 67.9872 149.423 67.3372C149.623 66.6705 149.723 65.9955 149.723 65.3122C149.723 64.6289 149.623 63.9622 149.423 63.3122C149.24 62.6455 148.956 62.0539 148.573 61.5372C148.206 61.0205 147.74 60.6039 147.173 60.2872C146.606 59.9705 145.948 59.8122 145.198 59.8122C144.448 59.8122 143.79 59.9705 143.223 60.2872C142.656 60.6039 142.181 61.0205 141.798 61.5372C141.431 62.0539 141.148 62.6455 140.948 63.3122C140.765 63.9622 140.673 64.6289 140.673 65.3122C140.673 65.9955 140.765 66.6705 140.948 67.3372C141.148 67.9872 141.431 68.5705 141.798 69.0872C142.181 69.6039 142.656 70.0205 143.223 70.3372C143.79 70.6539 144.448 70.8122 145.198 70.8122ZM153.615 58.8622H155.19V64.3372H162.515V58.8622H164.09V71.7622H162.515V65.6622H155.19V71.7622H153.615V58.8622ZM170.692 72.1122C170.092 72.1122 169.526 72.0372 168.992 71.8872C168.476 71.7539 168.017 71.5372 167.617 71.2372C167.234 70.9205 166.926 70.5289 166.692 70.0622C166.476 69.5789 166.367 69.0122 166.367 68.3622C166.367 67.4622 166.567 66.7622 166.967 66.2622C167.367 65.7455 167.892 65.3539 168.542 65.0872C169.209 64.8205 169.951 64.6372 170.767 64.5372C171.601 64.4205 172.442 64.3122 173.292 64.2122C173.609 64.1789 173.892 64.1372 174.142 64.0872C174.409 64.0372 174.626 63.9539 174.792 63.8372C174.959 63.7039 175.084 63.5289 175.167 63.3122C175.267 63.0955 175.317 62.8122 175.317 62.4622C175.317 61.9289 175.226 61.4955 175.042 61.1622C174.876 60.8122 174.634 60.5372 174.317 60.3372C174.017 60.1372 173.659 60.0039 173.242 59.9372C172.842 59.8539 172.409 59.8122 171.942 59.8122C170.942 59.8122 170.126 60.0539 169.492 60.5372C168.859 61.0039 168.526 61.7622 168.492 62.8122H166.917C167.017 61.2955 167.534 60.1955 168.467 59.5122C169.417 58.8289 170.642 58.4872 172.142 58.4872C172.709 58.4872 173.276 58.5455 173.842 58.6622C174.409 58.7622 174.917 58.9622 175.367 59.2622C175.817 59.5622 176.184 59.9872 176.467 60.5372C176.751 61.0705 176.892 61.7705 176.892 62.6372V69.4872C176.892 70.1205 177.201 70.4372 177.817 70.4372C178.017 70.4372 178.184 70.4039 178.317 70.3372V71.6622C178.134 71.6955 177.967 71.7205 177.817 71.7372C177.684 71.7539 177.509 71.7622 177.292 71.7622C176.892 71.7622 176.567 71.7122 176.317 71.6122C176.084 71.4955 175.901 71.3372 175.767 71.1372C175.634 70.9372 175.542 70.7039 175.492 70.4372C175.459 70.1539 175.442 69.8455 175.442 69.5122H175.392C175.109 69.9289 174.817 70.3039 174.517 70.6372C174.234 70.9539 173.909 71.2205 173.542 71.4372C173.192 71.6539 172.784 71.8205 172.317 71.9372C171.851 72.0539 171.309 72.1122 170.692 72.1122ZM170.817 70.8122C171.417 70.8122 171.992 70.7205 172.542 70.5372C173.092 70.3539 173.567 70.0872 173.967 69.7372C174.384 69.3872 174.709 68.9622 174.942 68.4622C175.192 67.9622 175.317 67.3955 175.317 66.7622V64.7122H175.267C175.167 64.8955 174.976 65.0289 174.692 65.1122C174.409 65.1955 174.159 65.2539 173.942 65.2872C173.276 65.4039 172.584 65.5122 171.867 65.6122C171.167 65.6955 170.526 65.8289 169.942 66.0122C169.359 66.1955 168.876 66.4622 168.492 66.8122C168.126 67.1622 167.942 67.6455 167.942 68.2622C167.942 68.6622 168.017 69.0205 168.167 69.3372C168.334 69.6372 168.551 69.9039 168.817 70.1372C169.084 70.3539 169.384 70.5205 169.717 70.6372C170.067 70.7539 170.434 70.8122 170.817 70.8122ZM179.881 71.8872C179.798 71.8872 179.698 71.8789 179.581 71.8622C179.465 71.8455 179.34 71.8289 179.206 71.8122C179.09 71.7955 178.973 71.7789 178.856 71.7622C178.756 71.7289 178.681 71.7039 178.631 71.6872V70.3122C178.765 70.3622 178.965 70.4039 179.231 70.4372C179.498 70.4705 179.723 70.4872 179.906 70.4872C180.073 70.4872 180.256 70.4622 180.456 70.4122C180.656 70.3622 180.856 70.2289 181.056 70.0122C181.256 69.7789 181.448 69.4205 181.631 68.9372C181.815 68.4539 181.973 67.7872 182.106 66.9372C182.24 66.0705 182.348 64.9872 182.431 63.6872C182.515 62.3705 182.556 60.7622 182.556 58.8622H191.181V71.7622H189.606V60.1872H184.081C184.081 62.0539 184.023 63.6372 183.906 64.9372C183.806 66.2372 183.656 67.3205 183.456 68.1872C183.256 69.0539 183.023 69.7372 182.756 70.2372C182.49 70.7372 182.198 71.1122 181.881 71.3622C181.581 71.5955 181.256 71.7372 180.906 71.7872C180.573 71.8539 180.231 71.8872 179.881 71.8872ZM194.267 58.8622H195.842V64.0372H200.467C201.717 64.0372 202.709 64.3705 203.442 65.0372C204.175 65.7039 204.542 66.6455 204.542 67.8622C204.542 69.0789 204.175 70.0372 203.442 70.7372C202.709 71.4205 201.717 71.7622 200.467 71.7622H194.267V58.8622ZM200.092 70.4372C200.992 70.4372 201.692 70.2205 202.192 69.7872C202.709 69.3539 202.967 68.7122 202.967 67.8622C202.967 67.0122 202.709 66.3872 202.192 65.9872C201.692 65.5705 200.992 65.3622 200.092 65.3622H195.842V70.4372H200.092ZM206.642 58.8622H208.217V64.3372H215.542V58.8622H217.117V71.7622H215.542V65.6622H208.217V71.7622H206.642V58.8622ZM220.07 58.8622H221.645V64.0372H225.82C227.07 64.0372 228.061 64.3705 228.795 65.0372C229.528 65.7039 229.895 66.6455 229.895 67.8622C229.895 69.0789 229.528 70.0372 228.795 70.7372C228.061 71.4205 227.07 71.7622 225.82 71.7622H220.07V58.8622ZM225.445 70.4372C226.345 70.4372 227.045 70.2205 227.545 69.7872C228.061 69.3539 228.32 68.7122 228.32 67.8622C228.32 67.0122 228.061 66.3872 227.545 65.9872C227.045 65.5705 226.345 65.3622 225.445 65.3622H221.645V70.4372H225.445ZM232.32 58.8622H233.895V71.7622H232.32V58.8622ZM236.842 58.8622H238.417V69.9122L245.542 58.8622H247.492V71.7622H245.917V60.7122L238.792 71.7622H236.842V58.8622ZM242.117 56.9622C241.067 56.9622 240.251 56.6872 239.667 56.1372C239.084 55.5705 238.726 54.7622 238.592 53.7122H239.567C239.651 54.3455 239.909 54.8455 240.342 55.2122C240.792 55.5789 241.392 55.7622 242.142 55.7622C242.859 55.7622 243.442 55.5872 243.892 55.2372C244.359 54.8705 244.659 54.3622 244.792 53.7122H245.767C245.584 54.7622 245.192 55.5705 244.592 56.1372C243.992 56.6872 243.167 56.9622 242.117 56.9622ZM257.399 58.8622H267.699V71.7622H266.124V60.1872H258.974V71.7622H257.399V58.8622ZM276.131 72.1122C275.147 72.1122 274.272 71.9372 273.506 71.5872C272.756 71.2205 272.122 70.7289 271.606 70.1122C271.089 69.4955 270.697 68.7789 270.431 67.9622C270.164 67.1289 270.031 66.2455 270.031 65.3122C270.031 64.3955 270.164 63.5205 270.431 62.6872C270.697 61.8539 271.089 61.1289 271.606 60.5122C272.122 59.8955 272.756 59.4039 273.506 59.0372C274.272 58.6705 275.147 58.4872 276.131 58.4872C277.114 58.4872 277.981 58.6705 278.731 59.0372C279.497 59.4039 280.139 59.8955 280.656 60.5122C281.172 61.1289 281.564 61.8539 281.831 62.6872C282.097 63.5205 282.231 64.3955 282.231 65.3122C282.231 66.2455 282.097 67.1289 281.831 67.9622C281.564 68.7789 281.172 69.4955 280.656 70.1122C280.139 70.7289 279.497 71.2205 278.731 71.5872C277.981 71.9372 277.114 72.1122 276.131 72.1122ZM276.131 70.8122C276.881 70.8122 277.539 70.6539 278.106 70.3372C278.672 70.0205 279.139 69.6039 279.506 69.0872C279.889 68.5705 280.172 67.9872 280.356 67.3372C280.556 66.6705 280.656 65.9955 280.656 65.3122C280.656 64.6289 280.556 63.9622 280.356 63.3122C280.172 62.6455 279.889 62.0539 279.506 61.5372C279.139 61.0205 278.672 60.6039 278.106 60.2872C277.539 59.9705 276.881 59.8122 276.131 59.8122C275.381 59.8122 274.722 59.9705 274.156 60.2872C273.589 60.6039 273.114 61.0205 272.731 61.5372C272.364 62.0539 272.081 62.6455 271.881 63.3122C271.697 63.9622 271.606 64.6289 271.606 65.3122C271.606 65.9955 271.697 66.6705 271.881 67.3372C272.081 67.9872 272.364 68.5705 272.731 69.0872C273.114 69.6039 273.589 70.0205 274.156 70.3372C274.722 70.6539 275.381 70.8122 276.131 70.8122ZM283.222 70.4372H284.747C285.364 69.2872 285.814 67.9205 286.097 66.3372C286.381 64.7539 286.522 62.8289 286.522 60.5622V58.8622H295.197V70.4372H297.122V75.8622H295.547V71.7622H284.797V75.8622H283.222V70.4372ZM293.622 70.4372V60.1872H288.047V61.0872C288.047 63.2539 287.889 65.1205 287.572 66.6872C287.256 68.2372 286.856 69.4872 286.372 70.4372H293.622ZM302.355 65.0622L297.73 58.8622H299.705L303.38 63.7622L306.98 58.8622H308.955L304.305 65.0372L309.33 71.7622H307.33L303.28 66.3372L299.305 71.7622H297.355L302.355 65.0622ZM316.316 72.1122C315.333 72.1122 314.458 71.9372 313.691 71.5872C312.941 71.2205 312.308 70.7289 311.791 70.1122C311.275 69.4955 310.883 68.7789 310.616 67.9622C310.35 67.1289 310.216 66.2455 310.216 65.3122C310.216 64.3955 310.35 63.5205 310.616 62.6872C310.883 61.8539 311.275 61.1289 311.791 60.5122C312.308 59.8955 312.941 59.4039 313.691 59.0372C314.458 58.6705 315.333 58.4872 316.316 58.4872C317.3 58.4872 318.166 58.6705 318.916 59.0372C319.683 59.4039 320.325 59.8955 320.841 60.5122C321.358 61.1289 321.75 61.8539 322.016 62.6872C322.283 63.5205 322.416 64.3955 322.416 65.3122C322.416 66.2455 322.283 67.1289 322.016 67.9622C321.75 68.7789 321.358 69.4955 320.841 70.1122C320.325 70.7289 319.683 71.2205 318.916 71.5872C318.166 71.9372 317.3 72.1122 316.316 72.1122ZM316.316 70.8122C317.066 70.8122 317.725 70.6539 318.291 70.3372C318.858 70.0205 319.325 69.6039 319.691 69.0872C320.075 68.5705 320.358 67.9872 320.541 67.3372C320.741 66.6705 320.841 65.9955 320.841 65.3122C320.841 64.6289 320.741 63.9622 320.541 63.3122C320.358 62.6455 320.075 62.0539 319.691 61.5372C319.325 61.0205 318.858 60.6039 318.291 60.2872C317.725 59.9705 317.066 59.8122 316.316 59.8122C315.566 59.8122 314.908 59.9705 314.341 60.2872C313.775 60.6039 313.3 61.0205 312.916 61.5372C312.55 62.0539 312.266 62.6455 312.066 63.3122C311.883 63.9622 311.791 64.6289 311.791 65.3122C311.791 65.9955 311.883 66.6705 312.066 67.3372C312.266 67.9872 312.55 68.5705 312.916 69.0872C313.3 69.6039 313.775 70.0205 314.341 70.3372C314.908 70.6539 315.566 70.8122 316.316 70.8122ZM323.408 70.4372H324.933C325.55 69.2872 326 67.9205 326.283 66.3372C326.566 64.7539 326.708 62.8289 326.708 60.5622V58.8622H335.383V70.4372H337.308V75.8622H335.733V71.7622H324.983V75.8622H323.408V70.4372ZM333.808 70.4372V60.1872H328.233V61.0872C328.233 63.2539 328.075 65.1205 327.758 66.6872C327.441 68.2372 327.041 69.4872 326.558 70.4372H333.808Z" fill="black"/>
</svg>
