<svg width="423" height="127" viewBox="0 0 423 127" fill="none" xmlns="http://www.w3.org/2000/svg">
<rect x="1.53369" y="1.82593" width="419.027" height="122.873" rx="28.5" stroke="black" stroke-width="3"/>
<path d="M92.8423 57.7484C91.859 57.7484 90.984 57.5734 90.2173 57.2234C89.4673 56.8568 88.834 56.3651 88.3173 55.7484C87.8007 55.1318 87.409 54.4151 87.1423 53.5984C86.8757 52.7651 86.7423 51.8818 86.7423 50.9484C86.7423 50.0318 86.8757 49.1568 87.1423 48.3234C87.409 47.4901 87.8007 46.7651 88.3173 46.1484C88.834 45.5318 89.4673 45.0401 90.2173 44.6734C90.984 44.3068 91.859 44.1234 92.8423 44.1234C94.2257 44.1234 95.3923 44.4901 96.3423 45.2234C97.309 45.9568 97.884 47.0651 98.0673 48.5484H96.4923C96.2757 47.5818 95.8757 46.8234 95.2923 46.2734C94.709 45.7234 93.8923 45.4484 92.8423 45.4484C92.0923 45.4484 91.434 45.6068 90.8673 45.9234C90.3007 46.2401 89.8257 46.6568 89.4423 47.1734C89.0757 47.6901 88.7923 48.2818 88.5923 48.9484C88.409 49.5984 88.3173 50.2651 88.3173 50.9484C88.3173 51.6318 88.409 52.3068 88.5923 52.9734C88.7923 53.6234 89.0757 54.2068 89.4423 54.7234C89.8257 55.2401 90.3007 55.6568 90.8673 55.9734C91.434 56.2901 92.0923 56.4484 92.8423 56.4484C93.3257 56.4484 93.784 56.3568 94.2173 56.1734C94.6507 55.9901 95.034 55.7401 95.3673 55.4234C95.7007 55.0901 95.9757 54.6984 96.1923 54.2484C96.409 53.7984 96.5423 53.3068 96.5923 52.7734H98.1673C97.9507 54.3401 97.3757 55.5651 96.4423 56.4484C95.509 57.3151 94.309 57.7484 92.8423 57.7484ZM105.531 57.7484C104.498 57.7484 103.615 57.5734 102.881 57.2234C102.148 56.8568 101.548 56.3651 101.081 55.7484C100.615 55.1151 100.265 54.3901 100.031 53.5734C99.8145 52.7568 99.7062 51.8818 99.7062 50.9484C99.7062 50.0984 99.8145 49.2651 100.031 48.4484C100.265 47.6318 100.615 46.9068 101.081 46.2734C101.548 45.6234 102.148 45.1068 102.881 44.7234C103.615 44.3234 104.498 44.1234 105.531 44.1234C106.565 44.1234 107.448 44.3318 108.181 44.7484C108.915 45.1651 109.506 45.7151 109.956 46.3984C110.423 47.0651 110.756 47.8401 110.956 48.7234C111.156 49.5901 111.24 50.4734 111.206 51.3734H101.281C101.281 51.9568 101.356 52.5484 101.506 53.1484C101.673 53.7484 101.931 54.2901 102.281 54.7734C102.631 55.2568 103.073 55.6568 103.606 55.9734C104.14 56.2901 104.781 56.4484 105.531 56.4484C106.681 56.4484 107.581 56.1484 108.231 55.5484C108.881 54.9484 109.331 54.1484 109.581 53.1484H111.156C110.823 54.6151 110.206 55.7484 109.306 56.5484C108.423 57.3484 107.165 57.7484 105.531 57.7484ZM109.631 50.0484C109.615 49.4484 109.506 48.8734 109.306 48.3234C109.123 47.7734 108.856 47.2901 108.506 46.8734C108.156 46.4401 107.731 46.0984 107.231 45.8484C106.731 45.5818 106.165 45.4484 105.531 45.4484C104.881 45.4484 104.306 45.5818 103.806 45.8484C103.306 46.0984 102.881 46.4401 102.531 46.8734C102.181 47.2901 101.898 47.7818 101.681 48.3484C101.481 48.8984 101.348 49.4651 101.281 50.0484H109.631ZM113.32 44.4984H114.77V46.9484H114.82C115.187 46.0484 115.778 45.3568 116.595 44.8734C117.428 44.3734 118.37 44.1234 119.42 44.1234C120.403 44.1234 121.253 44.3068 121.97 44.6734C122.703 45.0401 123.312 45.5401 123.795 46.1734C124.278 46.7901 124.637 47.5151 124.87 48.3484C125.103 49.1651 125.22 50.0318 125.22 50.9484C125.22 51.8818 125.103 52.7568 124.87 53.5734C124.637 54.3901 124.278 55.1151 123.795 55.7484C123.312 56.3651 122.703 56.8568 121.97 57.2234C121.253 57.5734 120.403 57.7484 119.42 57.7484C118.937 57.7484 118.462 57.6901 117.995 57.5734C117.545 57.4568 117.12 57.2818 116.72 57.0484C116.32 56.8151 115.962 56.5234 115.645 56.1734C115.345 55.8234 115.112 55.4151 114.945 54.9484H114.895V62.1484H113.32V44.4984ZM119.42 56.4484C120.17 56.4484 120.812 56.2901 121.345 55.9734C121.878 55.6401 122.312 55.2151 122.645 54.6984C122.995 54.1818 123.245 53.5984 123.395 52.9484C123.562 52.2818 123.645 51.6151 123.645 50.9484C123.645 50.2818 123.562 49.6234 123.395 48.9734C123.245 48.3068 122.995 47.7151 122.645 47.1984C122.312 46.6818 121.878 46.2651 121.345 45.9484C120.812 45.6151 120.17 45.4484 119.42 45.4484C118.537 45.4484 117.803 45.5984 117.22 45.8984C116.653 46.1984 116.195 46.5984 115.845 47.0984C115.495 47.5984 115.245 48.1818 115.095 48.8484C114.962 49.5151 114.895 50.2151 114.895 50.9484C114.895 51.6151 114.97 52.2818 115.12 52.9484C115.287 53.5984 115.545 54.1818 115.895 54.6984C116.262 55.2151 116.728 55.6401 117.295 55.9734C117.878 56.2901 118.587 56.4484 119.42 56.4484ZM130.926 45.8234H126.151V44.4984H137.276V45.8234H132.501V57.3984H130.926V45.8234ZM138.735 44.4984H140.31V55.5484L147.435 44.4984H149.385V57.3984H147.81V46.3484L140.685 57.3984H138.735V44.4984ZM160.083 56.0234H160.033C159.75 56.5234 159.316 56.9401 158.733 57.2734C158.15 57.5901 157.508 57.7484 156.808 57.7484C156.125 57.7484 155.483 57.5984 154.883 57.2984C154.283 56.9984 153.75 56.5651 153.283 55.9984C152.833 55.4151 152.475 54.7068 152.208 53.8734C151.941 53.0401 151.808 52.0818 151.808 50.9984C151.808 48.7151 152.25 46.9984 153.133 45.8484C154.033 44.6984 155.266 44.1234 156.833 44.1234C157.533 44.1234 158.158 44.2818 158.708 44.5984C159.258 44.8984 159.7 45.3234 160.033 45.8734H160.083V39.5484H161.658V45.8734H161.708C162.041 45.3234 162.483 44.8984 163.033 44.5984C163.583 44.2818 164.208 44.1234 164.908 44.1234C166.475 44.1234 167.7 44.6984 168.583 45.8484C169.483 46.9984 169.933 48.7151 169.933 50.9984C169.933 52.0818 169.8 53.0401 169.533 53.8734C169.266 54.7068 168.9 55.4151 168.433 55.9984C167.983 56.5651 167.45 56.9984 166.833 57.2984C166.233 57.5984 165.6 57.7484 164.933 57.7484C164.233 57.7484 163.591 57.5901 163.008 57.2734C162.425 56.9401 161.991 56.5234 161.708 56.0234C161.691 56.0401 161.675 56.0401 161.658 56.0234V62.1484H160.083V56.0234ZM157.208 56.4234C158.025 56.4234 158.708 56.1734 159.258 55.6734C159.808 55.1568 160.083 54.4734 160.083 53.6234V48.1984C160.083 47.7984 160.008 47.4318 159.858 47.0984C159.708 46.7651 159.508 46.4734 159.258 46.2234C159.008 45.9734 158.708 45.7818 158.358 45.6484C158.008 45.5151 157.633 45.4484 157.233 45.4484C156.7 45.4484 156.2 45.5568 155.733 45.7734C155.266 45.9734 154.858 46.2984 154.508 46.7484C154.158 47.1984 153.883 47.7734 153.683 48.4734C153.483 49.1734 153.383 50.0151 153.383 50.9984C153.383 51.9484 153.475 52.7734 153.658 53.4734C153.841 54.1568 154.1 54.7151 154.433 55.1484C154.783 55.5818 155.191 55.9068 155.658 56.1234C156.125 56.3234 156.641 56.4234 157.208 56.4234ZM164.533 56.4234C165.1 56.4234 165.616 56.3234 166.083 56.1234C166.55 55.9068 166.95 55.5818 167.283 55.1484C167.616 54.7151 167.875 54.1568 168.058 53.4734C168.258 52.7734 168.358 51.9484 168.358 50.9984C168.358 50.0151 168.258 49.1734 168.058 48.4734C167.858 47.7734 167.583 47.1984 167.233 46.7484C166.883 46.2984 166.475 45.9734 166.008 45.7734C165.541 45.5568 165.041 45.4484 164.508 45.4484C164.108 45.4484 163.733 45.5151 163.383 45.6484C163.033 45.7818 162.733 45.9734 162.483 46.2234C162.233 46.4734 162.033 46.7651 161.883 47.0984C161.733 47.4318 161.658 47.7984 161.658 48.1984V53.6234C161.658 54.4734 161.933 55.1568 162.483 55.6734C163.033 56.1734 163.716 56.4234 164.533 56.4234ZM172.328 44.4984H173.903V55.5484L181.028 44.4984H182.978V57.3984H181.403V46.3484L174.278 57.3984H172.328V44.4984ZM185.952 44.4984H187.527V51.1234L194.677 44.4984H196.777L191.302 49.5484L197.102 57.3984H195.127L190.152 50.6234L187.527 53.0484V57.3984H185.952V44.4984ZM202.028 57.7484C201.428 57.7484 200.861 57.6734 200.328 57.5234C199.811 57.3901 199.353 57.1734 198.953 56.8734C198.57 56.5568 198.261 56.1651 198.028 55.6984C197.811 55.2151 197.703 54.6484 197.703 53.9984C197.703 53.0984 197.903 52.3984 198.303 51.8984C198.703 51.3818 199.228 50.9901 199.878 50.7234C200.545 50.4568 201.286 50.2734 202.103 50.1734C202.936 50.0568 203.778 49.9484 204.628 49.8484C204.945 49.8151 205.228 49.7734 205.478 49.7234C205.745 49.6734 205.961 49.5901 206.128 49.4734C206.295 49.3401 206.42 49.1651 206.503 48.9484C206.603 48.7318 206.653 48.4484 206.653 48.0984C206.653 47.5651 206.561 47.1318 206.378 46.7984C206.211 46.4484 205.97 46.1734 205.653 45.9734C205.353 45.7734 204.995 45.6401 204.578 45.5734C204.178 45.4901 203.745 45.4484 203.278 45.4484C202.278 45.4484 201.461 45.6901 200.828 46.1734C200.195 46.6401 199.861 47.3984 199.828 48.4484H198.253C198.353 46.9318 198.87 45.8318 199.803 45.1484C200.753 44.4651 201.978 44.1234 203.478 44.1234C204.045 44.1234 204.611 44.1818 205.178 44.2984C205.745 44.3984 206.253 44.5984 206.703 44.8984C207.153 45.1984 207.52 45.6234 207.803 46.1734C208.086 46.7068 208.228 47.4068 208.228 48.2734V55.1234C208.228 55.7568 208.536 56.0734 209.153 56.0734C209.353 56.0734 209.52 56.0401 209.653 55.9734V57.2984C209.47 57.3318 209.303 57.3568 209.153 57.3734C209.02 57.3901 208.845 57.3984 208.628 57.3984C208.228 57.3984 207.903 57.3484 207.653 57.2484C207.42 57.1318 207.236 56.9734 207.103 56.7734C206.97 56.5734 206.878 56.3401 206.828 56.0734C206.795 55.7901 206.778 55.4818 206.778 55.1484H206.728C206.445 55.5651 206.153 55.9401 205.853 56.2734C205.57 56.5901 205.245 56.8568 204.878 57.0734C204.528 57.2901 204.12 57.4568 203.653 57.5734C203.186 57.6901 202.645 57.7484 202.028 57.7484ZM202.153 56.4484C202.753 56.4484 203.328 56.3568 203.878 56.1734C204.428 55.9901 204.903 55.7234 205.303 55.3734C205.72 55.0234 206.045 54.5984 206.278 54.0984C206.528 53.5984 206.653 53.0318 206.653 52.3984V50.3484H206.603C206.503 50.5318 206.311 50.6651 206.028 50.7484C205.745 50.8318 205.495 50.8901 205.278 50.9234C204.611 51.0401 203.92 51.1484 203.203 51.2484C202.503 51.3318 201.861 51.4651 201.278 51.6484C200.695 51.8318 200.211 52.0984 199.828 52.4484C199.461 52.7984 199.278 53.2818 199.278 53.8984C199.278 54.2984 199.353 54.6568 199.503 54.9734C199.67 55.2734 199.886 55.5401 200.153 55.7734C200.42 55.9901 200.72 56.1568 201.053 56.2734C201.403 56.3901 201.77 56.4484 202.153 56.4484ZM214.617 45.8234H209.842V44.4984H220.967V45.8234H216.192V57.3984H214.617V45.8234ZM222.426 44.4984H224.001V49.6734H228.176C229.426 49.6734 230.418 50.0068 231.151 50.6734C231.884 51.3401 232.251 52.2818 232.251 53.4984C232.251 54.7151 231.884 55.6734 231.151 56.3734C230.418 57.0568 229.426 57.3984 228.176 57.3984H222.426V44.4984ZM227.801 56.0734C228.701 56.0734 229.401 55.8568 229.901 55.4234C230.418 54.9901 230.676 54.3484 230.676 53.4984C230.676 52.6484 230.418 52.0234 229.901 51.6234C229.401 51.2068 228.701 50.9984 227.801 50.9984H224.001V56.0734H227.801ZM234.676 44.4984H236.251V57.3984H234.676V44.4984ZM87.3673 73.4984H88.9423V78.9734H96.2673V73.4984H97.8423V86.3984H96.2673V80.2984H88.9423V86.3984H87.3673V73.4984ZM104.445 86.7484C103.845 86.7484 103.278 86.6734 102.745 86.5234C102.228 86.3901 101.77 86.1734 101.37 85.8734C100.987 85.5568 100.678 85.1651 100.445 84.6984C100.228 84.2151 100.12 83.6484 100.12 82.9984C100.12 82.0984 100.32 81.3984 100.72 80.8984C101.12 80.3818 101.645 79.9901 102.295 79.7234C102.962 79.4568 103.703 79.2734 104.52 79.1734C105.353 79.0568 106.195 78.9484 107.045 78.8484C107.362 78.8151 107.645 78.7734 107.895 78.7234C108.162 78.6734 108.378 78.5901 108.545 78.4734C108.712 78.3401 108.837 78.1651 108.92 77.9484C109.02 77.7318 109.07 77.4484 109.07 77.0984C109.07 76.5651 108.978 76.1318 108.795 75.7984C108.628 75.4484 108.387 75.1734 108.07 74.9734C107.77 74.7734 107.412 74.6401 106.995 74.5734C106.595 74.4901 106.162 74.4484 105.695 74.4484C104.695 74.4484 103.878 74.6901 103.245 75.1734C102.612 75.6401 102.278 76.3984 102.245 77.4484H100.67C100.77 75.9318 101.287 74.8318 102.22 74.1484C103.17 73.4651 104.395 73.1234 105.895 73.1234C106.462 73.1234 107.028 73.1818 107.595 73.2984C108.162 73.3984 108.67 73.5984 109.12 73.8984C109.57 74.1984 109.937 74.6234 110.22 75.1734C110.503 75.7068 110.645 76.4068 110.645 77.2734V84.1234C110.645 84.7568 110.953 85.0734 111.57 85.0734C111.77 85.0734 111.937 85.0401 112.07 84.9734V86.2984C111.887 86.3318 111.72 86.3568 111.57 86.3734C111.437 86.3901 111.262 86.3984 111.045 86.3984C110.645 86.3984 110.32 86.3484 110.07 86.2484C109.837 86.1318 109.653 85.9734 109.52 85.7734C109.387 85.5734 109.295 85.3401 109.245 85.0734C109.212 84.7901 109.195 84.4818 109.195 84.1484H109.145C108.862 84.5651 108.57 84.9401 108.27 85.2734C107.987 85.5901 107.662 85.8568 107.295 86.0734C106.945 86.2901 106.537 86.4568 106.07 86.5734C105.603 86.6901 105.062 86.7484 104.445 86.7484ZM104.57 85.4484C105.17 85.4484 105.745 85.3568 106.295 85.1734C106.845 84.9901 107.32 84.7234 107.72 84.3734C108.137 84.0234 108.462 83.5984 108.695 83.0984C108.945 82.5984 109.07 82.0318 109.07 81.3984V79.3484H109.02C108.92 79.5318 108.728 79.6651 108.445 79.7484C108.162 79.8318 107.912 79.8901 107.695 79.9234C107.028 80.0401 106.337 80.1484 105.62 80.2484C104.92 80.3318 104.278 80.4651 103.695 80.6484C103.112 80.8318 102.628 81.0984 102.245 81.4484C101.878 81.7984 101.695 82.2818 101.695 82.8984C101.695 83.2984 101.77 83.6568 101.92 83.9734C102.087 84.2734 102.303 84.5401 102.57 84.7734C102.837 84.9901 103.137 85.1568 103.47 85.2734C103.82 85.3901 104.187 85.4484 104.57 85.4484ZM120.742 73.4984H122.317V80.1234L129.467 73.4984H131.567L126.092 78.5484L131.892 86.3984H129.917L124.942 79.6234L122.317 82.0484V86.3984H120.742V73.4984ZM136.818 86.7484C136.218 86.7484 135.651 86.6734 135.118 86.5234C134.601 86.3901 134.143 86.1734 133.743 85.8734C133.36 85.5568 133.051 85.1651 132.818 84.6984C132.601 84.2151 132.493 83.6484 132.493 82.9984C132.493 82.0984 132.693 81.3984 133.093 80.8984C133.493 80.3818 134.018 79.9901 134.668 79.7234C135.335 79.4568 136.076 79.2734 136.893 79.1734C137.726 79.0568 138.568 78.9484 139.418 78.8484C139.735 78.8151 140.018 78.7734 140.268 78.7234C140.535 78.6734 140.751 78.5901 140.918 78.4734C141.085 78.3401 141.21 78.1651 141.293 77.9484C141.393 77.7318 141.443 77.4484 141.443 77.0984C141.443 76.5651 141.351 76.1318 141.168 75.7984C141.001 75.4484 140.76 75.1734 140.443 74.9734C140.143 74.7734 139.785 74.6401 139.368 74.5734C138.968 74.4901 138.535 74.4484 138.068 74.4484C137.068 74.4484 136.251 74.6901 135.618 75.1734C134.985 75.6401 134.651 76.3984 134.618 77.4484H133.043C133.143 75.9318 133.66 74.8318 134.593 74.1484C135.543 73.4651 136.768 73.1234 138.268 73.1234C138.835 73.1234 139.401 73.1818 139.968 73.2984C140.535 73.3984 141.043 73.5984 141.493 73.8984C141.943 74.1984 142.31 74.6234 142.593 75.1734C142.876 75.7068 143.018 76.4068 143.018 77.2734V84.1234C143.018 84.7568 143.326 85.0734 143.943 85.0734C144.143 85.0734 144.31 85.0401 144.443 84.9734V86.2984C144.26 86.3318 144.093 86.3568 143.943 86.3734C143.81 86.3901 143.635 86.3984 143.418 86.3984C143.018 86.3984 142.693 86.3484 142.443 86.2484C142.21 86.1318 142.026 85.9734 141.893 85.7734C141.76 85.5734 141.668 85.3401 141.618 85.0734C141.585 84.7901 141.568 84.4818 141.568 84.1484H141.518C141.235 84.5651 140.943 84.9401 140.643 85.2734C140.36 85.5901 140.035 85.8568 139.668 86.0734C139.318 86.2901 138.91 86.4568 138.443 86.5734C137.976 86.6901 137.435 86.7484 136.818 86.7484ZM136.943 85.4484C137.543 85.4484 138.118 85.3568 138.668 85.1734C139.218 84.9901 139.693 84.7234 140.093 84.3734C140.51 84.0234 140.835 83.5984 141.068 83.0984C141.318 82.5984 141.443 82.0318 141.443 81.3984V79.3484H141.393C141.293 79.5318 141.101 79.6651 140.818 79.7484C140.535 79.8318 140.285 79.8901 140.068 79.9234C139.401 80.0401 138.71 80.1484 137.993 80.2484C137.293 80.3318 136.651 80.4651 136.068 80.6484C135.485 80.8318 135.001 81.0984 134.618 81.4484C134.251 81.7984 134.068 82.2818 134.068 82.8984C134.068 83.2984 134.143 83.6568 134.293 83.9734C134.46 84.2734 134.676 84.5401 134.943 84.7734C135.21 84.9901 135.51 85.1568 135.843 85.2734C136.193 85.3901 136.56 85.4484 136.943 85.4484ZM150.057 78.8984L145.032 73.4984H147.157L153.082 80.0984V73.4984H154.657V80.0734L160.582 73.4984H162.707L157.682 78.8984L163.257 86.3984H161.332L156.582 79.9484L154.657 81.9484V86.3984H153.082V81.9484L151.157 79.9484L146.407 86.3984H144.482L150.057 78.8984ZM163.24 85.0734H164.765C165.381 83.9234 165.831 82.5568 166.115 80.9734C166.398 79.3901 166.54 77.4651 166.54 75.1984V73.4984H175.215V85.0734H177.14V90.4984H175.565V86.3984H164.815V90.4984H163.24V85.0734ZM173.64 85.0734V74.8234H168.065V75.7234C168.065 77.8901 167.906 79.7568 167.59 81.3234C167.273 82.8734 166.873 84.1234 166.39 85.0734H173.64ZM184.297 86.7484C183.314 86.7484 182.439 86.5734 181.672 86.2234C180.922 85.8568 180.289 85.3651 179.772 84.7484C179.256 84.1318 178.864 83.4151 178.597 82.5984C178.331 81.7651 178.197 80.8818 178.197 79.9484C178.197 79.0318 178.331 78.1568 178.597 77.3234C178.864 76.4901 179.256 75.7651 179.772 75.1484C180.289 74.5318 180.922 74.0401 181.672 73.6734C182.439 73.3068 183.314 73.1234 184.297 73.1234C185.281 73.1234 186.147 73.3068 186.897 73.6734C187.664 74.0401 188.306 74.5318 188.822 75.1484C189.339 75.7651 189.731 76.4901 189.997 77.3234C190.264 78.1568 190.397 79.0318 190.397 79.9484C190.397 80.8818 190.264 81.7651 189.997 82.5984C189.731 83.4151 189.339 84.1318 188.822 84.7484C188.306 85.3651 187.664 85.8568 186.897 86.2234C186.147 86.5734 185.281 86.7484 184.297 86.7484ZM184.297 85.4484C185.047 85.4484 185.706 85.2901 186.272 84.9734C186.839 84.6568 187.306 84.2401 187.672 83.7234C188.056 83.2068 188.339 82.6234 188.522 81.9734C188.722 81.3068 188.822 80.6318 188.822 79.9484C188.822 79.2651 188.722 78.5984 188.522 77.9484C188.339 77.2818 188.056 76.6901 187.672 76.1734C187.306 75.6568 186.839 75.2401 186.272 74.9234C185.706 74.6068 185.047 74.4484 184.297 74.4484C183.547 74.4484 182.889 74.6068 182.322 74.9234C181.756 75.2401 181.281 75.6568 180.897 76.1734C180.531 76.6901 180.247 77.2818 180.047 77.9484C179.864 78.5984 179.772 79.2651 179.772 79.9484C179.772 80.6318 179.864 81.3068 180.047 81.9734C180.247 82.6234 180.531 83.2068 180.897 83.7234C181.281 84.2401 181.756 84.6568 182.322 84.9734C182.889 85.2901 183.547 85.4484 184.297 85.4484ZM197.914 86.7484C196.881 86.7484 195.997 86.5734 195.264 86.2234C194.531 85.8568 193.931 85.3651 193.464 84.7484C192.997 84.1151 192.647 83.3901 192.414 82.5734C192.197 81.7568 192.089 80.8818 192.089 79.9484C192.089 79.0984 192.197 78.2651 192.414 77.4484C192.647 76.6318 192.997 75.9068 193.464 75.2734C193.931 74.6234 194.531 74.1068 195.264 73.7234C195.997 73.3234 196.881 73.1234 197.914 73.1234C198.947 73.1234 199.831 73.3318 200.564 73.7484C201.297 74.1651 201.889 74.7151 202.339 75.3984C202.806 76.0651 203.139 76.8401 203.339 77.7234C203.539 78.5901 203.622 79.4734 203.589 80.3734H193.664C193.664 80.9568 193.739 81.5484 193.889 82.1484C194.056 82.7484 194.314 83.2901 194.664 83.7734C195.014 84.2568 195.456 84.6568 195.989 84.9734C196.522 85.2901 197.164 85.4484 197.914 85.4484C199.064 85.4484 199.964 85.1484 200.614 84.5484C201.264 83.9484 201.714 83.1484 201.964 82.1484H203.539C203.206 83.6151 202.589 84.7484 201.689 85.5484C200.806 86.3484 199.547 86.7484 197.914 86.7484ZM202.014 79.0484C201.997 78.4484 201.889 77.8734 201.689 77.3234C201.506 76.7734 201.239 76.2901 200.889 75.8734C200.539 75.4401 200.114 75.0984 199.614 74.8484C199.114 74.5818 198.547 74.4484 197.914 74.4484C197.264 74.4484 196.689 74.5818 196.189 74.8484C195.689 75.0984 195.264 75.4401 194.914 75.8734C194.564 76.2901 194.281 76.7818 194.064 77.3484C193.864 77.8984 193.731 78.4651 193.664 79.0484H202.014ZM213.686 91.1484C213.369 91.1318 213.119 91.1151 212.936 91.0984C212.769 91.0984 212.619 91.0734 212.486 91.0234V89.6984C212.669 89.7318 212.844 89.7568 213.011 89.7734C213.194 89.8068 213.378 89.8234 213.561 89.8234C213.911 89.8234 214.194 89.7734 214.411 89.6734C214.644 89.5734 214.844 89.4318 215.011 89.2484C215.178 89.0818 215.319 88.8734 215.436 88.6234C215.553 88.3734 215.678 88.0984 215.811 87.7984L216.361 86.3484L211.211 73.4984H212.886L217.136 84.4984L221.111 73.4984H222.686L217.086 88.3484C216.853 88.8984 216.636 89.3484 216.436 89.6984C216.236 90.0651 216.011 90.3484 215.761 90.5484C215.528 90.7651 215.244 90.9151 214.911 90.9984C214.594 91.0984 214.186 91.1484 213.686 91.1484ZM224.233 73.4984H225.808V80.1234L232.958 73.4984H235.058L229.583 78.5484L235.383 86.3984H233.408L228.433 79.6234L225.808 82.0484V86.3984H224.233V73.4984ZM236.684 73.4984H238.134V75.9484H238.184C238.551 75.0484 239.143 74.3568 239.959 73.8734C240.793 73.3734 241.734 73.1234 242.784 73.1234C243.768 73.1234 244.618 73.3068 245.334 73.6734C246.068 74.0401 246.676 74.5401 247.159 75.1734C247.643 75.7901 248.001 76.5151 248.234 77.3484C248.468 78.1651 248.584 79.0318 248.584 79.9484C248.584 80.8818 248.468 81.7568 248.234 82.5734C248.001 83.3901 247.643 84.1151 247.159 84.7484C246.676 85.3651 246.068 85.8568 245.334 86.2234C244.618 86.5734 243.768 86.7484 242.784 86.7484C242.301 86.7484 241.826 86.6901 241.359 86.5734C240.909 86.4568 240.484 86.2818 240.084 86.0484C239.684 85.8151 239.326 85.5234 239.009 85.1734C238.709 84.8234 238.476 84.4151 238.309 83.9484H238.259V91.1484H236.684V73.4984ZM242.784 85.4484C243.534 85.4484 244.176 85.2901 244.709 84.9734C245.243 84.6401 245.676 84.2151 246.009 83.6984C246.359 83.1818 246.609 82.5984 246.759 81.9484C246.926 81.2818 247.009 80.6151 247.009 79.9484C247.009 79.2818 246.926 78.6234 246.759 77.9734C246.609 77.3068 246.359 76.7151 246.009 76.1984C245.676 75.6818 245.243 75.2651 244.709 74.9484C244.176 74.6151 243.534 74.4484 242.784 74.4484C241.901 74.4484 241.168 74.5984 240.584 74.8984C240.018 75.1984 239.559 75.5984 239.209 76.0984C238.859 76.5984 238.609 77.1818 238.459 77.8484C238.326 78.5151 238.259 79.2151 238.259 79.9484C238.259 80.6151 238.334 81.2818 238.484 81.9484C238.651 82.5984 238.909 83.1818 239.259 83.6984C239.626 84.2151 240.093 84.6401 240.659 84.9734C241.243 85.2901 241.951 85.4484 242.784 85.4484ZM254.665 86.7484C254.065 86.7484 253.498 86.6734 252.965 86.5234C252.448 86.3901 251.99 86.1734 251.59 85.8734C251.206 85.5568 250.898 85.1651 250.665 84.6984C250.448 84.2151 250.34 83.6484 250.34 82.9984C250.34 82.0984 250.54 81.3984 250.94 80.8984C251.34 80.3818 251.865 79.9901 252.515 79.7234C253.181 79.4568 253.923 79.2734 254.74 79.1734C255.573 79.0568 256.415 78.9484 257.265 78.8484C257.581 78.8151 257.865 78.7734 258.115 78.7234C258.381 78.6734 258.598 78.5901 258.765 78.4734C258.931 78.3401 259.056 78.1651 259.14 77.9484C259.24 77.7318 259.29 77.4484 259.29 77.0984C259.29 76.5651 259.198 76.1318 259.015 75.7984C258.848 75.4484 258.606 75.1734 258.29 74.9734C257.99 74.7734 257.631 74.6401 257.215 74.5734C256.815 74.4901 256.381 74.4484 255.915 74.4484C254.915 74.4484 254.098 74.6901 253.465 75.1734C252.831 75.6401 252.498 76.3984 252.465 77.4484H250.89C250.99 75.9318 251.506 74.8318 252.44 74.1484C253.39 73.4651 254.615 73.1234 256.115 73.1234C256.681 73.1234 257.248 73.1818 257.815 73.2984C258.381 73.3984 258.89 73.5984 259.34 73.8984C259.79 74.1984 260.156 74.6234 260.44 75.1734C260.723 75.7068 260.865 76.4068 260.865 77.2734V84.1234C260.865 84.7568 261.173 85.0734 261.79 85.0734C261.99 85.0734 262.156 85.0401 262.29 84.9734V86.2984C262.106 86.3318 261.94 86.3568 261.79 86.3734C261.656 86.3901 261.481 86.3984 261.265 86.3984C260.865 86.3984 260.54 86.3484 260.29 86.2484C260.056 86.1318 259.873 85.9734 259.74 85.7734C259.606 85.5734 259.515 85.3401 259.465 85.0734C259.431 84.7901 259.415 84.4818 259.415 84.1484H259.365C259.081 84.5651 258.79 84.9401 258.49 85.2734C258.206 85.5901 257.881 85.8568 257.515 86.0734C257.165 86.2901 256.756 86.4568 256.29 86.5734C255.823 86.6901 255.281 86.7484 254.665 86.7484ZM254.79 85.4484C255.39 85.4484 255.965 85.3568 256.515 85.1734C257.065 84.9901 257.54 84.7234 257.94 84.3734C258.356 84.0234 258.681 83.5984 258.915 83.0984C259.165 82.5984 259.29 82.0318 259.29 81.3984V79.3484H259.24C259.14 79.5318 258.948 79.6651 258.665 79.7484C258.381 79.8318 258.131 79.8901 257.915 79.9234C257.248 80.0401 256.556 80.1484 255.84 80.2484C255.14 80.3318 254.498 80.4651 253.915 80.6484C253.331 80.8318 252.848 81.0984 252.465 81.4484C252.098 81.7984 251.915 82.2818 251.915 82.8984C251.915 83.2984 251.99 83.6568 252.14 83.9734C252.306 84.2734 252.523 84.5401 252.79 84.7734C253.056 84.9901 253.356 85.1568 253.69 85.2734C254.04 85.3901 254.406 85.4484 254.79 85.4484ZM263.979 73.4984H265.554V85.0734H271.504V73.4984H273.079V85.0734H279.029V73.4984H280.604V86.3984H263.979V73.4984ZM288.759 86.7484C287.725 86.7484 286.842 86.5734 286.109 86.2234C285.375 85.8568 284.775 85.3651 284.309 84.7484C283.842 84.1151 283.492 83.3901 283.259 82.5734C283.042 81.7568 282.934 80.8818 282.934 79.9484C282.934 79.0984 283.042 78.2651 283.259 77.4484C283.492 76.6318 283.842 75.9068 284.309 75.2734C284.775 74.6234 285.375 74.1068 286.109 73.7234C286.842 73.3234 287.725 73.1234 288.759 73.1234C289.792 73.1234 290.675 73.3318 291.409 73.7484C292.142 74.1651 292.734 74.7151 293.184 75.3984C293.65 76.0651 293.984 76.8401 294.184 77.7234C294.384 78.5901 294.467 79.4734 294.434 80.3734H284.509C284.509 80.9568 284.584 81.5484 284.734 82.1484C284.9 82.7484 285.159 83.2901 285.509 83.7734C285.859 84.2568 286.3 84.6568 286.834 84.9734C287.367 85.2901 288.009 85.4484 288.759 85.4484C289.909 85.4484 290.809 85.1484 291.459 84.5484C292.109 83.9484 292.559 83.1484 292.809 82.1484H294.384C294.05 83.6151 293.434 84.7484 292.534 85.5484C291.65 86.3484 290.392 86.7484 288.759 86.7484ZM292.859 79.0484C292.842 78.4484 292.734 77.8734 292.534 77.3234C292.35 76.7734 292.084 76.2901 291.734 75.8734C291.384 75.4401 290.959 75.0984 290.459 74.8484C289.959 74.5818 289.392 74.4484 288.759 74.4484C288.109 74.4484 287.534 74.5818 287.034 74.8484C286.534 75.0984 286.109 75.4401 285.759 75.8734C285.409 76.2901 285.125 76.7818 284.909 77.3484C284.709 77.8984 284.575 78.4651 284.509 79.0484H292.859ZM296.523 73.4984H298.098V78.9734H305.423V73.4984H306.998V86.3984H305.423V80.2984H298.098V86.3984H296.523V73.4984ZM309.95 73.4984H311.525V84.5484L318.65 73.4984H320.6V86.3984H319.025V75.3484L311.9 86.3984H309.95V73.4984ZM328.749 86.7484C327.716 86.7484 326.832 86.5734 326.099 86.2234C325.366 85.8568 324.766 85.3651 324.299 84.7484C323.832 84.1151 323.482 83.3901 323.249 82.5734C323.032 81.7568 322.924 80.8818 322.924 79.9484C322.924 79.0984 323.032 78.2651 323.249 77.4484C323.482 76.6318 323.832 75.9068 324.299 75.2734C324.766 74.6234 325.366 74.1068 326.099 73.7234C326.832 73.3234 327.716 73.1234 328.749 73.1234C329.782 73.1234 330.666 73.3318 331.399 73.7484C332.132 74.1651 332.724 74.7151 333.174 75.3984C333.641 76.0651 333.974 76.8401 334.174 77.7234C334.374 78.5901 334.457 79.4734 334.424 80.3734H324.499C324.499 80.9568 324.574 81.5484 324.724 82.1484C324.891 82.7484 325.149 83.2901 325.499 83.7734C325.849 84.2568 326.291 84.6568 326.824 84.9734C327.357 85.2901 327.999 85.4484 328.749 85.4484C329.899 85.4484 330.799 85.1484 331.449 84.5484C332.099 83.9484 332.549 83.1484 332.799 82.1484H334.374C334.041 83.6151 333.424 84.7484 332.524 85.5484C331.641 86.3484 330.382 86.7484 328.749 86.7484ZM332.849 79.0484C332.832 78.4484 332.724 77.8734 332.524 77.3234C332.341 76.7734 332.074 76.2901 331.724 75.8734C331.374 75.4401 330.949 75.0984 330.449 74.8484C329.949 74.5818 329.382 74.4484 328.749 74.4484C328.099 74.4484 327.524 74.5818 327.024 74.8484C326.524 75.0984 326.099 75.4401 325.749 75.8734C325.399 76.2901 325.116 76.7818 324.899 77.3484C324.699 77.8984 324.566 78.4651 324.499 79.0484H332.849Z" fill="black"/>
</svg>
