<svg width="363" height="99" viewBox="0 0 363 99" fill="none" xmlns="http://www.w3.org/2000/svg">
<rect x="1.60248" y="2.25" width="359.179" height="94.52" rx="28.5" fill="black" stroke="black" stroke-width="3"/>
<path d="M89.9191 63.528C87.8471 63.528 86.0217 63.158 84.4431 62.418C82.8891 61.6533 81.5941 60.642 80.5581 59.384C79.5221 58.126 78.7451 56.6707 78.2271 55.018C77.7091 53.3653 77.4501 51.6263 77.4501 49.801C77.4501 48.0003 77.7091 46.2737 78.2271 44.621C78.7451 42.9437 79.5221 41.476 80.5581 40.218C81.5941 38.9353 82.8891 37.924 84.4431 37.184C86.0217 36.4193 87.8471 36.037 89.9191 36.037C91.9911 36.037 93.8041 36.4193 95.3581 37.184C96.9121 37.924 98.2071 38.9353 99.2431 40.218C100.279 41.476 101.056 42.9437 101.574 44.621C102.092 46.2737 102.351 48.0003 102.351 49.801C102.351 51.6263 102.092 53.3653 101.574 55.018C101.056 56.6707 100.279 58.126 99.2431 59.384C98.2071 60.642 96.9121 61.6533 95.3581 62.418C93.8041 63.158 91.9911 63.528 89.9191 63.528ZM89.9191 61.419C91.6457 61.419 93.1381 61.086 94.3961 60.42C95.6541 59.754 96.6777 58.8783 97.4671 57.793C98.2811 56.683 98.8731 55.4373 99.2431 54.056C99.6377 52.6747 99.8351 51.2563 99.8351 49.801C99.8351 48.3703 99.6377 46.9643 99.2431 45.583C98.8731 44.177 98.2811 42.9313 97.4671 41.846C96.6777 40.736 95.6541 39.848 94.3961 39.182C93.1381 38.516 91.6457 38.183 89.9191 38.183C88.1677 38.183 86.6631 38.516 85.4051 39.182C84.1471 39.848 83.1111 40.736 82.2971 41.846C81.5077 42.9313 80.9157 44.177 80.5211 45.583C80.1511 46.9643 79.9661 48.3703 79.9661 49.801C79.9661 51.2563 80.1511 52.6747 80.5211 54.056C80.9157 55.4373 81.5077 56.683 82.2971 57.793C83.1111 58.8783 84.1471 59.754 85.4051 60.42C86.6631 61.086 88.1677 61.419 89.9191 61.419ZM112.645 38.738H103.469V36.592H124.374V38.738H115.161V63.01H112.645V38.738ZM126.84 36.592H147.19V63.01H144.674V38.738H129.356V63.01H126.84V36.592ZM152.531 36.592H164.26C165.444 36.592 166.517 36.7647 167.479 37.11C168.441 37.4307 169.267 37.924 169.958 38.59C170.649 39.2313 171.179 40.0207 171.549 40.958C171.919 41.8953 172.104 42.956 172.104 44.14C172.104 45.324 171.919 46.3847 171.549 47.322C171.179 48.2593 170.649 49.061 169.958 49.727C169.267 50.3683 168.441 50.8617 167.479 51.207C166.517 51.5277 165.444 51.688 164.26 51.688H155.047V63.01H152.531V36.592ZM163.705 49.542C165.456 49.542 166.875 49.098 167.96 48.21C169.045 47.322 169.588 45.9653 169.588 44.14C169.588 42.3147 169.045 40.958 167.96 40.07C166.875 39.182 165.456 38.738 163.705 38.738H155.047V49.542H163.705ZM183.57 36.592H186.382L196.742 63.01H194.041L190.822 54.796H178.797L175.615 63.01H172.951L183.57 36.592ZM189.971 52.65L184.865 39.108L179.574 52.65H189.971ZM199.142 36.592H210.316C211.426 36.592 212.487 36.703 213.498 36.925C214.534 37.1223 215.435 37.48 216.199 37.998C216.989 38.4913 217.618 39.1573 218.086 39.996C218.555 40.81 218.789 41.8337 218.789 43.067C218.789 43.7577 218.678 44.436 218.456 45.102C218.234 45.7433 217.914 46.3353 217.494 46.878C217.1 47.396 216.619 47.84 216.051 48.21C215.509 48.58 214.892 48.839 214.201 48.987V49.061C215.903 49.283 217.26 49.986 218.271 51.17C219.283 52.3293 219.788 53.7723 219.788 55.499C219.788 56.1403 219.69 56.8927 219.492 57.756C219.32 58.5947 218.913 59.4087 218.271 60.198C217.63 60.9873 216.68 61.6533 215.422 62.196C214.164 62.7387 212.462 63.01 210.316 63.01H199.142V36.592ZM210.316 60.864C211.254 60.864 212.142 60.79 212.98 60.642C213.819 60.4693 214.559 60.1733 215.2 59.754C215.842 59.3347 216.347 58.7797 216.717 58.089C217.087 57.3983 217.272 56.5103 217.272 55.425C217.272 53.723 216.668 52.4527 215.459 51.614C214.275 50.7507 212.561 50.319 210.316 50.319H201.658V60.864H210.316ZM210.316 48.173C211.303 48.173 212.166 48.062 212.906 47.84C213.671 47.5933 214.3 47.2727 214.793 46.878C215.287 46.4587 215.657 45.9777 215.903 45.435C216.15 44.8923 216.273 44.3127 216.273 43.696C216.273 40.3907 214.288 38.738 210.316 38.738H201.658V48.173H210.316ZM223.821 36.592H226.337V60.309L241.507 36.592H244.763V63.01H242.247V39.293L227.077 63.01H223.821V36.592ZM256.453 38.738H247.277V36.592H268.182V38.738H258.969V63.01H256.453V38.738ZM270.649 36.592H273.165V47.766H282.378C284.845 47.766 286.769 48.4443 288.15 49.801C289.531 51.1577 290.222 53.02 290.222 55.388C290.222 57.756 289.531 59.6183 288.15 60.975C286.769 62.3317 284.845 63.01 282.378 63.01H270.649V36.592ZM281.823 60.864C283.673 60.864 285.116 60.383 286.152 59.421C287.188 58.4343 287.706 57.09 287.706 55.388C287.706 53.686 287.188 52.354 286.152 51.392C285.116 50.4053 283.673 49.912 281.823 49.912H273.165V60.864H281.823Z" fill="white"/>
</svg>
