<svg width="405" height="98" viewBox="0 0 405 98" fill="none" xmlns="http://www.w3.org/2000/svg">
<rect x="2.33765" y="1.68701" width="401.127" height="94.52" rx="28.5" fill="black" stroke="black" stroke-width="3"/>
<path d="M56.1437 48.386C56.1437 49.4683 56.0354 50.5507 55.819 51.6331C55.6025 52.704 55.2721 53.7294 54.8278 54.7092C54.3834 55.6777 53.8252 56.5834 53.153 57.4265C52.4921 58.2582 51.706 58.9874 50.7946 59.614C49.8831 60.2292 48.852 60.7078 47.7013 61.0496C46.562 61.4028 45.2973 61.5793 43.9073 61.5793C42.5174 61.5793 41.247 61.4028 40.0963 61.0496C38.9456 60.7078 37.9145 60.2292 37.0031 59.614C36.103 58.9874 35.3169 58.2582 34.6447 57.4265C33.9725 56.5834 33.4142 55.6777 32.9698 54.7092C32.5255 53.7294 32.1951 52.704 31.9786 51.6331C31.7622 50.5507 31.6539 49.4683 31.6539 48.386C31.6539 46.4377 31.9274 44.6547 32.4742 43.0369C33.0325 41.419 33.8357 40.0291 34.8839 38.8669C35.9321 37.7048 37.2138 36.8048 38.7291 36.1667C40.2444 35.5173 41.9705 35.1926 43.9073 35.1926C45.8328 35.1926 47.5532 35.5173 49.0685 36.1667C50.5952 36.8048 51.8769 37.7048 52.9137 38.8669C53.9619 40.0291 54.7594 41.419 55.3063 43.0369C55.8645 44.6547 56.1437 46.4377 56.1437 48.386ZM52.7941 48.386C52.7941 46.8935 52.5947 45.5206 52.1959 44.2673C51.7972 43.0027 51.2161 41.9203 50.4528 41.0203C49.7008 40.1088 48.7723 39.4024 47.6671 38.9011C46.562 38.3884 45.3087 38.1321 43.9073 38.1321C42.4946 38.1321 41.2356 38.3884 40.1305 38.9011C39.0253 39.4024 38.0911 40.1088 37.3278 41.0203C36.5758 41.9203 36.0004 43.0027 35.6017 44.2673C35.2029 45.5206 35.0035 46.8935 35.0035 48.386C35.0035 49.9127 35.1858 51.3083 35.5504 52.573C35.915 53.8263 36.4676 54.9029 37.2081 55.803C37.9487 56.703 38.8715 57.4037 39.9767 57.905C41.0932 58.3949 42.4034 58.6399 43.9073 58.6399C45.3999 58.6399 46.7044 58.3949 47.8209 57.905C48.9375 57.4037 49.8603 56.703 50.5895 55.803C51.33 54.9029 51.8826 53.8263 52.2472 52.573C52.6118 51.3083 52.7941 49.9127 52.7941 48.386ZM62.2448 48.3518C62.2448 49.9241 62.4441 51.3482 62.8429 52.6243C63.2417 53.8889 63.7999 54.9656 64.5177 55.8542C65.2469 56.7429 66.1184 57.4322 67.1324 57.9221C68.1578 58.4006 69.2858 58.6399 70.5162 58.6399C71.5872 58.6399 72.5442 58.4462 73.3873 58.0588C74.2418 57.6715 74.9767 57.1645 75.5919 56.5378C76.2072 55.8998 76.7028 55.182 77.0787 54.3845C77.4547 53.587 77.7054 52.7781 77.8307 51.9578H81.0778C81.0094 52.6869 80.8499 53.4332 80.5992 54.1965C80.36 54.9485 80.0296 55.6833 79.608 56.4011C79.1979 57.1075 78.7023 57.7797 78.1212 58.4177C77.5402 59.0444 76.868 59.5912 76.1046 60.0583C75.3527 60.5255 74.5096 60.8958 73.5753 61.1692C72.6411 61.4426 71.6214 61.5793 70.5162 61.5793C69.7529 61.5793 68.9326 61.4996 68.0553 61.3401C67.1894 61.1806 66.3235 60.9128 65.4576 60.5369C64.6031 60.1609 63.7771 59.6596 62.9796 59.033C62.1935 58.3949 61.4985 57.5974 60.8947 56.6404C60.2908 55.6833 59.8066 54.5554 59.442 53.2566C59.0774 51.9464 58.8951 50.4254 58.8951 48.6936C58.8951 46.996 59.0546 45.4807 59.3737 44.1477C59.7041 42.8147 60.1484 41.6526 60.7067 40.6614C61.2763 39.6588 61.9371 38.81 62.6891 38.115C63.4524 37.42 64.267 36.856 65.1329 36.4231C65.9988 35.9902 66.8989 35.6768 67.8331 35.4832C68.7674 35.2895 69.6959 35.1926 70.6188 35.1926C71.7581 35.1926 72.7949 35.3123 73.7291 35.5515C74.6748 35.7794 75.5179 36.0984 76.2584 36.5085C77.0104 36.9073 77.6655 37.3744 78.2238 37.9099C78.782 38.4454 79.2491 39.0151 79.6251 39.6189C80.0125 40.2113 80.3087 40.8209 80.5138 41.4475C80.7303 42.0741 80.8613 42.6837 80.9069 43.2761H77.6256C77.4091 42.4672 77.0901 41.7437 76.6686 41.1057C76.247 40.4677 75.7343 39.9322 75.1305 39.4993C74.538 39.0549 73.8658 38.7188 73.1139 38.491C72.3733 38.2517 71.5758 38.1321 70.7213 38.1321C69.4339 38.1321 68.2661 38.3713 67.2179 38.8499C66.1811 39.3284 65.2924 40.012 64.5519 40.9006C63.8113 41.7893 63.2417 42.866 62.8429 44.1306C62.4441 45.3839 62.2448 46.7909 62.2448 48.3518ZM83.3165 35.825H103.756V38.7644H95.2111V60.947H91.8444V38.7644H83.3165V35.825ZM120.111 50.5906L116.283 39.4138L112.045 50.5906H120.111ZM104.833 60.947L114.249 35.4319H118.334L127.443 60.947H123.717L121.068 53.2566H111.19L108.387 60.947H104.833ZM130.57 35.825H139.559C140.55 35.825 141.416 35.8534 142.157 35.9104C142.897 35.956 143.592 36.0642 144.242 36.2351C144.857 36.406 145.432 36.6567 145.968 36.9871C146.515 37.3061 146.993 37.7162 147.403 38.2175C147.814 38.7074 148.133 39.2828 148.36 39.9436C148.6 40.593 148.719 41.3279 148.719 42.1482C148.719 42.5811 148.662 43.0483 148.548 43.5496C148.435 44.0509 148.247 44.5465 147.984 45.0364C147.722 45.5149 147.375 45.9649 146.942 46.3865C146.52 46.7966 145.996 47.1327 145.37 47.3948C145.882 47.5657 146.407 47.8049 146.942 48.1125C147.477 48.4202 147.962 48.8189 148.395 49.3088C148.839 49.7874 149.204 50.3741 149.488 51.0691C149.773 51.7527 149.916 52.573 149.916 53.53C149.916 54.0769 149.847 54.6466 149.711 55.239C149.585 55.8201 149.374 56.384 149.078 56.9309C148.793 57.4778 148.423 57.9962 147.967 58.4861C147.512 58.976 146.959 59.4032 146.31 59.7678C145.66 60.1324 144.908 60.4229 144.054 60.6394C143.211 60.8445 142.248 60.947 141.166 60.947H130.57V35.825ZM140.67 58.0076C141.764 58.0076 142.681 57.905 143.422 57.7C144.173 57.4835 144.777 57.1873 145.233 56.8113C145.7 56.4239 146.036 55.9625 146.241 55.427C146.446 54.8915 146.549 54.2934 146.549 53.6326C146.549 52.9718 146.446 52.3736 146.241 51.8381C146.036 51.3027 145.7 50.8469 145.233 50.4709C144.777 50.0836 144.173 49.7874 143.422 49.5823C142.681 49.3658 141.764 49.2576 140.67 49.2576H133.92V58.0076H140.67ZM140.192 46.5232C141.297 46.5232 142.185 46.4207 142.858 46.2156C143.541 45.9991 144.065 45.7143 144.43 45.3611C144.806 44.9965 145.056 44.5693 145.182 44.0793C145.307 43.5894 145.37 43.0653 145.37 42.5071C145.37 41.9146 145.279 41.3905 145.096 40.9348C144.925 40.4677 144.635 40.0746 144.225 39.7556C143.815 39.4366 143.279 39.1917 142.618 39.0208C141.957 38.8499 141.149 38.7644 140.192 38.7644H133.92V46.5232H140.192ZM153.915 35.825H157.264V56.1448H157.333L170.116 35.825H173.995V60.947H170.629V40.5076H170.56L157.794 60.947H153.915V35.825ZM177.106 35.825H197.545V38.7644H189V60.947H185.633V38.7644H177.106V35.825ZM200.604 35.825H203.971V46.1814H210.653C212.157 46.1814 213.461 46.3523 214.567 46.6941C215.672 47.0359 216.583 47.5258 217.301 48.1638C218.019 48.8018 218.554 49.5766 218.907 50.488C219.261 51.3995 219.437 52.4249 219.437 53.5642C219.437 54.6807 219.261 55.6947 218.907 56.6062C218.554 57.5063 218.036 58.281 217.352 58.9304C216.68 59.5684 215.848 60.064 214.857 60.4172C213.877 60.7704 212.755 60.947 211.49 60.947H200.604V35.825ZM211.046 58.0076C211.73 58.0076 212.362 57.9335 212.943 57.7854C213.535 57.6373 214.048 57.3923 214.481 57.0505C214.914 56.6973 215.25 56.2416 215.489 55.6833C215.74 55.1137 215.865 54.4073 215.865 53.5642C215.865 52.7325 215.734 52.0318 215.472 51.4622C215.222 50.8925 214.857 50.4368 214.379 50.095C213.9 49.7418 213.319 49.4911 212.635 49.343C211.952 49.1949 211.177 49.1208 210.311 49.1208H203.971V58.0076H211.046ZM239.552 46.3523H244.081C244.798 46.3523 245.419 46.2441 245.943 46.0276C246.468 45.7997 246.901 45.5035 247.242 45.1389C247.584 44.7629 247.835 44.3471 247.994 43.8914C248.165 43.4242 248.251 42.9514 248.251 42.4729C248.251 41.6868 248.097 41.0203 247.789 40.4734C247.482 39.9265 247.06 39.4822 246.525 39.1404C245.989 38.7872 245.351 38.5308 244.61 38.3713C243.881 38.2118 243.084 38.1321 242.218 38.1321C241.136 38.1321 240.179 38.2859 239.347 38.5935C238.526 38.8897 237.837 39.2942 237.279 39.8069C236.732 40.3082 236.322 40.8949 236.048 41.5671C235.786 42.2393 235.667 42.9457 235.69 43.6863H232.528C232.528 42.6153 232.653 41.6583 232.904 40.8152C233.166 39.9721 233.525 39.2372 233.981 38.6106C234.436 37.984 234.972 37.4542 235.587 37.0212C236.202 36.5883 236.869 36.2351 237.587 35.9617C238.316 35.6882 239.079 35.4945 239.877 35.3806C240.686 35.2553 241.5 35.1926 242.32 35.1926C243.665 35.1926 244.89 35.3407 245.995 35.637C247.111 35.9218 248.068 36.3547 248.866 36.9358C249.663 37.5055 250.284 38.2232 250.729 39.0891C251.173 39.9436 251.395 40.9405 251.395 42.0798C251.395 43.3787 251.139 44.4781 250.626 45.3782C250.125 46.2668 249.253 46.939 248.011 47.3948V47.4802C248.661 47.6625 249.253 47.9303 249.789 48.2834C250.336 48.6252 250.803 49.0582 251.19 49.5823C251.589 50.095 251.896 50.7045 252.113 51.4109C252.341 52.1173 252.455 52.9262 252.455 53.8376C252.455 55.1137 252.176 56.2359 251.617 57.2043C251.059 58.1728 250.313 58.9817 249.379 59.6311C248.444 60.2805 247.356 60.7647 246.114 61.0837C244.884 61.4141 243.596 61.5793 242.252 61.5793C240.817 61.5793 239.478 61.4426 238.236 61.1692C236.994 60.9071 235.9 60.4685 234.955 59.8533C234.02 59.238 233.269 58.4291 232.699 57.4265C232.129 56.4125 231.804 55.1707 231.725 53.7009H235.023C235.08 54.4187 235.245 55.0795 235.519 55.6833C235.804 56.2872 236.219 56.8113 236.766 57.2556C237.325 57.6886 238.025 58.0304 238.868 58.281C239.723 58.5203 240.748 58.6399 241.944 58.6399C243.027 58.6399 244.007 58.5487 244.884 58.3665C245.773 58.1842 246.525 57.8936 247.14 57.4949C247.766 57.0961 248.245 56.5834 248.575 55.9568C248.917 55.3188 249.088 54.5554 249.088 53.6667C249.088 53.0059 248.98 52.4021 248.763 51.8552C248.558 51.3083 248.239 50.8355 247.806 50.4368C247.373 50.038 246.832 49.7304 246.183 49.5139C245.533 49.2861 244.764 49.1721 243.876 49.1721H239.552V46.3523ZM269.75 50.5906L265.922 39.4138L261.683 50.5906H269.75ZM254.471 60.947L263.888 35.4319H267.972L277.081 60.947H273.356L270.707 53.2566H260.829L258.026 60.947H254.471ZM300.016 60.947H296.649V50.2659H290.394C289.699 50.2659 289.112 50.2773 288.634 50.3C288.167 50.3114 287.762 50.3456 287.421 50.4026C287.09 50.4482 286.805 50.5165 286.566 50.6077C286.338 50.6874 286.116 50.7957 285.9 50.9324C285.637 51.1033 285.41 51.297 285.216 51.5134C285.022 51.7185 284.851 51.9806 284.703 52.2996C284.567 52.6186 284.453 53.0116 284.361 53.4788C284.27 53.9459 284.202 54.5212 284.156 55.2048L283.985 57.9392C283.963 58.2696 283.934 58.5715 283.9 58.845C283.866 59.107 283.82 59.352 283.763 59.5798C283.706 59.8077 283.638 60.0356 283.558 60.2634C283.49 60.4799 283.399 60.7078 283.285 60.947H279.422C279.559 60.7989 279.69 60.6337 279.816 60.4514C279.941 60.2691 280.055 60.0527 280.157 59.802C280.26 59.54 280.351 59.2323 280.431 58.8792C280.511 58.526 280.573 58.1044 280.619 57.6145L280.909 54.1965C280.955 53.6269 281.023 53.08 281.114 52.5559C281.206 52.0318 281.371 51.5419 281.61 51.0862C281.849 50.6305 282.197 50.2203 282.652 49.8557C283.12 49.4911 283.752 49.1892 284.549 48.95C284.185 48.8132 283.758 48.6309 283.268 48.4031C282.778 48.1752 282.305 47.8391 281.849 47.3948C281.405 46.9504 281.023 46.3694 280.704 45.6516C280.397 44.9224 280.243 43.9996 280.243 42.8831C280.243 42.0855 280.334 41.3621 280.516 40.7126C280.699 40.0632 280.938 39.4879 281.234 38.9866C281.53 38.4739 281.866 38.0409 282.242 37.6877C282.63 37.3232 283.023 37.0269 283.422 36.7991C283.843 36.5598 284.327 36.3718 284.874 36.2351C285.432 36.0984 285.996 36.0015 286.566 35.9446C287.136 35.8876 287.683 35.8534 288.207 35.842C288.742 35.8306 289.209 35.825 289.608 35.825H300.016V60.947ZM296.649 38.7986H288.959C288.662 38.7986 288.36 38.8043 288.053 38.8157C287.745 38.8157 287.438 38.8328 287.13 38.8669C286.822 38.9011 286.526 38.9581 286.241 39.0378C285.957 39.1062 285.694 39.2087 285.455 39.3455C285.113 39.5391 284.823 39.7784 284.584 40.0632C284.344 40.3481 284.145 40.6614 283.985 41.0032C283.837 41.345 283.729 41.6982 283.661 42.0627C283.592 42.4273 283.558 42.7862 283.558 43.1394C283.558 43.3787 283.575 43.6464 283.609 43.9426C283.644 44.2275 283.718 44.5294 283.832 44.8484C283.946 45.156 284.105 45.4636 284.31 45.7712C284.515 46.0675 284.789 46.3409 285.13 46.5916C285.427 46.8194 285.723 46.996 286.019 47.1213C286.327 47.2353 286.651 47.3207 286.993 47.3777C287.335 47.4233 287.7 47.446 288.087 47.446C288.486 47.446 288.924 47.4403 289.403 47.429H296.649V38.7986ZM305.228 35.825H314.217C315.209 35.825 316.075 35.8534 316.815 35.9104C317.556 35.956 318.251 36.0642 318.9 36.2351C319.515 36.406 320.091 36.6567 320.626 36.9871C321.173 37.3061 321.651 37.7162 322.062 38.2175C322.472 38.7074 322.791 39.2828 323.019 39.9436C323.258 40.593 323.378 41.3279 323.378 42.1482C323.378 42.5811 323.321 43.0483 323.207 43.5496C323.093 44.0509 322.905 44.5465 322.643 45.0364C322.381 45.5149 322.033 45.9649 321.6 46.3865C321.179 46.7966 320.655 47.1327 320.028 47.3948C320.541 47.5657 321.065 47.8049 321.6 48.1125C322.136 48.4202 322.62 48.8189 323.053 49.3088C323.497 49.7874 323.862 50.3741 324.147 51.0691C324.431 51.7527 324.574 52.573 324.574 53.53C324.574 54.0769 324.505 54.6466 324.369 55.239C324.243 55.8201 324.033 56.384 323.736 56.9309C323.452 57.4778 323.081 57.9962 322.626 58.4861C322.17 58.976 321.617 59.4032 320.968 59.7678C320.318 60.1324 319.567 60.4229 318.712 60.6394C317.869 60.8445 316.906 60.947 315.824 60.947H305.228V35.825ZM315.328 58.0076C316.422 58.0076 317.339 57.905 318.08 57.7C318.832 57.4835 319.436 57.1873 319.891 56.8113C320.358 56.4239 320.694 55.9625 320.9 55.427C321.105 54.8915 321.207 54.2934 321.207 53.6326C321.207 52.9718 321.105 52.3736 320.9 51.8381C320.694 51.3027 320.358 50.8469 319.891 50.4709C319.436 50.0836 318.832 49.7874 318.08 49.5823C317.339 49.3658 316.422 49.2576 315.328 49.2576H308.578V58.0076H315.328ZM314.85 46.5232C315.955 46.5232 316.844 46.4207 317.516 46.2156C318.199 45.9991 318.723 45.7143 319.088 45.3611C319.464 44.9965 319.715 44.5693 319.84 44.0793C319.965 43.5894 320.028 43.0653 320.028 42.5071C320.028 41.9146 319.937 41.3905 319.755 40.9348C319.584 40.4677 319.293 40.0746 318.883 39.7556C318.473 39.4366 317.937 39.1917 317.276 39.0208C316.616 38.8499 315.807 38.7644 314.85 38.7644H308.578V46.5232H314.85ZM328.573 35.825H331.922V48.0613L344.176 35.825H348.859L338.4 45.9592L349.149 60.947H344.842L335.99 48.2834L331.922 52.197V60.947H328.573V35.825ZM354.43 57.5803C354.555 57.6829 354.72 57.7911 354.925 57.905C355.13 58.0076 355.353 58.1044 355.592 58.1956C355.831 58.2753 356.076 58.3437 356.327 58.4006C356.589 58.4462 356.839 58.469 357.079 58.469C357.591 58.469 358.03 58.4006 358.395 58.2639C358.771 58.1158 359.09 57.9278 359.352 57.7C359.625 57.4607 359.847 57.193 360.018 56.8967C360.189 56.5891 360.326 56.2701 360.428 55.9397L350.123 35.825H354.037L362.342 52.4705L368.631 35.825H372.425L364.53 54.6067C363.983 55.8599 363.47 56.9309 362.992 57.8196C362.525 58.6969 362.012 59.4146 361.454 59.9729C360.907 60.5312 360.28 60.9356 359.574 61.1863C358.879 61.4483 358.036 61.5793 357.045 61.5793C356.532 61.5793 356.031 61.511 355.541 61.3743C355.051 61.2375 354.675 61.061 354.413 60.8445L354.43 57.5803Z" fill="white"/>
</svg>
