<svg width="266" height="63" viewBox="0 0 266 63" fill="none" xmlns="http://www.w3.org/2000/svg">
<path d="M28.12 0.568183V1.36818C27.5333 1.58152 26.9067 2.04818 26.24 2.76818C25.6 3.48818 25 4.60818 24.44 6.12818L16 28.9682C15.7867 28.9415 15.56 28.9282 15.32 28.9282C15.08 28.9282 14.84 28.9282 14.6 28.9282C14.3867 28.9282 14.16 28.9282 13.92 28.9282C13.68 28.9282 13.4533 28.9415 13.24 28.9682L3.04 3.92818C2.66667 2.96818 2.25333 2.31485 1.8 1.96818C1.34667 1.59485 0.92 1.39485 0.52 1.36818V0.568183C1.32 0.59485 2.25333 0.621516 3.32 0.648182C4.41333 0.674849 5.50667 0.688182 6.6 0.688182C7.82667 0.688182 8.97333 0.674849 10.04 0.648182C11.1333 0.621516 12.0133 0.59485 12.68 0.568183V1.36818C11.8267 1.39485 11.16 1.50152 10.68 1.68818C10.2 1.84818 9.93333 2.16818 9.88 2.64818C9.82667 3.10152 9.98667 3.79485 10.36 4.72818L17.64 23.2482L16.8 24.2482L22.32 9.36818C23.04 7.36818 23.4133 5.79485 23.44 4.64818C23.4667 3.50152 23.1867 2.67485 22.6 2.16818C22.0133 1.66152 21.1733 1.39485 20.08 1.36818V0.568183C20.9867 0.59485 21.84 0.621516 22.64 0.648182C23.44 0.674849 24.2533 0.688182 25.08 0.688182C25.6667 0.688182 26.2133 0.674849 26.72 0.648182C27.2533 0.621516 27.72 0.59485 28.12 0.568183ZM50.4788 0.568183C50.3721 1.74152 50.2921 2.87485 50.2388 3.96818C50.2121 5.06152 50.1988 5.90152 50.1988 6.48818C50.1988 7.02152 50.2121 7.52818 50.2388 8.00818C50.2654 8.48818 50.2921 8.88818 50.3187 9.20818H49.3988C49.1321 7.26152 48.7188 5.72818 48.1588 4.60818C47.5988 3.46152 46.8654 2.66152 45.9588 2.20818C45.0788 1.72818 44.0388 1.48818 42.8388 1.48818H41.1988C40.4254 1.48818 39.8388 1.55485 39.4388 1.68818C39.0388 1.82152 38.7721 2.08818 38.6388 2.48818C38.5054 2.88818 38.4388 3.50152 38.4388 4.32818V25.1282C38.4388 25.9549 38.5054 26.5682 38.6388 26.9682C38.7721 27.3682 39.0388 27.6349 39.4388 27.7682C39.8388 27.9015 40.4254 27.9682 41.1988 27.9682H43.1588C44.3588 27.9682 45.4121 27.7149 46.3188 27.2082C47.2521 26.6749 48.0388 25.7815 48.6788 24.5282C49.3454 23.2749 49.8521 21.5815 50.1988 19.4482H51.1188C51.0388 20.3015 50.9988 21.4215 50.9988 22.8082C50.9988 23.4215 51.0121 24.2882 51.0388 25.4082C51.0654 26.5282 51.1454 27.6882 51.2788 28.8882C49.9188 28.8349 48.3854 28.8082 46.6788 28.8082C44.9721 28.7815 43.4521 28.7682 42.1188 28.7682C41.4521 28.7682 40.5988 28.7682 39.5588 28.7682C38.5188 28.7682 37.3988 28.7815 36.1988 28.8082C34.9988 28.8082 33.7854 28.8215 32.5588 28.8482C31.3321 28.8482 30.1721 28.8615 29.0788 28.8882V28.0882C29.9321 28.0349 30.5721 27.9282 30.9988 27.7682C31.4254 27.6082 31.7054 27.2882 31.8388 26.8082C31.9988 26.3282 32.0788 25.6082 32.0788 24.6482V4.80818C32.0788 3.82151 31.9988 3.10152 31.8388 2.64818C31.7054 2.16818 31.4121 1.84818 30.9588 1.68818C30.5321 1.50152 29.9054 1.39485 29.0788 1.36818V0.568183C30.1721 0.59485 31.3321 0.621516 32.5588 0.648182C33.7854 0.648182 34.9988 0.661516 36.1988 0.688182C37.3988 0.688182 38.5188 0.688182 39.5588 0.688182C40.5988 0.688182 41.4521 0.688182 42.1188 0.688182C43.3454 0.688182 44.7321 0.688182 46.2788 0.688182C47.8521 0.661516 49.2521 0.621516 50.4788 0.568183ZM44.2388 14.2482C44.2388 14.2482 44.2388 14.3815 44.2388 14.6482C44.2388 14.9148 44.2388 15.0482 44.2388 15.0482H37.2388C37.2388 15.0482 37.2388 14.9148 37.2388 14.6482C37.2388 14.3815 37.2388 14.2482 37.2388 14.2482H44.2388ZM45.3988 8.96818C45.2921 10.4882 45.2388 11.6482 45.2388 12.4482C45.2654 13.2482 45.2788 13.9815 45.2788 14.6482C45.2788 15.3148 45.2921 16.0482 45.3188 16.8482C45.3454 17.6482 45.4121 18.8082 45.5188 20.3282H44.5988C44.4654 19.3948 44.2121 18.5282 43.8388 17.7282C43.4921 16.9282 42.9854 16.2882 42.3188 15.8082C41.6521 15.3015 40.7854 15.0482 39.7188 15.0482V14.2482C40.5188 14.2482 41.1988 14.0882 41.7588 13.7682C42.3188 13.4215 42.7721 12.9815 43.1188 12.4482C43.4921 11.8882 43.7854 11.3015 43.9988 10.6882C44.2121 10.0748 44.3721 9.50152 44.4788 8.96818H45.3988ZM66.7903 0.568183C72.0436 0.568183 75.9503 1.76818 78.5103 4.16818C81.0703 6.54152 82.3503 9.95485 82.3503 14.4082C82.3503 17.3148 81.7236 19.8615 80.4703 22.0482C79.217 24.2082 77.3903 25.8882 74.9903 27.0882C72.617 28.2882 69.7636 28.8882 66.4303 28.8882C66.0036 28.8882 65.4436 28.8749 64.7503 28.8482C64.057 28.8215 63.337 28.8082 62.5903 28.8082C61.8436 28.7815 61.177 28.7682 60.5903 28.7682C59.417 28.7682 58.257 28.7815 57.1103 28.8082C55.9903 28.8082 55.097 28.8349 54.4303 28.8882V28.0882C55.2836 28.0349 55.9236 27.9282 56.3503 27.7682C56.777 27.6082 57.057 27.2882 57.1903 26.8082C57.3503 26.3282 57.4303 25.6082 57.4303 24.6482V4.80818C57.4303 3.82151 57.3503 3.10152 57.1903 2.64818C57.057 2.16818 56.7636 1.84818 56.3103 1.68818C55.8836 1.50152 55.257 1.39485 54.4303 1.36818V0.568183C55.097 0.59485 55.9903 0.634849 57.1103 0.688182C58.257 0.714848 59.3903 0.714848 60.5103 0.688182C61.4703 0.661516 62.5503 0.634849 63.7503 0.608183C64.977 0.581517 65.9903 0.568183 66.7903 0.568183ZM66.7503 1.28818C65.5236 1.28818 64.7236 1.51485 64.3503 1.96818C63.977 2.42152 63.7903 3.34152 63.7903 4.72818V24.7282C63.7903 26.1149 63.977 27.0349 64.3503 27.4882C64.7503 27.9415 65.5636 28.1682 66.7903 28.1682C69.0303 28.1682 70.7903 27.6482 72.0703 26.6082C73.377 25.5415 74.3103 23.9949 74.8703 21.9682C75.4303 19.9415 75.7103 17.4748 75.7103 14.5682C75.7103 11.5815 75.4036 9.11485 74.7903 7.16818C74.2036 5.19485 73.257 3.72818 71.9503 2.76818C70.6436 1.78151 68.9103 1.28818 66.7503 1.28818ZM106.533 0.568183C106.427 1.74152 106.347 2.87485 106.293 3.96818C106.267 5.06152 106.253 5.90152 106.253 6.48818C106.253 7.02152 106.267 7.52818 106.293 8.00818C106.32 8.48818 106.347 8.88818 106.373 9.20818H105.453C105.187 7.26152 104.773 5.72818 104.213 4.60818C103.653 3.46152 102.92 2.66152 102.013 2.20818C101.133 1.72818 100.093 1.48818 98.8934 1.48818H97.2534C96.4801 1.48818 95.8934 1.55485 95.4934 1.68818C95.0934 1.82152 94.8268 2.08818 94.6934 2.48818C94.5601 2.88818 94.4934 3.50152 94.4934 4.32818V25.1282C94.4934 25.9549 94.5601 26.5682 94.6934 26.9682C94.8268 27.3682 95.0934 27.6349 95.4934 27.7682C95.8934 27.9015 96.4801 27.9682 97.2534 27.9682H99.2134C100.413 27.9682 101.467 27.7149 102.373 27.2082C103.307 26.6749 104.093 25.7815 104.733 24.5282C105.4 23.2749 105.907 21.5815 106.253 19.4482H107.173C107.093 20.3015 107.053 21.4215 107.053 22.8082C107.053 23.4215 107.067 24.2882 107.093 25.4082C107.12 26.5282 107.2 27.6882 107.333 28.8882C105.973 28.8349 104.44 28.8082 102.733 28.8082C101.027 28.7815 99.5068 28.7682 98.1734 28.7682C97.5068 28.7682 96.6534 28.7682 95.6134 28.7682C94.5734 28.7682 93.4534 28.7815 92.2534 28.8082C91.0534 28.8082 89.8401 28.8215 88.6134 28.8482C87.3868 28.8482 86.2268 28.8615 85.1334 28.8882V28.0882C85.9868 28.0349 86.6268 27.9282 87.0534 27.7682C87.4801 27.6082 87.7601 27.2882 87.8934 26.8082C88.0534 26.3282 88.1334 25.6082 88.1334 24.6482V4.80818C88.1334 3.82151 88.0534 3.10152 87.8934 2.64818C87.7601 2.16818 87.4668 1.84818 87.0134 1.68818C86.5868 1.50152 85.9601 1.39485 85.1334 1.36818V0.568183C86.2268 0.59485 87.3868 0.621516 88.6134 0.648182C89.8401 0.648182 91.0534 0.661516 92.2534 0.688182C93.4534 0.688182 94.5734 0.688182 95.6134 0.688182C96.6534 0.688182 97.5068 0.688182 98.1734 0.688182C99.4001 0.688182 100.787 0.688182 102.333 0.688182C103.907 0.661516 105.307 0.621516 106.533 0.568183ZM100.293 14.2482C100.293 14.2482 100.293 14.3815 100.293 14.6482C100.293 14.9148 100.293 15.0482 100.293 15.0482H93.2934C93.2934 15.0482 93.2934 14.9148 93.2934 14.6482C93.2934 14.3815 93.2934 14.2482 93.2934 14.2482H100.293ZM101.453 8.96818C101.347 10.4882 101.293 11.6482 101.293 12.4482C101.32 13.2482 101.333 13.9815 101.333 14.6482C101.333 15.3148 101.347 16.0482 101.373 16.8482C101.4 17.6482 101.467 18.8082 101.573 20.3282H100.653C100.52 19.3948 100.267 18.5282 99.8934 17.7282C99.5468 16.9282 99.0401 16.2882 98.3734 15.8082C97.7068 15.3015 96.8401 15.0482 95.7734 15.0482V14.2482C96.5734 14.2482 97.2534 14.0882 97.8134 13.7682C98.3734 13.4215 98.8268 12.9815 99.1734 12.4482C99.5468 11.8882 99.8401 11.3015 100.053 10.6882C100.267 10.0748 100.427 9.50152 100.533 8.96818H101.453ZM110.485 0.568183C111.152 0.59485 112.045 0.621516 113.165 0.648182C114.312 0.674849 115.445 0.688182 116.565 0.688182C117.845 0.688182 119.085 0.674849 120.285 0.648182C121.485 0.621516 122.338 0.608183 122.845 0.608183C125.325 0.608183 127.378 0.888182 129.005 1.44818C130.658 1.98152 131.885 2.76818 132.685 3.80818C133.512 4.84818 133.925 6.10152 133.925 7.56818C133.925 8.47485 133.738 9.39485 133.365 10.3282C132.992 11.2348 132.352 12.0882 131.445 12.8882C130.565 13.6615 129.352 14.2882 127.805 14.7682C126.258 15.2215 124.312 15.4482 121.965 15.4482H118.125V14.6482H121.565C123.138 14.6482 124.325 14.3548 125.125 13.7682C125.952 13.1548 126.512 12.3548 126.805 11.3682C127.125 10.3548 127.285 9.23485 127.285 8.00818C127.285 5.90152 126.912 4.27485 126.165 3.12818C125.418 1.95485 124.138 1.36818 122.325 1.36818C121.285 1.36818 120.605 1.59485 120.285 2.04818C119.992 2.50152 119.845 3.42151 119.845 4.80818V24.6482C119.845 25.6082 119.912 26.3282 120.045 26.8082C120.205 27.2882 120.498 27.6082 120.925 27.7682C121.352 27.9282 121.992 28.0349 122.845 28.0882V28.8882C122.125 28.8349 121.218 28.8082 120.125 28.8082C119.032 28.7815 117.925 28.7682 116.805 28.7682C115.525 28.7682 114.312 28.7815 113.165 28.8082C112.045 28.8082 111.152 28.8349 110.485 28.8882V28.0882C111.338 28.0349 111.978 27.9282 112.405 27.7682C112.832 27.6082 113.112 27.2882 113.245 26.8082C113.405 26.3282 113.485 25.6082 113.485 24.6482V4.80818C113.485 3.82151 113.405 3.10152 113.245 2.64818C113.112 2.16818 112.818 1.84818 112.365 1.68818C111.938 1.50152 111.312 1.39485 110.485 1.36818V0.568183ZM118.045 14.7682C119.192 14.7948 120.178 14.8482 121.005 14.9282C121.858 15.0082 122.605 15.0882 123.245 15.1682C123.885 15.2215 124.458 15.2615 124.965 15.2882C127.392 15.5015 129.178 16.0215 130.325 16.8482C131.498 17.6748 132.258 18.9148 132.605 20.5682L133.525 24.6882C133.765 25.7549 134.018 26.5015 134.285 26.9282C134.552 27.3549 134.938 27.5682 135.445 27.5682C135.792 27.5415 136.072 27.4615 136.285 27.3282C136.525 27.1682 136.778 26.9415 137.045 26.6482L137.605 27.1282C136.885 27.9549 136.112 28.5415 135.285 28.8882C134.458 29.2615 133.458 29.4482 132.285 29.4482C130.845 29.4482 129.658 29.1415 128.725 28.5282C127.792 27.9149 127.178 26.7815 126.885 25.1282L126.165 21.1282C125.978 20.0082 125.752 19.0348 125.485 18.2082C125.218 17.3548 124.845 16.6882 124.365 16.2082C123.912 15.7015 123.272 15.4482 122.445 15.4482H118.125L118.045 14.7682ZM164.54 0.568183V1.36818C163.687 1.47485 163.047 1.70152 162.62 2.04818C162.194 2.36818 161.9 2.88818 161.74 3.60818C161.607 4.32818 161.54 5.34152 161.54 6.64818V28.9682C161.22 28.9415 160.887 28.9282 160.54 28.9282C160.22 28.9282 159.874 28.9415 159.5 28.9682L142.14 6.96818V22.3282C142.14 23.7949 142.22 24.9282 142.38 25.7282C142.54 26.5015 142.887 27.0615 143.42 27.4082C143.98 27.7282 144.847 27.9549 146.02 28.0882V28.8882C145.514 28.8349 144.847 28.8082 144.02 28.8082C143.194 28.7815 142.42 28.7682 141.7 28.7682C141.087 28.7682 140.46 28.7815 139.82 28.8082C139.18 28.8082 138.647 28.8349 138.22 28.8882V28.0882C139.074 27.9549 139.714 27.7282 140.14 27.4082C140.567 27.0882 140.847 26.5682 140.98 25.8482C141.14 25.1015 141.22 24.0882 141.22 22.8082V4.80818C141.22 3.82151 141.14 3.10152 140.98 2.64818C140.847 2.16818 140.554 1.84818 140.1 1.68818C139.674 1.50152 139.047 1.39485 138.22 1.36818V0.568183C138.647 0.59485 139.18 0.621516 139.82 0.648182C140.46 0.674849 141.087 0.688182 141.7 0.688182C142.34 0.688182 142.954 0.674849 143.54 0.648182C144.127 0.621516 144.66 0.59485 145.14 0.568183L160.62 19.6482V7.12818C160.62 5.66152 160.54 4.54152 160.38 3.76818C160.22 2.96818 159.86 2.39485 159.3 2.04818C158.767 1.70152 157.914 1.47485 156.74 1.36818V0.568183C157.247 0.59485 157.914 0.621516 158.74 0.648182C159.567 0.674849 160.34 0.688182 161.06 0.688182C161.7 0.688182 162.327 0.674849 162.94 0.648182C163.58 0.621516 164.114 0.59485 164.54 0.568183ZM179.408 0.568183V1.36818C178.554 1.39485 177.901 1.50152 177.447 1.68818C177.021 1.84818 176.741 2.16818 176.608 2.64818C176.474 3.10152 176.408 3.82151 176.408 4.80818V24.6482C176.408 25.6082 176.474 26.3282 176.608 26.8082C176.768 27.2882 177.061 27.6082 177.488 27.7682C177.914 27.9282 178.554 28.0349 179.408 28.0882V28.8882C178.688 28.8349 177.781 28.8082 176.688 28.8082C175.594 28.7815 174.488 28.7682 173.368 28.7682C172.061 28.7682 170.848 28.7815 169.728 28.8082C168.634 28.8082 167.741 28.8349 167.048 28.8882V28.0882C167.901 28.0349 168.541 27.9282 168.968 27.7682C169.394 27.6082 169.674 27.2882 169.808 26.8082C169.968 26.3282 170.048 25.6082 170.048 24.6482V4.80818C170.048 3.82151 169.968 3.10152 169.808 2.64818C169.674 2.16818 169.381 1.84818 168.928 1.68818C168.501 1.50152 167.874 1.39485 167.048 1.36818V0.568183C167.741 0.59485 168.634 0.621516 169.728 0.648182C170.848 0.674849 172.061 0.688182 173.368 0.688182C174.488 0.688182 175.594 0.674849 176.688 0.648182C177.781 0.621516 178.688 0.59485 179.408 0.568183ZM208.287 0.568183V1.32818C207.433 1.51485 206.513 1.88818 205.527 2.44818C204.567 3.00818 203.553 3.91485 202.487 5.16818L194.967 14.1282L197.287 10.8082L206.807 25.6482C207.18 26.2615 207.58 26.7549 208.007 27.1282C208.433 27.5015 208.993 27.8215 209.687 28.0882V28.8882C208.753 28.8349 207.713 28.8082 206.567 28.8082C205.42 28.7815 204.38 28.7682 203.447 28.7682C202.887 28.7682 202.207 28.7815 201.407 28.8082C200.607 28.8082 199.593 28.8349 198.367 28.8882V28.0882C199.46 28.0349 200.113 27.8882 200.327 27.6482C200.567 27.3815 200.473 26.9282 200.047 26.2882L194.247 16.8882C193.873 16.2748 193.54 15.8215 193.247 15.5282C192.953 15.2082 192.66 14.9948 192.367 14.8882C192.073 14.7548 191.687 14.6748 191.207 14.6482V13.8082C192.38 13.7815 193.42 13.4615 194.327 12.8482C195.26 12.2348 196.273 11.3015 197.367 10.0482L199.727 7.20818C200.74 6.00818 201.327 4.98152 201.487 4.12818C201.673 3.24818 201.5 2.56818 200.967 2.08818C200.46 1.60818 199.673 1.35485 198.607 1.32818V0.568183C199.273 0.59485 199.9 0.621516 200.487 0.648182C201.1 0.648182 201.727 0.661516 202.367 0.688182C203.033 0.688182 203.753 0.688182 204.527 0.688182C205.3 0.688182 205.993 0.674849 206.607 0.648182C207.247 0.621516 207.807 0.59485 208.287 0.568183ZM194.447 0.568183V1.36818C193.593 1.39485 192.94 1.50152 192.487 1.68818C192.06 1.84818 191.78 2.16818 191.647 2.64818C191.513 3.10152 191.447 3.82151 191.447 4.80818V24.6482C191.447 25.6082 191.513 26.3282 191.647 26.8082C191.807 27.2882 192.1 27.6082 192.527 27.7682C192.953 27.9282 193.593 28.0349 194.447 28.0882V28.8882C193.727 28.8349 192.82 28.8082 191.727 28.8082C190.633 28.7815 189.527 28.7682 188.407 28.7682C187.127 28.7682 185.913 28.7815 184.767 28.8082C183.647 28.8082 182.753 28.8349 182.087 28.8882V28.0882C182.94 28.0349 183.58 27.9282 184.007 27.7682C184.433 27.6082 184.713 27.2882 184.847 26.8082C185.007 26.3282 185.087 25.6082 185.087 24.6482V4.80818C185.087 3.82151 185.007 3.10152 184.847 2.64818C184.713 2.16818 184.42 1.84818 183.967 1.68818C183.54 1.50152 182.913 1.39485 182.087 1.36818V0.568183C182.753 0.59485 183.647 0.621516 184.767 0.648182C185.913 0.674849 187.127 0.688182 188.407 0.688182C189.527 0.688182 190.633 0.674849 191.727 0.648182C192.82 0.621516 193.727 0.59485 194.447 0.568183ZM223.521 0.0081811C226.347 0.0081811 228.814 0.581515 230.921 1.72818C233.054 2.87485 234.707 4.52818 235.881 6.68818C237.054 8.82152 237.641 11.4215 237.641 14.4882C237.641 17.4748 237.041 20.0882 235.841 22.3282C234.641 24.5682 232.961 26.3149 230.801 27.5682C228.667 28.8215 226.227 29.4482 223.481 29.4482C220.654 29.4482 218.174 28.8749 216.041 27.7282C213.934 26.5815 212.294 24.9282 211.121 22.7682C209.947 20.6082 209.361 18.0082 209.361 14.9682C209.361 11.9815 209.961 9.36818 211.161 7.12818C212.387 4.88818 214.054 3.14152 216.161 1.88818C218.294 0.634848 220.747 0.0081811 223.521 0.0081811ZM223.361 0.728181C221.867 0.728181 220.561 1.32818 219.441 2.52818C218.347 3.72818 217.494 5.38152 216.881 7.48818C216.294 9.59485 216.001 12.0348 216.001 14.8082C216.001 17.6348 216.334 20.1015 217.001 22.2082C217.694 24.2882 218.614 25.9015 219.761 27.0482C220.934 28.1682 222.227 28.7282 223.641 28.7282C225.134 28.7282 226.427 28.1282 227.521 26.9282C228.641 25.7282 229.494 24.0749 230.081 21.9682C230.694 19.8348 231.001 17.3948 231.001 14.6482C231.001 11.7948 230.654 9.32818 229.961 7.24818C229.294 5.16818 228.374 3.56818 227.201 2.44818C226.054 1.30152 224.774 0.728181 223.361 0.728181ZM265.62 0.568183V1.36818C265.033 1.58152 264.407 2.04818 263.74 2.76818C263.1 3.48818 262.5 4.60818 261.94 6.12818L253.5 28.9682C253.287 28.9415 253.06 28.9282 252.82 28.9282C252.58 28.9282 252.34 28.9282 252.1 28.9282C251.887 28.9282 251.66 28.9282 251.42 28.9282C251.18 28.9282 250.953 28.9415 250.74 28.9682L240.54 3.92818C240.167 2.96818 239.753 2.31485 239.3 1.96818C238.847 1.59485 238.42 1.39485 238.02 1.36818V0.568183C238.82 0.59485 239.753 0.621516 240.82 0.648182C241.913 0.674849 243.007 0.688182 244.1 0.688182C245.327 0.688182 246.473 0.674849 247.54 0.648182C248.633 0.621516 249.513 0.59485 250.18 0.568183V1.36818C249.327 1.39485 248.66 1.50152 248.18 1.68818C247.7 1.84818 247.433 2.16818 247.38 2.64818C247.327 3.10152 247.487 3.79485 247.86 4.72818L255.14 23.2482L254.3 24.2482L259.82 9.36818C260.54 7.36818 260.913 5.79485 260.94 4.64818C260.967 3.50152 260.687 2.67485 260.1 2.16818C259.513 1.66152 258.673 1.39485 257.58 1.36818V0.568183C258.487 0.59485 259.34 0.621516 260.14 0.648182C260.94 0.674849 261.753 0.688182 262.58 0.688182C263.167 0.688182 263.713 0.674849 264.22 0.648182C264.753 0.621516 265.22 0.59485 265.62 0.568183ZM0.35 62.5882V62.2132C1.38333 62.1632 2.15833 61.7132 2.675 60.8632C3.19167 60.0299 3.45 58.8799 3.45 57.4132V47.7382C3.45 46.9882 3.31667 46.4382 3.05 46.0882C2.78333 45.7215 2.28333 45.5382 1.55 45.5382V45.0132C2.08333 45.0632 2.6 45.0882 3.1 45.0882C3.58333 45.0882 4.04167 45.0632 4.475 45.0132C4.925 44.9465 5.33333 44.8548 5.7 44.7382V55.0132C5.7 55.8465 5.64167 56.6382 5.525 57.3882C5.40833 58.1382 5.21667 58.8215 4.95 59.4382C4.68333 60.0549 4.33333 60.5965 3.9 61.0632C3.48333 61.5132 2.96667 61.8799 2.35 62.1632C1.75 62.4465 1.08333 62.5882 0.35 62.5882ZM4.35 38.7632C4.78333 38.7632 5.15833 38.9215 5.475 39.2382C5.79167 39.5548 5.95 39.9298 5.95 40.3632C5.95 40.7965 5.79167 41.1715 5.475 41.4882C5.15833 41.8048 4.78333 41.9632 4.35 41.9632C3.91667 41.9632 3.54167 41.8048 3.225 41.4882C2.90833 41.1715 2.75 40.7965 2.75 40.3632C2.75 39.9298 2.90833 39.5548 3.225 39.2382C3.54167 38.9215 3.91667 38.7632 4.35 38.7632ZM14.465 44.6632C15.9317 44.6632 17.0734 45.1132 17.89 46.0132C18.7234 46.8965 19.14 48.2798 19.14 50.1632H10.315L10.29 49.6882H16.74C16.7734 48.8715 16.7067 48.1215 16.54 47.4382C16.3734 46.7382 16.1067 46.1799 15.74 45.7632C15.39 45.3465 14.9317 45.1382 14.365 45.1382C13.5984 45.1382 12.915 45.5215 12.315 46.2882C11.7317 47.0548 11.3817 48.2715 11.265 49.9382L11.34 50.0382C11.3067 50.2882 11.2817 50.5632 11.265 50.8632C11.2484 51.1632 11.24 51.4632 11.24 51.7632C11.24 52.8965 11.4234 53.8715 11.79 54.6882C12.1567 55.5049 12.6317 56.1299 13.215 56.5632C13.815 56.9799 14.4317 57.1882 15.065 57.1882C15.565 57.1882 16.04 57.1132 16.49 56.9632C16.94 56.7965 17.3567 56.5299 17.74 56.1632C18.1234 55.7965 18.4567 55.3049 18.74 54.6882L19.24 54.8882C19.0567 55.4382 18.7567 55.9715 18.34 56.4882C17.9234 57.0049 17.3984 57.4299 16.765 57.7632C16.1317 58.0799 15.3984 58.2382 14.565 58.2382C13.365 58.2382 12.3317 57.9632 11.465 57.4132C10.615 56.8632 9.95671 56.1049 9.49004 55.1382C9.04004 54.1548 8.81504 53.0298 8.81504 51.7632C8.81504 50.2965 9.04837 49.0382 9.51504 47.9882C9.98171 46.9215 10.64 46.1048 11.49 45.5382C12.34 44.9548 13.3317 44.6632 14.465 44.6632ZM25.6639 45.0132V45.5382C25.2472 45.5382 24.8805 45.5715 24.5639 45.6382C24.2472 45.6882 24.0389 45.8548 23.9389 46.1382C23.8389 46.4215 23.9139 46.9215 24.1639 47.6382L26.7639 55.0882L26.5889 55.0632L30.2639 44.9132L30.7639 45.1132L26.1889 58.0132C26.1222 58.0132 26.0555 58.0132 25.9889 58.0132C25.9222 58.0132 25.8472 58.0132 25.7639 58.0132L21.6639 46.9382C21.3972 46.2715 21.1305 45.8715 20.8639 45.7382C20.6139 45.6048 20.3972 45.5382 20.2139 45.5382V45.0132C20.5472 45.0632 20.8889 45.1048 21.2389 45.1382C21.6055 45.1548 21.9972 45.1632 22.4139 45.1632C22.9305 45.1632 23.4722 45.1465 24.0389 45.1132C24.6222 45.0798 25.1639 45.0465 25.6639 45.0132ZM39.3889 45.0132V45.5132C39.0722 45.5465 38.7722 45.6882 38.4889 45.9382C38.2222 46.1715 37.9805 46.6132 37.7639 47.2632L34.1389 58.0132C34.0722 58.0132 34.0055 58.0132 33.9389 58.0132C33.8722 58.0132 33.7972 58.0132 33.7139 58.0132L29.6889 47.7882L30.2639 44.9132C30.3639 44.9132 30.4555 44.9132 30.5389 44.9132C30.6389 44.9132 30.7389 44.9132 30.8389 44.9132L34.7389 55.2382L34.5389 55.3882L37.0139 47.8632C37.1972 47.2965 37.2639 46.8548 37.2139 46.5382C37.1805 46.2048 37.0139 45.9632 36.7139 45.8132C36.4305 45.6465 35.9889 45.5465 35.3889 45.5132V45.0132C35.6889 45.0298 35.9472 45.0465 36.1639 45.0632C36.3805 45.0632 36.5889 45.0715 36.7889 45.0882C37.0055 45.0882 37.2389 45.0882 37.4889 45.0882C37.8722 45.0882 38.2139 45.0798 38.5139 45.0632C38.8305 45.0465 39.1222 45.0298 39.3889 45.0132ZM46.0324 44.6632C47.4991 44.6632 48.6408 45.1132 49.4574 46.0132C50.2908 46.8965 50.7074 48.2798 50.7074 50.1632H41.8824L41.8574 49.6882H48.3074C48.3408 48.8715 48.2741 48.1215 48.1074 47.4382C47.9408 46.7382 47.6741 46.1799 47.3074 45.7632C46.9574 45.3465 46.4991 45.1382 45.9324 45.1382C45.1658 45.1382 44.4824 45.5215 43.8824 46.2882C43.2991 47.0548 42.9491 48.2715 42.8324 49.9382L42.9074 50.0382C42.8741 50.2882 42.8491 50.5632 42.8324 50.8632C42.8158 51.1632 42.8074 51.4632 42.8074 51.7632C42.8074 52.8965 42.9908 53.8715 43.3574 54.6882C43.7241 55.5049 44.1991 56.1299 44.7824 56.5632C45.3824 56.9799 45.9991 57.1882 46.6324 57.1882C47.1324 57.1882 47.6074 57.1132 48.0574 56.9632C48.5074 56.7965 48.9241 56.5299 49.3074 56.1632C49.6908 55.7965 50.0241 55.3049 50.3074 54.6882L50.8074 54.8882C50.6241 55.4382 50.3241 55.9715 49.9074 56.4882C49.4908 57.0049 48.9658 57.4299 48.3324 57.7632C47.6991 58.0799 46.9658 58.2382 46.1324 58.2382C44.9324 58.2382 43.8991 57.9632 43.0324 57.4132C42.1824 56.8632 41.5241 56.1049 41.0574 55.1382C40.6074 54.1548 40.3824 53.0298 40.3824 51.7632C40.3824 50.2965 40.6158 49.0382 41.0824 47.9882C41.5491 46.9215 42.2074 46.1048 43.0574 45.5382C43.9074 44.9548 44.8991 44.6632 46.0324 44.6632ZM56.5789 38.2882V55.5632C56.5789 56.2632 56.7206 56.7382 57.0039 56.9882C57.3039 57.2382 57.7956 57.3632 58.4789 57.3632V57.8882C58.1956 57.8715 57.7622 57.8549 57.1789 57.8382C56.6122 57.8049 56.0372 57.7882 55.4539 57.7882C54.8872 57.7882 54.3122 57.8049 53.7289 57.8382C53.1456 57.8549 52.7122 57.8715 52.4289 57.8882V57.3632C53.1122 57.3632 53.5956 57.2382 53.8789 56.9882C54.1789 56.7382 54.3289 56.2632 54.3289 55.5632V41.2882C54.3289 40.5382 54.1956 39.9882 53.9289 39.6382C53.6622 39.2715 53.1622 39.0882 52.4289 39.0882V38.5632C52.9622 38.6132 53.4789 38.6382 53.9789 38.6382C54.4622 38.6382 54.9206 38.6132 55.3539 38.5632C55.8039 38.4965 56.2122 38.4048 56.5789 38.2882ZM63.7322 38.2882V55.5632C63.7322 56.2632 63.8739 56.7382 64.1572 56.9882C64.4572 57.2382 64.9489 57.3632 65.6322 57.3632V57.8882C65.3489 57.8715 64.9156 57.8549 64.3322 57.8382C63.7656 57.8049 63.1906 57.7882 62.6072 57.7882C62.0406 57.7882 61.4656 57.8049 60.8822 57.8382C60.2989 57.8549 59.8656 57.8715 59.5822 57.8882V57.3632C60.2656 57.3632 60.7489 57.2382 61.0322 56.9882C61.3322 56.7382 61.4822 56.2632 61.4822 55.5632V41.2882C61.4822 40.5382 61.3489 39.9882 61.0822 39.6382C60.8156 39.2715 60.3156 39.0882 59.5822 39.0882V38.5632C60.1156 38.6132 60.6322 38.6382 61.1322 38.6382C61.6156 38.6382 62.0739 38.6132 62.5072 38.5632C62.9572 38.4965 63.3656 38.4048 63.7322 38.2882ZM72.7414 44.6632C74.2081 44.6632 75.3497 45.1132 76.1664 46.0132C76.9997 46.8965 77.4164 48.2798 77.4164 50.1632H68.5914L68.5664 49.6882H75.0164C75.0497 48.8715 74.9831 48.1215 74.8164 47.4382C74.6497 46.7382 74.3831 46.1799 74.0164 45.7632C73.6664 45.3465 73.2081 45.1382 72.6414 45.1382C71.8747 45.1382 71.1914 45.5215 70.5914 46.2882C70.0081 47.0548 69.6581 48.2715 69.5414 49.9382L69.6164 50.0382C69.5831 50.2882 69.5581 50.5632 69.5414 50.8632C69.5247 51.1632 69.5164 51.4632 69.5164 51.7632C69.5164 52.8965 69.6997 53.8715 70.0664 54.6882C70.4331 55.5049 70.9081 56.1299 71.4914 56.5632C72.0914 56.9799 72.7081 57.1882 73.3414 57.1882C73.8414 57.1882 74.3164 57.1132 74.7664 56.9632C75.2164 56.7965 75.6331 56.5299 76.0164 56.1632C76.3997 55.7965 76.7331 55.3049 77.0164 54.6882L77.5164 54.8882C77.3331 55.4382 77.0331 55.9715 76.6164 56.4882C76.1997 57.0049 75.6747 57.4299 75.0414 57.7632C74.4081 58.0799 73.6747 58.2382 72.8414 58.2382C71.6414 58.2382 70.6081 57.9632 69.7414 57.4132C68.8914 56.8632 68.2331 56.1049 67.7664 55.1382C67.3164 54.1548 67.0914 53.0298 67.0914 51.7632C67.0914 50.2965 67.3247 49.0382 67.7914 47.9882C68.2581 46.9215 68.9164 46.1048 69.7664 45.5382C70.6164 44.9548 71.6081 44.6632 72.7414 44.6632ZM87.0879 44.6632C87.5379 44.6632 87.9296 44.7548 88.2629 44.9382C88.6129 45.1215 88.8796 45.3632 89.0629 45.6632C89.2629 45.9465 89.3629 46.2715 89.3629 46.6382C89.3629 47.0548 89.2296 47.4215 88.9629 47.7382C88.7129 48.0548 88.3712 48.2132 87.9379 48.2132C87.5879 48.2132 87.2796 48.1048 87.0129 47.8882C86.7462 47.6548 86.6129 47.3298 86.6129 46.9132C86.6129 46.5965 86.6962 46.3298 86.8629 46.1132C87.0462 45.8798 87.2462 45.6965 87.4629 45.5632C87.3462 45.3965 87.1712 45.3132 86.9379 45.3132C86.4212 45.3132 85.9462 45.4715 85.5129 45.7882C85.0796 46.0882 84.7129 46.4798 84.4129 46.9632C84.1129 47.4465 83.8796 47.9632 83.7129 48.5132C83.5462 49.0465 83.4629 49.5465 83.4629 50.0132V55.3132C83.4629 56.1299 83.6962 56.6799 84.1629 56.9632C84.6462 57.2299 85.2962 57.3632 86.1129 57.3632V57.8882C85.7296 57.8715 85.1879 57.8549 84.4879 57.8382C83.7879 57.8049 83.0462 57.7882 82.2629 57.7882C81.6962 57.7882 81.1296 57.8049 80.5629 57.8382C80.0129 57.8549 79.5962 57.8715 79.3129 57.8882V57.3632C79.9962 57.3632 80.4796 57.2382 80.7629 56.9882C81.0629 56.7382 81.2129 56.2632 81.2129 55.5632V47.7382C81.2129 46.9882 81.0796 46.4382 80.8129 46.0882C80.5462 45.7215 80.0462 45.5382 79.3129 45.5382V45.0132C79.8462 45.0632 80.3629 45.0882 80.8629 45.0882C81.3462 45.0882 81.8046 45.0632 82.2379 45.0132C82.6879 44.9465 83.0962 44.8548 83.4629 44.7382V47.8632C83.6462 47.3798 83.9046 46.8965 84.2379 46.4132C84.5879 45.9132 85.0046 45.4965 85.4879 45.1632C85.9712 44.8298 86.5046 44.6632 87.0879 44.6632ZM102.071 45.0132V45.5132C101.754 45.5465 101.462 45.6882 101.196 45.9382C100.929 46.1882 100.679 46.6298 100.446 47.2632L96.3457 58.0132H95.9207L91.3207 46.9382C91.004 46.2882 90.6874 45.8965 90.3707 45.7632C90.0707 45.6132 89.8207 45.5382 89.6207 45.5382V45.0132C89.9874 45.0632 90.3707 45.1048 90.7707 45.1382C91.1707 45.1548 91.604 45.1632 92.0707 45.1632C92.5874 45.1632 93.129 45.1465 93.6957 45.1132C94.279 45.0798 94.8207 45.0465 95.3207 45.0132V45.5382C94.904 45.5382 94.529 45.5715 94.1957 45.6382C93.879 45.6882 93.679 45.8632 93.5957 46.1632C93.5124 46.4465 93.6124 46.9382 93.8957 47.6382L96.9707 55.2632L96.8207 55.3132L99.6707 47.8632C99.8874 47.3132 99.9707 46.8798 99.9207 46.5632C99.8874 46.2298 99.7207 45.9798 99.4207 45.8132C99.1207 45.6465 98.6707 45.5465 98.0707 45.5132V45.0132C98.3707 45.0298 98.629 45.0465 98.8457 45.0632C99.0624 45.0632 99.2707 45.0715 99.4707 45.0882C99.6874 45.0882 99.9207 45.0882 100.171 45.0882C100.554 45.0882 100.896 45.0798 101.196 45.0632C101.512 45.0465 101.804 45.0298 102.071 45.0132ZM96.3457 58.0132L95.4957 60.1882C95.329 60.6049 95.154 60.9549 94.9707 61.2382C94.804 61.5215 94.6207 61.7549 94.4207 61.9382C94.154 62.1882 93.8374 62.3549 93.4707 62.4382C93.104 62.5382 92.7707 62.5882 92.4707 62.5882C92.154 62.5882 91.8624 62.5299 91.5957 62.4132C91.3457 62.2965 91.1457 62.1215 90.9957 61.8882C90.8457 61.6715 90.7707 61.4049 90.7707 61.0882C90.7707 60.6882 90.8874 60.3632 91.1207 60.1132C91.354 59.8799 91.679 59.7632 92.0957 59.7632C92.4457 59.7632 92.7457 59.8632 92.9957 60.0632C93.2457 60.2632 93.3707 60.5549 93.3707 60.9382C93.3707 61.2215 93.304 61.4549 93.1707 61.6382C93.0374 61.8215 92.879 61.9632 92.6957 62.0632C92.729 62.0799 92.754 62.0882 92.7707 62.0882C92.804 62.0882 92.829 62.0882 92.8457 62.0882C93.2957 62.0882 93.6957 61.9299 94.0457 61.6132C94.3957 61.3132 94.704 60.8215 94.9707 60.1382L95.8707 57.8132L96.3457 58.0132Z" fill="black"/>
</svg>
