<svg width="510" height="128" viewBox="0 0 510 128" fill="none" xmlns="http://www.w3.org/2000/svg">
<path d="M52.7651 30.7057V32.3057C51.6984 32.5724 50.5517 33.2924 49.3251 34.4657C48.1517 35.639 47.0584 37.5324 46.0451 40.1457L27.8851 87.6657C27.6717 87.6657 27.4584 87.6657 27.2451 87.6657C27.0317 87.6657 26.7917 87.6657 26.5251 87.6657C26.3117 87.6657 26.0984 87.6657 25.8851 87.6657C25.6717 87.6657 25.4584 87.6657 25.2451 87.6657L5.40506 37.4257C4.60506 35.4524 3.72506 34.119 2.76506 33.4257C1.80506 32.7324 0.898392 32.359 0.0450586 32.3057V30.7057C1.27173 30.759 2.76506 30.8124 4.52506 30.8657C6.33839 30.919 8.09839 30.9457 9.80506 30.9457C11.9917 30.9457 14.0451 30.919 15.9651 30.8657C17.9384 30.8124 19.5117 30.759 20.6851 30.7057V32.3057C18.9251 32.359 17.5651 32.5724 16.6051 32.9457C15.6451 33.319 15.1117 33.9857 15.0051 34.9457C14.9517 35.8524 15.2717 37.2124 15.9651 39.0257L30.7651 77.6657L29.3251 79.2657L42.2851 45.1857C43.5117 41.9324 44.1251 39.399 44.1251 37.5857C44.1251 35.719 43.5384 34.3857 42.3651 33.5857C41.1917 32.7857 39.4851 32.359 37.2451 32.3057V30.7057C38.8984 30.759 40.5251 30.8124 42.1251 30.8657C43.7251 30.919 45.2451 30.9457 46.6851 30.9457C48.0184 30.9457 49.1651 30.919 50.1251 30.8657C51.0851 30.8124 51.9651 30.759 52.7651 30.7057ZM96.0913 30.7057C95.878 32.7324 95.718 34.7057 95.6113 36.6257C95.558 38.4924 95.5313 39.9324 95.5313 40.9457C95.5313 41.959 95.558 42.919 95.6113 43.8257C95.6646 44.7324 95.718 45.479 95.7713 46.0657H93.9313C93.558 42.6524 92.9713 39.959 92.1713 37.9857C91.4246 36.0124 90.278 34.6257 88.7313 33.8257C87.238 32.9724 85.1313 32.5457 82.4113 32.5457H76.8913C75.1846 32.5457 73.878 32.7057 72.9713 33.0257C72.118 33.2924 71.5313 33.879 71.2113 34.7857C70.8913 35.639 70.7313 36.999 70.7313 38.8657V79.1857C70.7313 80.999 70.8913 82.359 71.2113 83.2657C71.5313 84.1724 72.118 84.7857 72.9713 85.1057C73.878 85.3724 75.1846 85.5057 76.8913 85.5057H82.0913C85.1313 85.5057 87.5313 85.0257 89.2913 84.0657C91.1046 83.1057 92.4646 81.5324 93.3713 79.3457C94.3313 77.159 95.0513 74.1724 95.5313 70.3857H97.3713C97.2113 71.9324 97.1313 73.959 97.1313 76.4657C97.1313 77.5324 97.158 79.079 97.2113 81.1057C97.318 83.1324 97.478 85.2124 97.6913 87.3457C94.9713 87.239 91.9046 87.1857 88.4913 87.1857C85.078 87.1324 82.038 87.1057 79.3713 87.1057C78.1446 87.1057 76.5713 87.1057 74.6513 87.1057C72.7313 87.1057 70.6513 87.1324 68.4113 87.1857C66.2246 87.1857 63.9846 87.2124 61.6913 87.2657C59.4513 87.2657 57.2913 87.2924 55.2113 87.3457V85.7457C57.0246 85.639 58.3846 85.4257 59.2913 85.1057C60.198 84.7857 60.7846 84.1457 61.0513 83.1857C61.3713 82.2257 61.5313 80.7857 61.5313 78.8657V39.1857C61.5313 37.2124 61.3713 35.7724 61.0513 34.8657C60.7846 33.9057 60.1713 33.2657 59.2113 32.9457C58.3046 32.5724 56.9713 32.359 55.2113 32.3057V30.7057C57.2913 30.759 59.4513 30.8124 61.6913 30.8657C63.9846 30.8657 66.2246 30.8924 68.4113 30.9457C70.6513 30.9457 72.7313 30.9457 74.6513 30.9457C76.5713 30.9457 78.1446 30.9457 79.3713 30.9457C81.8246 30.9457 84.598 30.9457 87.6913 30.9457C90.838 30.8924 93.638 30.8124 96.0913 30.7057ZM82.8113 58.0657C82.8113 58.0657 82.8113 58.3324 82.8113 58.8657C82.8113 59.399 82.8113 59.6657 82.8113 59.6657H68.3313C68.3313 59.6657 68.3313 59.399 68.3313 58.8657C68.3313 58.3324 68.3313 58.0657 68.3313 58.0657H82.8113ZM85.1313 47.5057C84.918 50.5457 84.8113 52.8657 84.8113 54.4657C84.8646 56.0657 84.8913 57.5324 84.8913 58.8657C84.8913 60.199 84.918 61.6657 84.9713 63.2657C85.0246 64.8657 85.158 67.1857 85.3713 70.2257H83.5313C83.2646 68.4657 82.918 66.7857 82.4913 65.1857C82.0646 63.5324 81.2913 62.199 80.1713 61.1857C79.1046 60.1724 77.4246 59.6657 75.1313 59.6657V58.0657C76.838 58.0657 78.1713 57.719 79.1313 57.0257C80.1446 56.3324 80.918 55.4257 81.4513 54.3057C81.9846 53.1857 82.358 52.039 82.5713 50.8657C82.838 49.639 83.078 48.519 83.2913 47.5057H85.1313ZM127.386 30.7057C137.253 30.7057 144.586 33.1057 149.386 37.9057C154.186 42.6524 156.586 49.479 156.586 58.3857C156.586 64.199 155.413 69.2924 153.066 73.6657C150.72 77.9857 147.306 81.3457 142.826 83.7457C138.4 86.1457 133.013 87.3457 126.666 87.3457C125.866 87.3457 124.773 87.319 123.386 87.2657C122.053 87.2124 120.666 87.1857 119.226 87.1857C117.786 87.1324 116.48 87.1057 115.306 87.1057C113.28 87.1057 111.28 87.1324 109.306 87.1857C107.386 87.1857 105.813 87.239 104.586 87.3457V85.7457C106.4 85.639 107.76 85.4257 108.666 85.1057C109.573 84.7857 110.16 84.1457 110.426 83.1857C110.746 82.2257 110.906 80.7857 110.906 78.8657V39.1857C110.906 37.2124 110.746 35.7724 110.426 34.8657C110.16 33.9057 109.546 33.2657 108.586 32.9457C107.68 32.5724 106.346 32.359 104.586 32.3057V30.7057C105.813 30.759 107.386 30.839 109.306 30.9457C111.28 30.999 113.226 30.999 115.146 30.9457C117.066 30.8924 119.2 30.839 121.546 30.7857C123.946 30.7324 125.893 30.7057 127.386 30.7057ZM126.026 32.1457C123.573 32.1457 121.973 32.599 121.226 33.5057C120.48 34.4124 120.106 36.2524 120.106 39.0257V79.0257C120.106 81.799 120.48 83.639 121.226 84.5457C122.026 85.4524 123.653 85.9057 126.106 85.9057C131.493 85.9057 135.68 84.8657 138.666 82.7857C141.653 80.6524 143.76 77.559 144.986 73.5057C146.213 69.4524 146.826 64.519 146.826 58.7057C146.826 52.7324 146.16 47.799 144.826 43.9057C143.493 39.959 141.306 37.0257 138.266 35.1057C135.28 33.1324 131.2 32.1457 126.026 32.1457ZM204.06 30.7057C203.847 32.7324 203.687 34.7057 203.58 36.6257C203.527 38.4924 203.5 39.9324 203.5 40.9457C203.5 41.959 203.527 42.919 203.58 43.8257C203.633 44.7324 203.687 45.479 203.74 46.0657H201.9C201.527 42.6524 200.94 39.959 200.14 37.9857C199.393 36.0124 198.247 34.6257 196.7 33.8257C195.207 32.9724 193.1 32.5457 190.38 32.5457H184.86C183.153 32.5457 181.847 32.7057 180.94 33.0257C180.087 33.2924 179.5 33.879 179.18 34.7857C178.86 35.639 178.7 36.999 178.7 38.8657V79.1857C178.7 80.999 178.86 82.359 179.18 83.2657C179.5 84.1724 180.087 84.7857 180.94 85.1057C181.847 85.3724 183.153 85.5057 184.86 85.5057H190.06C193.1 85.5057 195.5 85.0257 197.26 84.0657C199.073 83.1057 200.433 81.5324 201.34 79.3457C202.3 77.159 203.02 74.1724 203.5 70.3857H205.34C205.18 71.9324 205.1 73.959 205.1 76.4657C205.1 77.5324 205.127 79.079 205.18 81.1057C205.287 83.1324 205.447 85.2124 205.66 87.3457C202.94 87.239 199.873 87.1857 196.46 87.1857C193.047 87.1324 190.007 87.1057 187.34 87.1057C186.113 87.1057 184.54 87.1057 182.62 87.1057C180.7 87.1057 178.62 87.1324 176.38 87.1857C174.193 87.1857 171.953 87.2124 169.66 87.2657C167.42 87.2657 165.26 87.2924 163.18 87.3457V85.7457C164.993 85.639 166.353 85.4257 167.26 85.1057C168.167 84.7857 168.753 84.1457 169.02 83.1857C169.34 82.2257 169.5 80.7857 169.5 78.8657V39.1857C169.5 37.2124 169.34 35.7724 169.02 34.8657C168.753 33.9057 168.14 33.2657 167.18 32.9457C166.273 32.5724 164.94 32.359 163.18 32.3057V30.7057C165.26 30.759 167.42 30.8124 169.66 30.8657C171.953 30.8657 174.193 30.8924 176.38 30.9457C178.62 30.9457 180.7 30.9457 182.62 30.9457C184.54 30.9457 186.113 30.9457 187.34 30.9457C189.793 30.9457 192.567 30.9457 195.66 30.9457C198.807 30.8924 201.607 30.8124 204.06 30.7057ZM190.78 58.0657C190.78 58.0657 190.78 58.3324 190.78 58.8657C190.78 59.399 190.78 59.6657 190.78 59.6657H176.3C176.3 59.6657 176.3 59.399 176.3 58.8657C176.3 58.3324 176.3 58.0657 176.3 58.0657H190.78ZM193.1 47.5057C192.887 50.5457 192.78 52.8657 192.78 54.4657C192.833 56.0657 192.86 57.5324 192.86 58.8657C192.86 60.199 192.887 61.6657 192.94 63.2657C192.993 64.8657 193.127 67.1857 193.34 70.2257H191.5C191.233 68.4657 190.887 66.7857 190.46 65.1857C190.033 63.5324 189.26 62.199 188.14 61.1857C187.073 60.1724 185.393 59.6657 183.1 59.6657V58.0657C184.807 58.0657 186.14 57.719 187.1 57.0257C188.113 56.3324 188.887 55.4257 189.42 54.3057C189.953 53.1857 190.327 52.039 190.54 50.8657C190.807 49.639 191.047 48.519 191.26 47.5057H193.1ZM212.555 30.7057C213.782 30.759 215.355 30.8124 217.275 30.8657C219.248 30.919 221.195 30.9457 223.115 30.9457C225.675 30.9457 228.102 30.919 230.395 30.8657C232.742 30.8124 234.395 30.7857 235.355 30.7857C239.888 30.7857 243.648 31.3724 246.635 32.5457C249.675 33.719 251.915 35.3724 253.355 37.5057C254.848 39.5857 255.595 41.9857 255.595 44.7057C255.595 46.359 255.248 48.119 254.555 49.9857C253.915 51.799 252.768 53.5057 251.115 55.1057C249.462 56.6524 247.222 57.9324 244.395 58.9457C241.568 59.959 237.968 60.4657 233.595 60.4657H225.915V58.8657H232.795C236.368 58.8657 239.088 58.279 240.955 57.1057C242.875 55.879 244.155 54.279 244.795 52.3057C245.488 50.279 245.835 48.039 245.835 45.5857C245.835 41.3724 244.928 38.119 243.115 35.8257C241.302 33.479 238.155 32.3057 233.675 32.3057C231.382 32.3057 229.862 32.759 229.115 33.6657C228.422 34.5724 228.075 36.4124 228.075 39.1857V78.8657C228.075 80.7857 228.235 82.2257 228.555 83.1857C228.875 84.1457 229.488 84.7857 230.395 85.1057C231.302 85.4257 232.635 85.639 234.395 85.7457V87.3457C233.115 87.239 231.488 87.1857 229.515 87.1857C227.595 87.1324 225.622 87.1057 223.595 87.1057C221.355 87.1057 219.248 87.1324 217.275 87.1857C215.355 87.1857 213.782 87.239 212.555 87.3457V85.7457C214.368 85.639 215.728 85.4257 216.635 85.1057C217.542 84.7857 218.128 84.1457 218.395 83.1857C218.715 82.2257 218.875 80.7857 218.875 78.8657V39.1857C218.875 37.2124 218.715 35.7724 218.395 34.8657C218.128 33.9057 217.515 33.2657 216.555 32.9457C215.648 32.5724 214.315 32.359 212.555 32.3057V30.7057ZM226.075 59.1057C228.795 59.2124 230.982 59.3457 232.635 59.5057C234.288 59.6124 235.675 59.719 236.795 59.8257C237.915 59.9324 238.955 60.0657 239.915 60.2257C243.915 60.759 246.822 61.8257 248.635 63.4257C250.502 65.0257 251.782 67.479 252.475 70.7857L254.475 78.9457C254.955 81.239 255.462 82.8657 255.995 83.8257C256.582 84.7857 257.435 85.2657 258.555 85.2657C259.408 85.2124 260.102 84.9724 260.635 84.5457C261.222 84.0657 261.835 83.4257 262.475 82.6257L263.595 83.5057C262.368 85.159 261.088 86.4124 259.755 87.2657C258.422 88.0657 256.635 88.4657 254.395 88.4657C252.102 88.4657 250.128 87.879 248.475 86.7057C246.875 85.479 245.728 83.1857 245.035 79.8257L243.435 71.8257C242.955 69.5324 242.422 67.559 241.835 65.9057C241.248 64.199 240.422 62.8657 239.355 61.9057C238.342 60.9457 236.848 60.4657 234.875 60.4657H226.235L226.075 59.1057ZM316.722 30.7057V32.3057C314.909 32.4124 313.549 32.7324 312.642 33.2657C311.735 33.799 311.122 34.679 310.802 35.9057C310.535 37.079 310.402 38.759 310.402 40.9457V87.6657C309.975 87.6657 309.549 87.6657 309.122 87.6657C308.695 87.6657 308.242 87.6657 307.762 87.6657L273.842 38.3857V76.7857C273.842 79.0257 274.002 80.7857 274.322 82.0657C274.642 83.2924 275.335 84.1724 276.402 84.7057C277.469 85.239 279.095 85.5857 281.282 85.7457V87.3457C280.269 87.239 278.962 87.1857 277.362 87.1857C275.815 87.1324 274.349 87.1057 272.962 87.1057C271.629 87.1057 270.295 87.1324 268.962 87.1857C267.629 87.1857 266.535 87.239 265.682 87.3457V85.7457C267.442 85.5857 268.775 85.2657 269.682 84.7857C270.589 84.2524 271.202 83.3724 271.522 82.1457C271.842 80.919 272.002 79.239 272.002 77.1057V39.1857C272.002 37.2124 271.842 35.7724 271.522 34.8657C271.202 33.9057 270.589 33.2657 269.682 32.9457C268.775 32.5724 267.442 32.359 265.682 32.3057V30.7057C266.535 30.759 267.629 30.8124 268.962 30.8657C270.295 30.919 271.629 30.9457 272.962 30.9457C274.135 30.9457 275.282 30.919 276.402 30.8657C277.522 30.8124 278.509 30.759 279.362 30.7057L308.562 72.4657V41.2657C308.562 38.9724 308.375 37.2124 308.002 35.9857C307.682 34.759 306.989 33.879 305.922 33.3457C304.855 32.759 303.255 32.4124 301.122 32.3057V30.7057C302.082 30.759 303.362 30.8124 304.962 30.8657C306.562 30.919 308.055 30.9457 309.442 30.9457C310.775 30.9457 312.109 30.919 313.442 30.8657C314.775 30.8124 315.869 30.759 316.722 30.7057ZM344.317 30.7057V32.3057C342.557 32.359 341.224 32.5724 340.317 32.9457C339.41 33.2657 338.797 33.9057 338.477 34.8657C338.157 35.7724 337.997 37.2124 337.997 39.1857V78.8657C337.997 80.7857 338.157 82.2257 338.477 83.1857C338.797 84.1457 339.41 84.7857 340.317 85.1057C341.224 85.4257 342.557 85.639 344.317 85.7457V87.3457C343.037 87.239 341.41 87.1857 339.437 87.1857C337.517 87.1324 335.544 87.1057 333.517 87.1057C331.277 87.1057 329.17 87.1324 327.197 87.1857C325.277 87.1857 323.704 87.239 322.477 87.3457V85.7457C324.29 85.639 325.65 85.4257 326.557 85.1057C327.464 84.7857 328.05 84.1457 328.317 83.1857C328.637 82.2257 328.797 80.7857 328.797 78.8657V39.1857C328.797 37.2124 328.637 35.7724 328.317 34.8657C328.05 33.9057 327.437 33.2657 326.477 32.9457C325.57 32.5724 324.237 32.359 322.477 32.3057V30.7057C323.704 30.759 325.277 30.8124 327.197 30.8657C329.17 30.919 331.277 30.9457 333.517 30.9457C335.544 30.9457 337.517 30.919 339.437 30.8657C341.41 30.8124 343.037 30.759 344.317 30.7057ZM398.604 30.7057V32.3057C396.897 32.5724 395.19 33.1857 393.484 34.1457C391.83 35.0524 390.15 36.5724 388.444 38.7057L373.084 57.9057L375.804 53.0257L395.004 80.8657C395.857 82.1457 396.764 83.159 397.724 83.9057C398.737 84.6524 400.017 85.2657 401.564 85.7457V87.3457C400.124 87.239 398.39 87.1857 396.364 87.1857C394.337 87.1324 392.55 87.1057 391.004 87.1057C390.044 87.1057 388.844 87.1324 387.404 87.1857C386.017 87.1857 384.257 87.239 382.124 87.3457V85.7457C384.097 85.639 385.297 85.319 385.724 84.7857C386.204 84.2524 386.017 83.3724 385.164 82.1457L373.564 64.1457C372.604 62.6524 371.75 61.5324 371.004 60.7857C370.257 59.9857 369.484 59.479 368.684 59.2657C367.884 58.999 366.897 58.839 365.724 58.7857V57.1057C367.964 57.0524 369.884 56.5457 371.484 55.5857C373.137 54.6257 374.684 53.319 376.124 51.6657L382.764 43.2657C384.63 40.9724 385.83 39.0257 386.364 37.4257C386.897 35.7724 386.764 34.519 385.964 33.6657C385.164 32.8124 383.67 32.359 381.484 32.3057V30.7057C382.604 30.759 383.697 30.8124 384.764 30.8657C385.884 30.8657 387.004 30.8924 388.124 30.9457C389.297 30.9457 390.444 30.9457 391.564 30.9457C393.004 30.9457 394.31 30.919 395.484 30.8657C396.71 30.8124 397.75 30.759 398.604 30.7057ZM372.364 30.7057V32.3057C370.604 32.359 369.27 32.5724 368.364 32.9457C367.457 33.2657 366.844 33.9057 366.524 34.8657C366.204 35.7724 366.044 37.2124 366.044 39.1857V78.8657C366.044 80.7857 366.204 82.2257 366.524 83.1857C366.844 84.1457 367.457 84.7857 368.364 85.1057C369.27 85.4257 370.604 85.639 372.364 85.7457V87.3457C371.084 87.239 369.457 87.1857 367.484 87.1857C365.564 87.1324 363.59 87.1057 361.564 87.1057C359.324 87.1057 357.217 87.1324 355.244 87.1857C353.324 87.1857 351.75 87.239 350.524 87.3457V85.7457C352.337 85.639 353.697 85.4257 354.604 85.1057C355.51 84.7857 356.097 84.1457 356.364 83.1857C356.684 82.2257 356.844 80.7857 356.844 78.8657V39.1857C356.844 37.2124 356.684 35.7724 356.364 34.8657C356.097 33.9057 355.484 33.2657 354.524 32.9457C353.617 32.5724 352.284 32.359 350.524 32.3057V30.7057C351.75 30.759 353.324 30.8124 355.244 30.8657C357.217 30.919 359.324 30.9457 361.564 30.9457C363.59 30.9457 365.564 30.919 367.484 30.8657C369.457 30.8124 371.084 30.759 372.364 30.7057ZM428.038 29.5857C433.265 29.5857 437.852 30.7324 441.798 33.0257C445.798 35.319 448.892 38.6257 451.078 42.9457C453.265 47.2124 454.358 52.4124 454.358 58.5457C454.358 64.519 453.238 69.7457 450.998 74.2257C448.758 78.7057 445.638 82.199 441.638 84.7057C437.638 87.2124 433.078 88.4657 427.958 88.4657C422.678 88.4657 418.065 87.319 414.118 85.0257C410.172 82.7324 407.105 79.4257 404.918 75.1057C402.732 70.7857 401.638 65.5857 401.638 59.5057C401.638 53.5324 402.758 48.3057 404.998 43.8257C407.292 39.3457 410.412 35.8524 414.358 33.3457C418.305 30.839 422.865 29.5857 428.038 29.5857ZM427.718 31.0257C424.412 31.0257 421.532 32.2257 419.078 34.6257C416.625 37.0257 414.732 40.3324 413.398 44.5457C412.065 48.759 411.398 53.639 411.398 59.1857C411.398 64.839 412.145 69.7724 413.638 73.9857C415.132 78.1457 417.158 81.3724 419.718 83.6657C422.278 85.9057 425.132 87.0257 428.278 87.0257C431.585 87.0257 434.438 85.8257 436.838 83.4257C439.292 81.0257 441.185 77.719 442.518 73.5057C443.905 69.239 444.598 64.359 444.598 58.8657C444.598 53.159 443.825 48.2257 442.278 44.0657C440.785 39.9057 438.758 36.7057 436.198 34.4657C433.692 32.1724 430.865 31.0257 427.718 31.0257ZM509.015 30.7057V32.3057C507.948 32.5724 506.802 33.2924 505.575 34.4657C504.402 35.639 503.308 37.5324 502.295 40.1457L484.135 87.6657C483.922 87.6657 483.708 87.6657 483.495 87.6657C483.282 87.6657 483.042 87.6657 482.775 87.6657C482.562 87.6657 482.348 87.6657 482.135 87.6657C481.922 87.6657 481.708 87.6657 481.495 87.6657L461.655 37.4257C460.855 35.4524 459.975 34.119 459.015 33.4257C458.055 32.7324 457.148 32.359 456.295 32.3057V30.7057C457.522 30.759 459.015 30.8124 460.775 30.8657C462.588 30.919 464.348 30.9457 466.055 30.9457C468.242 30.9457 470.295 30.919 472.215 30.8657C474.188 30.8124 475.762 30.759 476.935 30.7057V32.3057C475.175 32.359 473.815 32.5724 472.855 32.9457C471.895 33.319 471.362 33.9857 471.255 34.9457C471.202 35.8524 471.522 37.2124 472.215 39.0257L487.015 77.6657L485.575 79.2657L498.535 45.1857C499.762 41.9324 500.375 39.399 500.375 37.5857C500.375 35.719 499.788 34.3857 498.615 33.5857C497.442 32.7857 495.735 32.359 493.495 32.3057V30.7057C495.148 30.759 496.775 30.8124 498.375 30.8657C499.975 30.919 501.495 30.9457 502.935 30.9457C504.268 30.9457 505.415 30.919 506.375 30.8657C507.335 30.8124 508.215 30.759 509.015 30.7057Z" fill="black"/>
<path d="M22.5833 127.269V126.819C23.8233 126.759 24.7533 126.219 25.3733 125.199C25.9933 124.199 26.3033 122.819 26.3033 121.059V109.449C26.3033 108.549 26.1433 107.889 25.8233 107.469C25.5033 107.029 24.9033 106.809 24.0233 106.809V106.179C24.6633 106.239 25.2833 106.269 25.8833 106.269C26.4633 106.269 27.0133 106.239 27.5333 106.179C28.0733 106.099 28.5633 105.989 29.0033 105.849V118.179C29.0033 119.179 28.9333 120.129 28.7933 121.029C28.6533 121.929 28.4233 122.749 28.1033 123.489C27.7833 124.229 27.3633 124.879 26.8433 125.439C26.3433 125.979 25.7233 126.419 24.9833 126.759C24.2633 127.099 23.4633 127.269 22.5833 127.269ZM27.3833 98.6787C27.9033 98.6787 28.3533 98.8687 28.7333 99.2487C29.1133 99.6287 29.3033 100.079 29.3033 100.599C29.3033 101.119 29.1133 101.569 28.7333 101.949C28.3533 102.329 27.9033 102.519 27.3833 102.519C26.8633 102.519 26.4133 102.329 26.0333 101.949C25.6533 101.569 25.4633 101.119 25.4633 100.599C25.4633 100.079 25.6533 99.6287 26.0333 99.2487C26.4133 98.8687 26.8633 98.6787 27.3833 98.6787ZM39.5213 105.759C41.2813 105.759 42.6513 106.299 43.6313 107.379C44.6313 108.439 45.1313 110.099 45.1313 112.359H34.5413L34.5113 111.789H42.2513C42.2913 110.809 42.2113 109.909 42.0113 109.089C41.8113 108.249 41.4913 107.579 41.0513 107.079C40.6313 106.579 40.0813 106.329 39.4013 106.329C38.4813 106.329 37.6613 106.789 36.9413 107.709C36.2413 108.629 35.8213 110.089 35.6813 112.089L35.7713 112.209C35.7313 112.509 35.7013 112.839 35.6813 113.199C35.6613 113.559 35.6513 113.919 35.6513 114.279C35.6513 115.639 35.8713 116.809 36.3113 117.789C36.7513 118.769 37.3213 119.519 38.0213 120.039C38.7413 120.539 39.4813 120.789 40.2413 120.789C40.8413 120.789 41.4113 120.699 41.9513 120.519C42.4913 120.319 42.9913 119.999 43.4513 119.559C43.9113 119.119 44.3113 118.529 44.6513 117.789L45.2513 118.029C45.0313 118.689 44.6713 119.329 44.1713 119.949C43.6713 120.569 43.0413 121.079 42.2813 121.479C41.5213 121.859 40.6413 122.049 39.6413 122.049C38.2013 122.049 36.9613 121.719 35.9213 121.059C34.9013 120.399 34.1113 119.489 33.5513 118.329C33.0113 117.149 32.7413 115.799 32.7413 114.279C32.7413 112.519 33.0213 111.009 33.5813 109.749C34.1413 108.469 34.9313 107.489 35.9513 106.809C36.9713 106.109 38.1613 105.759 39.5213 105.759ZM52.9599 106.179V106.809C52.4599 106.809 52.0199 106.849 51.6399 106.929C51.2599 106.989 51.0099 107.189 50.8899 107.529C50.7699 107.869 50.8599 108.469 51.1599 109.329L54.2799 118.269L54.0699 118.239L58.4799 106.059L59.0799 106.299L53.5899 121.779C53.5099 121.779 53.4299 121.779 53.3499 121.779C53.2699 121.779 53.1799 121.779 53.0799 121.779L48.1599 108.489C47.8399 107.689 47.5199 107.209 47.1999 107.049C46.8999 106.889 46.6399 106.809 46.4199 106.809V106.179C46.8199 106.239 47.2299 106.289 47.6499 106.329C48.0899 106.349 48.5599 106.359 49.0599 106.359C49.6799 106.359 50.3299 106.339 51.0099 106.299C51.7099 106.259 52.3599 106.219 52.9599 106.179ZM69.4299 106.179V106.779C69.0499 106.819 68.6899 106.989 68.3499 107.289C68.0299 107.569 67.7399 108.099 67.4799 108.879L63.1299 121.779C63.0499 121.779 62.9699 121.779 62.8899 121.779C62.8099 121.779 62.7199 121.779 62.6199 121.779L57.7899 109.509L58.4799 106.059C58.5999 106.059 58.7099 106.059 58.8099 106.059C58.9299 106.059 59.0499 106.059 59.1699 106.059L63.8499 118.449L63.6099 118.629L66.5799 109.599C66.7999 108.919 66.8799 108.389 66.8199 108.009C66.7799 107.609 66.5799 107.319 66.2199 107.139C65.8799 106.939 65.3499 106.819 64.6299 106.779V106.179C64.9899 106.199 65.2999 106.219 65.5599 106.239C65.8199 106.239 66.0699 106.249 66.3099 106.269C66.5699 106.269 66.8499 106.269 67.1499 106.269C67.6099 106.269 68.0199 106.259 68.3799 106.239C68.7599 106.219 69.1099 106.199 69.4299 106.179ZM77.4022 105.759C79.1622 105.759 80.5322 106.299 81.5122 107.379C82.5122 108.439 83.0122 110.099 83.0122 112.359H72.4222L72.3922 111.789H80.1322C80.1722 110.809 80.0922 109.909 79.8922 109.089C79.6922 108.249 79.3722 107.579 78.9322 107.079C78.5122 106.579 77.9622 106.329 77.2822 106.329C76.3622 106.329 75.5422 106.789 74.8222 107.709C74.1222 108.629 73.7022 110.089 73.5622 112.089L73.6522 112.209C73.6122 112.509 73.5822 112.839 73.5622 113.199C73.5422 113.559 73.5322 113.919 73.5322 114.279C73.5322 115.639 73.7522 116.809 74.1922 117.789C74.6322 118.769 75.2022 119.519 75.9022 120.039C76.6222 120.539 77.3622 120.789 78.1222 120.789C78.7222 120.789 79.2922 120.699 79.8322 120.519C80.3722 120.319 80.8722 119.999 81.3322 119.559C81.7922 119.119 82.1922 118.529 82.5322 117.789L83.1322 118.029C82.9122 118.689 82.5522 119.329 82.0522 119.949C81.5522 120.569 80.9222 121.079 80.1622 121.479C79.4022 121.859 78.5222 122.049 77.5222 122.049C76.0822 122.049 74.8422 121.719 73.8022 121.059C72.7822 120.399 71.9922 119.489 71.4322 118.329C70.8922 117.149 70.6222 115.799 70.6222 114.279C70.6222 112.519 70.9022 111.009 71.4622 109.749C72.0222 108.469 72.8122 107.489 73.8322 106.809C74.8522 106.109 76.0422 105.759 77.4022 105.759ZM90.058 98.1087V118.839C90.058 119.679 90.228 120.249 90.568 120.549C90.928 120.849 91.518 120.999 92.338 120.999V121.629C91.998 121.609 91.478 121.589 90.778 121.569C90.098 121.529 89.408 121.509 88.708 121.509C88.028 121.509 87.338 121.529 86.638 121.569C85.938 121.589 85.418 121.609 85.078 121.629V120.999C85.898 120.999 86.478 120.849 86.818 120.549C87.178 120.249 87.358 119.679 87.358 118.839V101.709C87.358 100.809 87.198 100.149 86.878 99.7287C86.558 99.2887 85.958 99.0687 85.078 99.0687V98.4387C85.718 98.4987 86.338 98.5287 86.938 98.5287C87.518 98.5287 88.068 98.4987 88.588 98.4387C89.128 98.3587 89.618 98.2487 90.058 98.1087ZM98.642 98.1087V118.839C98.642 119.679 98.812 120.249 99.152 120.549C99.512 120.849 100.102 120.999 100.922 120.999V121.629C100.582 121.609 100.062 121.589 99.362 121.569C98.682 121.529 97.992 121.509 97.292 121.509C96.612 121.509 95.922 121.529 95.222 121.569C94.522 121.589 94.002 121.609 93.662 121.629V120.999C94.482 120.999 95.062 120.849 95.402 120.549C95.762 120.249 95.942 119.679 95.942 118.839V101.709C95.942 100.809 95.782 100.149 95.462 99.7287C95.142 99.2887 94.542 99.0687 93.662 99.0687V98.4387C94.302 98.4987 94.922 98.5287 95.522 98.5287C96.102 98.5287 96.652 98.4987 97.172 98.4387C97.712 98.3587 98.202 98.2487 98.642 98.1087ZM109.453 105.759C111.213 105.759 112.583 106.299 113.563 107.379C114.563 108.439 115.063 110.099 115.063 112.359H104.473L104.443 111.789H112.183C112.223 110.809 112.143 109.909 111.943 109.089C111.743 108.249 111.423 107.579 110.983 107.079C110.563 106.579 110.013 106.329 109.333 106.329C108.413 106.329 107.593 106.789 106.873 107.709C106.173 108.629 105.753 110.089 105.613 112.089L105.703 112.209C105.663 112.509 105.633 112.839 105.613 113.199C105.593 113.559 105.583 113.919 105.583 114.279C105.583 115.639 105.803 116.809 106.243 117.789C106.683 118.769 107.253 119.519 107.953 120.039C108.673 120.539 109.413 120.789 110.173 120.789C110.773 120.789 111.343 120.699 111.883 120.519C112.423 120.319 112.923 119.999 113.383 119.559C113.843 119.119 114.243 118.529 114.583 117.789L115.183 118.029C114.963 118.689 114.603 119.329 114.103 119.949C113.603 120.569 112.973 121.079 112.213 121.479C111.453 121.859 110.573 122.049 109.573 122.049C108.133 122.049 106.893 121.719 105.853 121.059C104.833 120.399 104.043 119.489 103.483 118.329C102.943 117.149 102.673 115.799 102.673 114.279C102.673 112.519 102.953 111.009 103.513 109.749C104.073 108.469 104.863 107.489 105.883 106.809C106.903 106.109 108.093 105.759 109.453 105.759ZM126.669 105.759C127.209 105.759 127.679 105.869 128.079 106.089C128.499 106.309 128.819 106.599 129.039 106.959C129.279 107.299 129.399 107.689 129.399 108.129C129.399 108.629 129.239 109.069 128.919 109.449C128.619 109.829 128.209 110.019 127.689 110.019C127.269 110.019 126.899 109.889 126.579 109.629C126.259 109.349 126.099 108.959 126.099 108.459C126.099 108.079 126.199 107.759 126.399 107.499C126.619 107.219 126.859 106.999 127.119 106.839C126.979 106.639 126.769 106.539 126.489 106.539C125.869 106.539 125.299 106.729 124.779 107.109C124.259 107.469 123.819 107.939 123.459 108.519C123.099 109.099 122.819 109.719 122.619 110.379C122.419 111.019 122.319 111.619 122.319 112.179V118.539C122.319 119.519 122.599 120.179 123.159 120.519C123.739 120.839 124.519 120.999 125.499 120.999V121.629C125.039 121.609 124.389 121.589 123.549 121.569C122.709 121.529 121.819 121.509 120.879 121.509C120.199 121.509 119.519 121.529 118.839 121.569C118.179 121.589 117.679 121.609 117.339 121.629V120.999C118.159 120.999 118.739 120.849 119.079 120.549C119.439 120.249 119.619 119.679 119.619 118.839V109.449C119.619 108.549 119.459 107.889 119.139 107.469C118.819 107.029 118.219 106.809 117.339 106.809V106.179C117.979 106.239 118.599 106.269 119.199 106.269C119.779 106.269 120.329 106.239 120.849 106.179C121.389 106.099 121.879 105.989 122.319 105.849V109.599C122.539 109.019 122.849 108.439 123.249 107.859C123.669 107.259 124.169 106.759 124.749 106.359C125.329 105.959 125.969 105.759 126.669 105.759ZM144.648 106.179V106.779C144.268 106.819 143.918 106.989 143.598 107.289C143.278 107.589 142.978 108.119 142.698 108.879L137.778 121.779H137.268L131.748 108.489C131.368 107.709 130.988 107.239 130.608 107.079C130.248 106.899 129.948 106.809 129.708 106.809V106.179C130.148 106.239 130.608 106.289 131.088 106.329C131.568 106.349 132.088 106.359 132.648 106.359C133.268 106.359 133.918 106.339 134.598 106.299C135.298 106.259 135.948 106.219 136.548 106.179V106.809C136.048 106.809 135.598 106.849 135.198 106.929C134.818 106.989 134.578 107.199 134.478 107.559C134.378 107.899 134.498 108.489 134.838 109.329L138.528 118.479L138.348 118.539L141.768 109.599C142.028 108.939 142.128 108.419 142.068 108.039C142.028 107.639 141.828 107.339 141.468 107.139C141.108 106.939 140.568 106.819 139.848 106.779V106.179C140.208 106.199 140.518 106.219 140.778 106.239C141.038 106.239 141.288 106.249 141.528 106.269C141.788 106.269 142.068 106.269 142.368 106.269C142.828 106.269 143.238 106.259 143.598 106.239C143.978 106.219 144.328 106.199 144.648 106.179ZM137.778 121.779L136.758 124.389C136.558 124.889 136.348 125.309 136.128 125.649C135.928 125.989 135.708 126.269 135.468 126.489C135.148 126.789 134.768 126.989 134.328 127.089C133.888 127.209 133.488 127.269 133.128 127.269C132.748 127.269 132.398 127.199 132.078 127.059C131.778 126.919 131.538 126.709 131.358 126.429C131.178 126.169 131.088 125.849 131.088 125.469C131.088 124.989 131.228 124.599 131.508 124.299C131.788 124.019 132.178 123.879 132.678 123.879C133.098 123.879 133.458 123.999 133.758 124.239C134.058 124.479 134.208 124.829 134.208 125.289C134.208 125.629 134.128 125.909 133.968 126.129C133.808 126.349 133.618 126.519 133.398 126.639C133.438 126.659 133.468 126.669 133.488 126.669C133.528 126.669 133.558 126.669 133.578 126.669C134.118 126.669 134.598 126.479 135.018 126.099C135.438 125.739 135.808 125.149 136.128 124.329L137.208 121.539L137.778 121.779Z" fill="black"/>
</svg>
